<?xml version="1.0" encoding="utf-8"?>
<!-- Generator: Adobe Illustrator 25.4.1, SVG Export Plug-In . SVG Version: 6.00 Build 0)  -->
<svg version="1.1" id="Capa_1" xmlns="http://www.w3.org/2000/svg" xmlns:xlink="http://www.w3.org/1999/xlink" x="0px" y="0px"
	 viewBox="0 0 1080 1080" style="enable-background:new 0 0 1080 1080;" xml:space="preserve">
<style type="text/css">
	.st0{fill:#00953B;}
	.st1{fill:#F5A800;}
	.st2{fill:#FFFFFF;}
</style>
<path class="st0" d="M848.65,545.1c0-4.1,0.24-8.55,0.78-13.38c0.54-4.79,1.32-9.92,2.34-15.39c-3.52-1.8-6.55-3.12-9.08-4
	c-2.49-0.83-4.54-1.27-6.06-1.27c-14.8,0-27.55,6.01-38.29,18.13c-10.74,12.07-16.07,25.94-16.07,41.71
	c0,15.64,2.74,27.35,8.25,35.17c5.57,7.82,13.87,11.72,24.91,11.72c9.18,0,16.95-1.66,23.35-4.98c3.42-1.81,8.25-5.42,14.46-10.89
	C850.17,576.65,848.65,557.71,848.65,545.1 M878.4,644.55c-1.81,0-5.09-2.1-9.87-6.31c-4.3-3.91-7.47-7.38-9.58-10.4
	c-9.18,4.93-17.24,8.69-24.18,11.23c-6.99,2.49-12.8,3.76-17.49,3.76c-22.32,0-38.58-6.3-48.79-18.9
	c-9.62-11.82-14.46-29.94-14.46-54.37c0-23.05,7.96-42.84,23.84-59.25c15.88-16.42,34.88-24.62,56.91-24.62
	c8.3,0,17.58,2.15,27.89,6.45c12.99,5.37,19.44,11.77,19.44,19.35c0,2.54-0.93,4.83-2.84,6.83c-0.98,3.66-1.71,9.62-2.24,17.93
	c-0.49,8.3-0.83,18.9-0.93,31.89c-0.09,11.82,0.74,21.15,2.44,28.03c0.98,4.2,3.96,12.61,9.04,25.21c0.63,1.71,1.76,4.25,3.27,7.57
	l0.88,2.45c0,3.8-1.37,6.93-4,9.42C885.04,643.33,881.97,644.55,878.4,644.55 M737.19,529.38c-0.68,11.92-5.47,17.88-14.31,17.88
	c-8.21,0-12.31-4.74-12.31-14.16c0-1.81-0.15-5.13-0.44-10.02l-0.44-12.01c-15.09,1.81-27.16,6.06-36.19,12.75
	c-8.51,6.21-15.59,15.54-21.2,28.04l0.29,78.39c0,9.68-4.74,14.46-14.17,14.46c-8.4,0-12.61-4.78-12.61-14.46V529.81
	c0-3.17,0.15-7.86,0.39-14.17c0.2-6.31,0.34-11.04,0.34-14.17c0-9.67,4.2-14.45,12.6-14.45c9.33,0,14.07,7.91,14.17,23.74
	c18.32-17.63,38.64-26.47,60.96-26.47c7.71,0,13.48,2.93,17.29,8.74c3.8,5.82,5.71,14.61,5.71,26.34
	C737.28,524.29,737.24,527.66,737.19,529.38 M542.09,511.5c-18.12,0-32.14,6.25-42.05,18.75c-8.89,11.23-13.34,25.55-13.34,42.89
	c0,13.87,2.64,24.27,7.86,31.21c5.27,6.99,13.14,10.45,23.64,10.45c9.62,0,18.95-5.42,28.04-16.32
	c8.21-10.01,12.89-19.93,14.02-29.75c2-10.3,4.15-26.47,6.45-48.55c-3.81-2.93-7.77-5.13-11.87-6.54
	C550.74,512.18,546.5,511.5,542.09,511.5 M588.02,573.43l-3.28,48.11c-0.59,19.05-2.54,34.68-5.86,46.79
	c-4.3,15.44-11.19,26.82-20.61,34.2c-11.43,8.89-27.99,13.28-49.68,13.28c-12.65,0-23.3-0.83-31.9-2.54
	c-12.01-2.4-18.02-7.38-18.02-14.89c0-8.5,4.15-12.76,12.45-12.76c3.42,0,9.14,0.84,17.15,2.49c8.01,1.71,16.9,2.44,26.62,2.25
	c18.32-0.29,30.97-9.18,37.95-26.62c4.54-11.62,6.99-29.55,7.27-53.68c-5.13,9.57-11.28,16.71-18.36,21.49
	c-7.13,4.74-15.24,7.14-24.42,7.14c-17.24,0-31.31-5.87-42.16-17.69c-10.8-11.77-16.22-27.06-16.22-45.87
	c0-25.74,7.38-46.5,22.18-62.23c15.24-16.21,36.04-24.32,62.38-24.32c8.89,0,16.32,1.12,22.32,3.42c6.01,2.29,10.6,5.72,13.77,10.3
	c10.16,0.3,15.29,5.96,15.29,17.06c0,6.78-1.03,15.82-3.02,27.2C589.72,559.7,588.4,568.69,588.02,573.43 M372.65,511.34
	c-11.62,0-21.3,4.5-29.01,13.54c-7.77,8.99-13.53,22.57-17.34,40.69l43.91-20.91c17.29-8.35,29.6-15.68,36.93-21.88
	C398.93,515.16,387.45,511.34,372.65,511.34 M376.51,641.72c-21.54,0-38.98-5.42-52.36-16.17c-14.61-11.92-21.89-28.61-21.89-50.11
	c0-24.81,6.01-45.57,18.03-62.38c13.09-18.32,30.53-27.5,52.36-27.5c15.88,0,28.77,2.68,38.79,8.06
	c12.31,6.54,18.46,16.66,18.46,30.33c0,9.53-5.37,18.23-16.17,26.04c-4.79,3.42-14.89,8.79-30.33,16.03l-54.66,25.88
	c5.32,7.92,11.96,13.87,19.97,17.88c7.96,4.01,17.25,6.01,27.8,6.01c6.59,0,14.31-1.23,23.2-3.71c11.23-3.12,18.51-7.27,21.74-12.36
	c3.27-5.12,6.74-7.66,10.45-7.66c3.37,0,6.35,1.27,8.94,3.8c2.64,2.54,3.96,5.47,3.96,8.79c0,10.6-8.55,19.69-25.64,27.36
	C404.6,638.44,390.38,641.72,376.51,641.72 M265.73,522.64l-2.15,71.12c0,7.57-0.34,18.61-1.12,33.21
	c-0.97,9.52-5.62,14.31-14.01,14.31c-9.38,0-14.02-4.89-14.02-14.6c0-11.53,0.53-28.88,1.56-52.02c1.03-23.11,1.56-40.45,1.56-52.02
	c0-15.05,0.25-32.29,0.73-51.73c0.49-19.39,0.73-36.63,0.73-51.73c0-9.52,4.64-14.31,14.02-14.31c9.42,0,14.17,4.79,14.17,14.31
	c0,15.1-0.24,32.34-0.73,51.73C265.97,490.34,265.73,507.59,265.73,522.64 M123.49,475.84l-40.94,65.99
	c11.53-2.98,29.07-6.54,52.51-10.75L123.49,475.84z M174,639.42c-8.79,0-16.42-11.28-22.91-33.8c-2.44-8.55-5.57-23.59-9.28-45.04
	c-9.72,1.32-22.47,3.71-38.2,7.13l-38.1,7.86c-4.74,12.51-12.89,30.77-24.47,54.8c-3.03,5.37-7.18,8.01-12.41,8.01
	c-3.86,0-7.23-1.37-10.26-4.15c-2.98-2.73-4.49-6.2-4.49-10.3c0-4.55,7.18-21.98,21.59-52.22c-1.61-2.49-2.44-5.32-2.44-8.59
	c0-7.71,4.69-12.65,14.02-14.85c10.89-20.42,24.62-43.91,41.22-70.44c22.62-36.14,36.68-54.21,42.2-54.21
	c7.57,0,12.7,5.22,15.48,15.72l8.99,48.12l21.34,99.45l8.16,22.61c2.78,7.72,4.15,12.85,4.15,15.44c0,4.11-1.47,7.52-4.45,10.3
	C181.22,638.06,177.81,639.42,174,639.42"/>
<path class="st1" d="M958.58,557.22c-6.82,3.9-13.66,5.79-19.12,4.35c-3.89-1.15-9.43,1.36-13.28,4.33
	c0.48-4.88-0.93-12.59-2.95-14.65c-2.15-4.96-3.17-11.06-3.18-17.52c6.51-5.57,14.3-4.46,25,1.6
	C955.96,541.51,960.6,549.02,958.58,557.22"/>
<path class="st1" d="M957.72,513.56c-14.03-7.94-24.52-9.88-33.32-3.85c-1.73,4.64-2.97,9.59-3.67,14.54
	c7.72-6.5,16.95-5.14,29.6,2.02c12.74,7.21,18.29,15.94,16.23,25.49c3.94-3.17,7.68-6.87,10.9-10.83
	C978.26,530.72,971.55,521.38,957.72,513.56z"/>
<path class="st1" d="M979.8,502.11l-21.95-12.67c-12.12-7-22.44-0.36-29.26,11.32c10.59-3.22,22.99-2,33.99,4.34
	c11,6.35,18.26,16.49,20.76,27.27C989.98,520.71,991,508.57,979.8,502.11z"/>
<path class="st0" d="M962.58,452.05c0.02-0.96,0.13-1.94,0.23-2.92c-18.53-10.52-37.84-21.55-57.73-27.86
	c-28.18-10.58-39.83,32.7-12.91,34.22l70.66,1.24C962.65,455.2,962.54,453.64,962.58,452.05z"/>
<path class="st0" d="M1014.82,505.83l-1.34-2.7l-11.38-22.91c-0.18,0.08-0.37,0.15-0.55,0.22c-0.65,1.91-1.63,3.8-2.82,5.61
	c-2.23,3.39-5.26,6.48-8.6,8.79c-1.62,1.12-3.31,2.05-5.02,2.75c3.19,10.21,6.85,20.21,12.17,28.22
	c4.46,6.72,9.76,12.39,16.19,16.45c1.22,0.77,2.49,1.48,3.79,2.14C1042.25,560.25,1026.09,526.85,1014.82,505.83z"/>
<path class="st0" d="M1063.26,512.6c-14.51-13.25-32.4-23.97-49.78-34.18c-1.34-0.79-2.67-1.57-4-2.35
	c-0.84,0.6-1.68,1.21-2.55,1.74c-1.19,0.71-2.4,1.32-3.62,1.88l10.18,16.93l26.61,44.28
	C1054.86,563.43,1086.52,531.72,1063.26,512.6z"/>
<path class="st0" d="M960.6,463.87c0.78-1.54,1.68-2.98,2.69-4.27c-0.11-0.5-0.23-0.99-0.32-1.5l-27.82,1.74
	c-23.84,0.74-60.84,3.45-34.61,17.16c7.61,5.06,16.51,7.42,26.08,8.02c9.65,0.61,20.21-1.25,30.7-3.6c-0.24-1.83-0.27-3.76-0.1-5.73
	C957.58,471.64,958.77,467.48,960.6,463.87z"/>
<path class="st1" d="M991.1,419.7c-1.03-3.03-2.43-6.01-4.16-9.33c-0.76-1.46-0.83-3.18-0.19-4.69c0.64-1.51,1.92-2.67,3.49-3.14
	l4.31-1.29c2.52-0.75,5.22,0.39,6.46,2.72c3.55,6.75,6.32,12.01,7.24,20.39c7.72-3.4,13.67-3.63,21.29-3.92
	c2.66-0.05,4.97,1.67,5.58,4.23l1.03,4.35c0.38,1.6,0.03,3.29-0.96,4.6c-0.99,1.31-2.52,2.12-4.16,2.19
	c-3.75,0.17-7.02,0.45-10.17,1.08c5.93,6.69,6.33,16.33,0.65,26.16c-1.95,3.37-4.52,6.49-7.4,9.25
	c14.74,8.65,29.84,17.57,43.28,28.09l9.02-5.01v-42.94v-42.94l-37.19-21.47l-37.19-21.47l-37.19,21.47l-37.19,21.47v10.37
	c15.78,6.26,31.14,14.87,46.1,23.36c0.94-3.87,2.42-7.64,4.37-11.02C973.8,422.37,982.35,417.91,991.1,419.7z"/>
<path class="st0" d="M1012.57,437.21l-3.62-2.09c7.35-3.54,13.7-4.46,21.84-4.82c-0.34-1.45-0.69-2.9-1.03-4.35
	c-9.86,0.38-15.38,0.69-25.28,6.59l-1.42-0.83c0.16-11.51-2.33-16.45-6.92-25.18c-1.43,0.43-2.86,0.86-4.29,1.29
	c3.76,7.22,6.15,13.18,6.75,21.32l-3.62-2.09c-13.11-7.57-23.44,5.39-26.17,19c-0.41,2.03-0.65,4.08-0.7,6.08c0,0.18,0,0.36,0,0.53
	c-0.01,0.87,0.02,1.72,0.09,2.56c1.01-0.58,2.07-1,3.18-1.27c2.81-0.67,5.92-0.29,9.24,1.63l5.73,3.31l3.73,2.15l5.92,3.42
	c1.38,0.8,2.49,1.7,3.41,2.68c0.79,0.84,1.42,1.74,1.9,2.68c0.3,0.59,0.54,1.2,0.72,1.82c0.23,0.78,0.39,1.58,0.46,2.4
	c0.43-0.23,0.86-0.48,1.29-0.73c0.18-0.1,0.36-0.2,0.54-0.31c1.7-1.04,3.35-2.28,4.91-3.65
	C1019.63,460.2,1025.67,444.78,1012.57,437.21z"/>
<path class="st2" d="M1002.46,474.05c-0.07-0.82-0.23-1.62-0.46-2.4c-0.18-0.62-0.42-1.23-0.72-1.82c-0.48-0.94-1.11-1.84-1.9-2.68
	c-0.92-0.98-2.03-1.88-3.41-2.68l-5.92-3.42l-3.73-2.15l-5.73-3.31c-3.32-1.92-6.43-2.3-9.24-1.63c-1.11,0.27-2.17,0.69-3.18,1.27
	c-0.77,0.44-1.5,0.96-2.2,1.56c-0.44,0.38-0.87,0.78-1.29,1.21c-0.49,0.5-0.96,1.04-1.41,1.61c-1.01,1.29-1.91,2.72-2.69,4.27
	c-1.83,3.61-3.02,7.77-3.37,11.81c-0.17,1.97-0.14,3.9,0.1,5.73c0.58,4.47,2.43,8.28,5.86,10.26l10.26,5.92
	c3.39,1.96,7.56,1.68,11.67,0c1.7-0.69,3.39-1.62,5.02-2.75c3.33-2.31,6.36-5.4,8.6-8.79c1.19-1.81,2.17-3.7,2.82-5.61
	c0.09-0.27,0.17-0.55,0.25-0.82c0.17-0.58,0.31-1.16,0.42-1.73C1002.46,476.59,1002.56,475.3,1002.46,474.05z"/>
</svg>
