<?xml version="1.0" encoding="utf-8"?>
<!-- Generator: Adobe Illustrator 25.4.1, SVG Export Plug-In . SVG Version: 6.00 Build 0)  -->
<svg version="1.1" id="Capa_1" xmlns="http://www.w3.org/2000/svg" xmlns:xlink="http://www.w3.org/1999/xlink" x="0px" y="0px"
	 viewBox="0 0 1080 1080" style="enable-background:new 0 0 1080 1080;" xml:space="preserve">
<style type="text/css">
	.st0{fill:#BB2027;}
	.st1{fill:#204496;}
	.st2{fill:#FFFFFF;}
</style>
<g>
	<g>
		<path class="st0" d="M758.18,517.83c31.74,104.13,143.92,53.27,147.69,141.53c-22.65,14.64-51.73,18.76-78.94,8.56
			c-41.82-15.69-64.75-59.75-55.06-102.13C765.01,553.53,760.41,538.07,758.18,517.83"/>
		<path class="st0" d="M906.8,659.5c11.45-108.45-133.13-37.83-148.13-181.52C787.19,589.78,957.94,538.49,906.8,659.5"/>
		<path class="st1" d="M799.47,521.36c1.66-3.1,4.97-6.06,7.8-8.17c23.01-16.1,53.27-20.96,81.58-10.37
			c45.61,17.1,68.71,67.93,51.61,113.51c-6.43,17.24-17.76,31.28-31.77,41.17C956.71,559.59,858.06,566.9,799.47,521.36"/>
	</g>
</g>
<path class="st0" d="M373.96,421.83H322.2c-11.22,8.28-21.22,15.62-30.03,22c-3.79,2.76-7.5,5.43-11.13,8.02
	c-3.62,2.59-6.86,4.92-9.7,6.99c-2.85,2.07-5.18,3.71-6.99,4.92c-1.81,1.21-2.81,1.81-2.98,1.81h57.45L373.96,421.83z"/>
<polygon class="st0" points="290.14,531.78 212.61,531.78 212.61,489.34 295.54,489.34 "/>
<path class="st0" d="M371.58,759.43l0.73-269.2h50.58v14.66c13.68-9.77,27.12-14.66,40.32-14.66c23.94-0.12,44.16,8.98,60.66,27.31
	c16.49,18.32,24.74,39.7,24.74,64.14c0,24.44-8.24,45.81-24.74,64.14c-16.5,18.32-36.72,27.55-60.66,27.67
	c-18.33-1.22-31.77-6.17-40.32-14.84v100.97L371.58,759.43z"/>
<rect x="540.5" y="490.23" class="st0" width="50.39" height="183.44"/>
<g>
	<path class="st0" d="M295.54,489.14c14.16,0,26.13,1.81,35.9,5.42c9.78,3.61,17.7,9.21,23.77,16.78
		c6.07,7.57,10.5,17.12,13.31,28.66c2.81,11.54,4.22,25.23,4.22,41.07v87.72h-50.57v-18.52h-1.01
		c-4.27,7.22-10.74,12.82-19.38,16.78c-8.65,3.96-18.04,5.94-28.15,5.94c-6.74,0-13.71-0.93-20.9-2.79
		c-7.19-1.86-13.77-4.89-19.72-9.09c-5.96-4.2-10.85-9.79-14.66-16.78c-3.82-6.99-5.73-15.61-5.73-25.86
		c0-12.58,3.31-22.72,9.95-30.4c6.63-7.69,15.17-13.63,25.62-17.83c10.45-4.19,22.08-6.99,34.89-8.39c12.81-1.4,25.29-2.1,37.42-2.1
		v-2.8c0-8.62-2.92-14.97-8.77-19.05c-5.85-4.07-13.04-6.12-21.58-6.12C282.27,531.78,281.83,489.14,295.54,489.14z M322.17,592.94
		h-7.08c-6.07,0-12.19,0.29-18.37,0.87c-6.18,0.58-11.69,1.69-16.52,3.32c-4.84,1.63-8.82,4.02-11.97,7.16
		c-3.15,3.15-4.72,7.29-4.72,12.41c0,3.27,0.73,6.06,2.19,8.39c1.46,2.33,3.32,4.19,5.56,5.59c2.25,1.4,4.83,2.39,7.75,2.97
		c2.92,0.58,5.73,0.87,8.43,0.87c11.24,0,19.83-3.2,25.79-9.61c5.95-6.4,8.93-15.08,8.93-26.04V592.94z"/>
	<path class="st1" d="M1039.05,545.41c-4.5-4.42-9.78-8.15-15.85-11.18c-6.07-3.02-12.47-4.54-19.22-4.54
		c-5.17,0-9.95,1.05-14.33,3.15c-4.38,2.1-6.57,5.71-6.57,10.83c0,4.89,2.41,8.39,7.25,10.48c4.83,2.1,12.64,4.43,23.43,6.99
		c6.29,1.4,12.64,3.38,19.05,5.94c6.41,2.57,12.19,5.94,17.36,10.13c5.17,4.2,9.32,9.32,12.47,15.38
		c3.14,6.06,4.72,13.28,4.72,21.67c0,10.95-2.14,20.21-6.41,27.79c-4.27,7.57-9.83,13.69-16.69,18.35
		c-6.86,4.66-14.55,8.04-23.09,10.13c-8.54,2.1-17.08,3.15-25.62,3.15c-13.71,0-27.14-2.27-40.29-6.81
		c-13.15-4.54-24.1-11.24-32.87-20.1l31.01-33.9c4.94,5.59,11.01,10.26,18.21,13.98c7.19,3.73,14.83,5.59,22.92,5.59
		c4.49,0,8.93-1.1,13.32-3.32c4.38-2.21,6.58-6.12,6.58-11.71c0-5.36-2.7-9.32-8.09-11.88c-5.4-2.56-13.82-5.24-25.29-8.04
		c-5.85-1.4-11.69-3.26-17.53-5.59c-5.85-2.33-11.07-5.47-15.68-9.44c-4.61-3.96-8.37-8.85-11.29-14.68
		c-2.92-5.82-4.38-12.81-4.38-20.97c0-10.49,2.13-19.4,6.41-26.74c4.27-7.34,9.78-13.33,16.52-18c6.74-4.66,14.21-8.09,22.42-10.31
		c8.2-2.21,16.35-3.32,24.44-3.32c12.58,0,24.89,2.04,36.91,6.11c12.02,4.08,22.19,10.2,30.51,18.35L1039.05,545.41z"/>
</g>
<path class="st1" d="M22.86,559.87v-51.13h132.13c22.11-0.37,33.47-10.45,34.09-30.24c-0.62-18.08-11.79-27.49-33.54-28.22
	l-132.49,0.18v-51.68h119.85c64.14,0,96.21,26.39,96.21,79.17c0,39.7-16.86,64.99-50.58,75.87l68.54,119.85h-63.04l-65.79-113.62
	L22.86,559.87z"/>
<ellipse class="st2" cx="463.86" cy="583.87" rx="43.76" ry="49.39"/>
<ellipse class="st2" cx="669.02" cy="583.87" rx="43.76" ry="49.39"/>
<g>
	<path class="st0" d="M763.09,404.97l-0.73,269.2h-50.58v-14.66c-13.68,9.77-27.12,14.66-40.32,14.66
		c-23.94,0.12-44.16-8.98-60.66-27.31c-16.49-18.32-24.74-39.7-24.74-64.14c0-24.44,8.24-45.81,24.74-64.14
		c16.5-18.32,36.72-27.55,60.66-27.67c18.33,1.22,31.77,6.17,40.32,14.84V404.79L763.09,404.97z"/>
	<ellipse class="st2" cx="670.81" cy="580.53" rx="43.76" ry="49.39"/>
</g>
</svg>
