<?xml version="1.0" encoding="utf-8"?>
<!-- Generator: Adobe Illustrator 25.4.1, SVG Export Plug-In . SVG Version: 6.00 Build 0)  -->
<svg version="1.1" id="Capa_1" xmlns="http://www.w3.org/2000/svg" xmlns:xlink="http://www.w3.org/1999/xlink" x="0px" y="0px"
	 viewBox="0 0 1080 1080" style="enable-background:new 0 0 1080 1080;" xml:space="preserve">
<style type="text/css">
	.st0{clip-path:url(#SVGID_00000011734982169772379190000016455178377249843074_);fill:#CF3339;}
	.st1{clip-path:url(#SVGID_00000011734982169772379190000016455178377249843074_);fill:#FFFFFF;}
	.st2{clip-path:url(#SVGID_00000011734982169772379190000016455178377249843074_);fill:#ECD925;}
</style>
<g>
	<defs>
		<rect id="SVGID_1_" x="31.53" y="376.77" width="1022.2" height="328.81"/>
	</defs>
	<clipPath id="SVGID_00000072987971184152892560000006920103894701879692_">
		<use xlink:href="#SVGID_1_"  style="overflow:visible;"/>
	</clipPath>
	
		<rect x="31.63" y="376.77" style="clip-path:url(#SVGID_00000072987971184152892560000006920103894701879692_);fill:#CF3339;" width="1022.09" height="328.71"/>
	<polygon style="clip-path:url(#SVGID_00000072987971184152892560000006920103894701879692_);fill:#FFFFFF;" points="542.5,439.12 
		526.15,439.12 526.15,500.67 503.94,500.67 503.94,439.12 487.59,439.12 487.59,586.01 503.94,586.01 503.94,523.75 526.15,523.75 
		526.15,586.01 542.5,586.01 	"/>
	
		<rect x="625.01" y="432.49" style="clip-path:url(#SVGID_00000072987971184152892560000006920103894701879692_);fill:#FFFFFF;" width="16.16" height="153.52"/>
	<path style="clip-path:url(#SVGID_00000072987971184152892560000006920103894701879692_);fill:#FFFFFF;" d="M591.75,586.18h17.02
		V514.6c0-12.37-2.16-21.56-6.48-27.59c-4.32-6.02-11.21-9.04-20.68-9.04c-3.85,0-7.67,0.64-11.46,1.93
		c-3.78,1.28-6.53,2.39-8.22,3.33v25.42h1.47c2.58-2.19,5.22-3.98,7.93-5.39c2.71-1.41,5.08-2.11,7.1-2.11
		c4.47,0,7.83,1.11,10.06,3.32c2.23,2.21,3.35,6.22,3.35,12.01v0.56c-4.96,0.62-9.59,1.5-13.9,2.62c-4.31,1.13-8.01,3.12-11.11,5.99
		c-3.07,2.81-5.42,6.62-7.05,11.43c-1.63,4.81-2.45,11.12-2.45,18.93c0,9.49,0.5,15.28,3.72,21.53c3.21,6.25,5.81,8.84,10.67,8.84
		h7.9C584.75,586.37,591.75,586.18,591.75,586.18 M587.5,564.14c-1.57,1.31-3.1,1.96-4.6,1.96c-2.71,0-4.75-0.91-6.14-2.75
		c-1.39-1.83-2.08-5.2-2.08-10.12c0-3.36,0.41-6.04,1.25-8.06c0.83-2.02,1.99-3.53,3.5-4.52c1.73-1.18,3.49-1.98,5.29-2.38
		c1.79-0.41,4.14-0.89,7.04-1.45v21.82C590.48,561,589.06,562.84,587.5,564.14"/>
	<path style="clip-path:url(#SVGID_00000072987971184152892560000006920103894701879692_);fill:#FFFFFF;" d="M687.13,588.28
		c1.14-0.47,2.35-1.14,3.65-2.02c1.04-0.68,2.07-1.56,3.07-2.62c1-1.06,1.89-2,2.65-2.81v-28.12h-1.72c-0.46,1.14-1,2.42-1.64,3.84
		c-0.64,1.42-1.4,2.8-2.29,4.12c-0.92,1.33-2.01,2.46-3.28,3.41c-1.27,0.95-2.75,1.42-4.43,1.42c-3.31,0-5.96-2.6-7.96-7.8
		c-2-5.2-3-13.1-3-23.7c0-9.9,0.93-17.79,2.8-23.65c1.87-5.86,4.52-8.79,7.92-8.79c1.5,0,2.86,0.46,4.08,1.37
		c1.22,0.92,2.31,2.04,3.28,3.37c0.91,1.26,1.76,2.66,2.54,4.17c0.77,1.52,1.43,2.91,1.96,4.17h1.72v-28.13
		c-2.39-2.94-4.77-5.08-7.14-6.42c-2.37-1.34-4.73-2.02-7.1-2.02c-3.13,0-6.14,1.05-9.02,3.14c-2.89,2.09-5.41,5.33-7.54,9.69
		c-2.22,4.56-3.97,10.37-5.27,17.42s-1.95,15.61-1.95,25.67c0,9.36,0.6,17.5,1.8,24.4c1.2,6.9,2.86,12.63,5,17.19
		c2.16,4.56,4.71,7.93,7.65,10.11c2.94,2.19,6.18,3.29,9.72,3.29C684.5,588.98,685.99,588.75,687.13,588.28"/>
	<path style="clip-path:url(#SVGID_00000072987971184152892560000006920103894701879692_);fill:#FFFFFF;" d="M828.88,517.7
		c0-12.87-1.48-22.69-4.45-29.47c-2.98-6.77-7.26-10.16-12.87-10.16c-3.23,0-6.18,1.28-8.84,3.84c-2.66,2.56-5.39,6.12-8.2,10.68
		v-11.62h-17.13v105.22h17.13v-74.56c1.64-2.18,3.16-3.78,4.61-4.78c1.43-1,2.85-1.5,4.26-1.5c1.86,0,3.34,0.51,4.45,1.54
		c1.11,1.03,1.96,2.73,2.54,5.1c0.49,2,0.82,5.11,1,9.33c0.18,4.21,0.27,8.44,0.27,12.69v52.17h17.23V517.7z"/>
	<path style="clip-path:url(#SVGID_00000072987971184152892560000006920103894701879692_);fill:#FFFFFF;" d="M857.47,520.04
		c0.2-6.57,1.24-11.75,3.12-15.57c1.88-3.81,4.49-5.72,7.84-5.72c3.27,0,5.71,1.82,7.3,5.44c1.59,3.63,2.43,8.9,2.53,15.85H857.47z
		 M879.77,588.19c1.97-0.53,3.89-1.26,5.75-2.2c2.02-0.94,3.61-1.86,4.77-2.76c1.16-0.91,2.44-1.89,3.84-2.95v-27.07h-1.81
		c-0.75,1.07-1.73,2.28-2.92,3.66c-1.19,1.37-2.49,2.65-3.9,3.83c-1.6,1.38-3.36,2.49-5.29,3.33c-1.93,0.85-3.89,1.26-5.88,1.26
		c-2.33,0-4.46-0.42-6.42-1.26c-1.96-0.84-3.68-2.23-5.15-4.17c-1.5-1.94-2.71-4.54-3.62-7.82c-0.92-3.28-1.46-7.35-1.62-12.23
		h37.59v-11.81c0-16.19-2.11-28.63-6.36-37.31c-4.24-8.69-10.57-13.03-18.99-13.03c-9.27,0-16.48,5.12-21.63,15.37
		c-5.16,10.24-7.74,23.95-7.74,41.13c0,17.56,2.77,31.08,8.3,40.58c5.53,9.49,13.49,14.24,23.86,14.24
		C875.39,588.98,877.8,588.72,879.77,588.19"/>
	<path style="clip-path:url(#SVGID_00000072987971184152892560000006920103894701879692_);fill:#FFFFFF;" d="M931.03,586.27
		c3.18-1.81,5.95-4.37,8.3-7.68c2.22-3.06,3.93-6.82,5.14-11.28c1.21-4.46,1.82-9.16,1.82-14.09c0-7.8-1.02-14.06-3.06-18.77
		c-2.04-4.71-5.03-8.28-8.98-10.72c-1.76-1.12-3.6-2.01-5.5-2.66c-1.9-0.66-3.59-1.33-5.07-2.01c-2.84-1.31-4.67-2.65-5.53-4.03
		c-0.84-1.37-1.27-3.24-1.27-5.61c0-2.68,0.86-4.82,2.57-6.44c1.71-1.62,3.8-2.43,6.28-2.43c1.86,0,3.67,0.41,5.45,1.22
		c1.78,0.81,3.38,1.84,4.81,3.09c1.21,1.06,2.45,2.32,3.72,3.79c1.27,1.46,2.2,2.63,2.79,3.5h1.37v-26.58
		c-2.22-2.06-4.94-3.82-8.17-5.29c-3.23-1.47-6.78-2.2-10.63-2.2c-4.04,0-7.67,0.94-10.89,2.81c-3.22,1.87-5.92,4.4-8.1,7.58
		c-2.19,3.24-3.84,6.94-4.97,11.09c-1.13,4.15-1.69,8.57-1.69,13.25c0,8.17,1.09,14.77,3.26,19.79c2.17,5.02,5.4,8.82,9.71,11.37
		c1.54,0.94,3.29,1.77,5.28,2.48c1.99,0.72,3.63,1.38,4.94,2.01c2.45,1.13,4.09,2.31,4.94,3.56c0.85,1.25,1.27,3.09,1.27,5.52
		c0,3.11-0.92,5.39-2.76,6.82c-1.85,1.43-3.98,2.15-6.39,2.15c-2.35,0-4.53-0.51-6.53-1.55c-2.01-1.02-3.81-2.27-5.41-3.7
		c-1.86-1.56-3.31-3.06-4.36-4.5c-1.04-1.44-1.97-2.75-2.78-3.94h-1.42v27.74c2.35,2.25,5.33,4.22,8.94,5.9
		c3.6,1.68,7.43,2.53,11.48,2.53C924.04,588.98,927.84,588.08,931.03,586.27"/>
	<path style="clip-path:url(#SVGID_00000072987971184152892560000006920103894701879692_);fill:#FFFFFF;" d="M745.8,549.53
		c-0.49,3.79-1.22,7.02-2.17,9.71c-0.8,2.25-1.87,3.94-3.22,5.07c-1.35,1.13-2.66,1.69-3.96,1.69c-1.57,0-3.01-0.56-4.31-1.69
		c-1.29-1.13-2.37-2.91-3.24-5.35c-0.84-2.38-1.51-5.55-2.04-9.53c-0.53-3.97-0.79-9.18-0.79-15.62c0-6.45,0.27-11.79,0.83-16.05
		c0.56-4.26,1.29-7.6,2.22-10.04c0.99-2.56,2.07-4.3,3.24-5.21c1.17-0.91,2.48-1.36,3.93-1.36c1.54,0,2.92,0.52,4.12,1.55
		c1.21,1.03,2.29,2.86,3.24,5.49c0.9,2.5,1.6,5.83,2.1,10c0.51,4.15,0.76,9.37,0.76,15.63C746.54,540.51,746.3,545.75,745.8,549.53
		 M756.18,492.62c-4.7-9.97-11.33-14.95-19.87-14.95c-8.5,0-15.12,4.95-19.85,14.85c-4.72,9.9-7.08,23.6-7.08,41.1
		c0,17.31,2.36,30.95,7.08,40.91c4.73,9.97,11.34,14.95,19.85,14.95c8.58,0,15.21-4.98,19.9-14.95c4.69-9.97,7.03-23.6,7.03-40.91
		C763.24,516.26,760.89,502.58,756.18,492.62"/>
	<path style="clip-path:url(#SVGID_00000072987971184152892560000006920103894701879692_);fill:#ECD925;" d="M31.63,542.61
		c19-20.32,139.16-148.65,159.04-165.84h-15.6L31.63,526.67V542.61z"/>
	<polygon style="clip-path:url(#SVGID_00000072987971184152892560000006920103894701879692_);fill:#ECD925;" points="31.63,672.92 
		444.41,376.77 427.09,376.77 31.63,664.53 	"/>
	<path style="clip-path:url(#SVGID_00000072987971184152892560000006920103894701879692_);fill:#ECD925;" d="M36.86,696.25
		c0,0,301.36-88.01,518.71-58.67c0,0,24,6.67-38.67,24c-62.67,17.34-166.68,44-166.68,44h-21.33c0,0,193.35-56,201.35-62.67
		c8-6.66-129.34-1.33-174.68,2.67c-45.34,4-189.35,30.67-318.69,56V696.25z"/>
	<path style="clip-path:url(#SVGID_00000072987971184152892560000006920103894701879692_);fill:#FFFFFF;" d="M402.22,612.24
		c0,9.33-196.02,92.01-196.02,92.01l17.34,1.33c6.66,0,213.35-97.79,202.68-105.79c-63.85-19.12-356.91,79.53-394.59,92.38
		l-0.11,11.04l5.23-1.74c120.54-56.05,344.03-93.56,344.03-93.56S402.22,602.91,402.22,612.24"/>
</g>
</svg>
