<?xml version="1.0" encoding="utf-8"?>
<!-- Generator: Adobe Illustrator 25.4.1, SVG Export Plug-In . SVG Version: 6.00 Build 0)  -->
<svg version="1.1" id="Capa_1" xmlns="http://www.w3.org/2000/svg" xmlns:xlink="http://www.w3.org/1999/xlink" x="0px" y="0px"
	 viewBox="0 0 1080 1080" style="enable-background:new 0 0 1080 1080;" xml:space="preserve">
<style type="text/css">
	.st0{fill:#211261;}
	.st1{fill:#5F6DB2;}
</style>
<path class="st0" d="M114.9,309.59c28.24,91.76,125.19,159.41,281.93,174.7c236.52,23.07,653.8-141.94,634.49,159.78
	C990.29,440.16,642.5,590.27,382.81,584C202.49,579.63,85.7,480.34,114.9,309.59"/>
<path class="st1" d="M1041.84,627.69c12.23-148.53-93.19-175.05-212.09-179.28c-172.17-6.13-649.29,96.45-513.41-193.41
	c-53.16,204.47,328.31,99.64,521.55,104.32C972.07,362.56,1131.2,398.61,1041.84,627.69"/>
<path class="st0" d="M527.23,817.87c0,2.65-0.43,5.25-1.29,7.8c-0.87,2.57-2.06,4.76-3.57,6.57c-1.71,2.06-3.48,3.58-5.37,4.55
	c-1.87,0.99-3.91,1.47-6.15,1.47c-3.31,0-5.92-1.02-7.81-3.05c-1.89-2.04-2.85-4.85-2.85-8.41c0-2.77,0.48-5.48,1.43-8.14
	c0.95-2.66,2.29-4.98,4.02-6.98c1.43-1.68,3.1-2.98,4.98-3.89c1.9-0.92,3.86-1.38,5.89-1.38c3.35,0,5.98,1.01,7.88,3.03
	C526.28,811.45,527.23,814.27,527.23,817.87 M537.2,818.11c0-5.69-1.78-10.1-5.32-13.27c-3.55-3.17-8.53-4.76-14.96-4.76
	c-3.57,0-6.89,0.59-9.98,1.73c-3.08,1.15-5.8,2.82-8.14,5.01c-2.74,2.57-4.86,5.52-6.34,8.88c-1.48,3.35-2.24,6.84-2.24,10.44
	c0,5.74,1.79,10.28,5.35,13.66c3.57,3.38,8.4,5.06,14.47,5.06c3.68,0,7.08-0.54,10.2-1.65c3.11-1.1,5.84-2.7,8.18-4.8
	c2.84-2.56,5.01-5.57,6.52-9.07C536.45,825.88,537.2,822.13,537.2,818.11"/>
<path class="st0" d="M489.92,802.52l-2.42,6.81c-1.93-0.91-3.84-1.58-5.75-2.02c-1.9-0.44-3.87-0.65-5.89-0.65
	c-3.31,0-6.24,0.47-8.77,1.4c-2.53,0.93-4.75,2.37-6.65,4.29c-1.54,1.59-2.76,3.5-3.66,5.71c-0.9,2.22-1.35,4.43-1.35,6.64
	c0,4.07,1.4,7.3,4.19,9.7c2.8,2.4,6.56,3.6,11.27,3.6c1.69,0,3.4-0.18,5.16-0.52c1.76-0.36,3.58-0.9,5.46-1.63l-0.91,7.48
	c-2.02,0.52-4.02,0.92-6.01,1.18c-1.99,0.26-3.95,0.38-5.9,0.38c-7.18,0-12.84-1.78-17-5.36c-4.15-3.56-6.23-8.4-6.23-14.54
	c0-3.85,0.91-7.47,2.71-10.83c1.8-3.37,4.4-6.28,7.81-8.74c2.38-1.74,5.21-3.07,8.48-3.94c3.28-0.88,6.97-1.32,11.06-1.32
	c2.11,0,4.37,0.2,6.77,0.59C484.7,801.14,487.25,801.72,489.92,802.52"/>
<polygon class="st0" points="418.56,801.03 428.22,801.03 419.51,837.45 439.53,837.45 437.98,844.01 408.24,844.01 "/>
<path class="st0" d="M367.86,801.03h9.65l-5.93,24.62c-0.23,0.85-0.39,1.67-0.5,2.47c-0.11,0.79-0.16,1.59-0.16,2.4
	c0,2.44,0.78,4.4,2.34,5.89c1.56,1.48,3.62,2.22,6.18,2.22c3.18,0,5.72-1.04,7.62-3.1c1.91-2.07,3.46-5.51,4.63-10.36l5.95-24.13
	h9.34l-6.07,25.83c-1.47,6.21-4.02,10.79-7.65,13.73c-3.63,2.94-8.54,4.41-14.74,4.41c-5.33,0-9.54-1.24-12.6-3.73
	c-3.07-2.49-4.6-5.89-4.6-10.21c0-1.04,0.07-2.14,0.23-3.28c0.15-1.14,0.36-2.31,0.66-3.53L367.86,801.03z"/>
<polygon class="st0" points="303.73,801.03 318.51,801.03 322.55,834.35 342.37,801.03 357.62,801.03 347.23,844.01 338.32,844.01 
	347.23,806.96 324.64,844.01 315.98,844.01 310.91,807.02 302.34,844.01 293.49,844.01 "/>
<path class="st0" d="M280.65,817.87c0,2.65-0.43,5.25-1.28,7.8c-0.88,2.57-2.07,4.76-3.59,6.57c-1.7,2.06-3.48,3.58-5.37,4.55
	c-1.87,0.99-3.91,1.47-6.14,1.47c-3.31,0-5.91-1.02-7.82-3.05c-1.89-2.04-2.84-4.85-2.84-8.41c0-2.77,0.48-5.48,1.43-8.14
	c0.95-2.66,2.29-4.98,4.02-6.98c1.43-1.68,3.09-2.98,4.98-3.89c1.89-0.92,3.86-1.38,5.88-1.38c3.37,0,5.99,1.01,7.89,3.03
	C279.7,811.45,280.65,814.27,280.65,817.87 M290.63,818.11c0-5.69-1.78-10.1-5.32-13.27c-3.56-3.17-8.54-4.76-14.96-4.76
	c-3.57,0-6.89,0.59-9.98,1.73c-3.09,1.15-5.8,2.82-8.14,5.01c-2.73,2.57-4.85,5.52-6.34,8.88c-1.49,3.35-2.24,6.84-2.24,10.44
	c0,5.74,1.78,10.28,5.35,13.66c3.57,3.38,8.39,5.06,14.47,5.06c3.68,0,7.07-0.54,10.19-1.65c3.11-1.1,5.84-2.7,8.18-4.8
	c2.84-2.56,5.01-5.57,6.53-9.07C289.87,825.88,290.63,822.13,290.63,818.11"/>
<path class="st0" d="M243.34,802.52l-2.41,6.81c-1.95-0.91-3.85-1.58-5.75-2.02c-1.91-0.44-3.86-0.65-5.89-0.65
	c-3.32,0-6.24,0.47-8.77,1.4c-2.53,0.93-4.74,2.37-6.65,4.29c-1.54,1.59-2.77,3.5-3.65,5.71c-0.9,2.22-1.36,4.43-1.36,6.64
	c0,4.07,1.4,7.3,4.19,9.7c2.8,2.4,6.56,3.6,11.27,3.6c1.69,0,3.41-0.18,5.17-0.52c1.75-0.36,3.57-0.9,5.46-1.63l-0.92,7.48
	c-2.02,0.52-4.02,0.92-6,1.18c-1.99,0.26-3.95,0.38-5.91,0.38c-7.17,0-12.83-1.78-16.99-5.36c-4.15-3.56-6.23-8.4-6.23-14.54
	c0-3.85,0.91-7.47,2.71-10.83c1.8-3.37,4.41-6.28,7.82-8.74c2.38-1.74,5.21-3.07,8.49-3.94c3.27-0.88,6.96-1.32,11.05-1.32
	c2.1,0,4.37,0.2,6.77,0.59C238.13,801.14,240.67,801.72,243.34,802.52"/>
<path class="st0" d="M179.71,827.52h-16.3l13.03-19.99L179.71,827.52z M191.89,844.01l-8.37-42.97h-11.77l-29.15,42.97h10.18
	l6.71-10.17h21.1l1.85,10.17H191.89z"/>
<polygon class="st0" points="122.35,801.03 112.04,844.01 141.79,844.01 143.31,837.45 123.3,837.45 132.01,801.03 "/>
<polygon class="st0" points="79.8,801.03 115.58,801.03 114.04,807.41 100.87,807.41 92.15,844.01 82.45,844.01 91.17,807.41 
	78.27,807.41 "/>
<path class="st0" d="M59.64,827.52h-16.3l13.04-19.99L59.64,827.52z M71.83,844.01l-8.38-42.97H51.67l-29.14,42.97h10.19l6.7-10.17
	h21.11l1.84,10.17H71.83z"/>
<polygon class="st0" points="917.91,730.28 947.9,730.28 946.37,736.45 926.01,736.45 923.28,747.66 942.52,747.66 941.13,753.81 
	921.83,753.81 918.69,767 939.93,767 938.41,773.26 907.59,773.26 "/>
<path class="st0" d="M894.69,748.67c0,2.76-0.67,5.49-2.03,8.2c-1.36,2.7-3.11,4.83-5.29,6.41c-1.62,1.17-3.52,2.04-5.69,2.58
	c-2.19,0.55-4.76,0.84-7.76,0.84h-5.59l7.13-30.03h5.51c4.44,0,7.85,1.02,10.2,3.06C893.51,741.78,894.69,744.76,894.69,748.67
	 M904.58,748.98c0-6.19-1.99-10.87-6-13.99c-4-3.14-9.95-4.71-17.82-4.71h-13.55l-10.32,42.97h16.69c4.3,0,7.95-0.31,10.93-0.95
	c2.97-0.64,5.75-1.66,8.37-3.07c3.59-1.94,6.44-4.72,8.54-8.37C903.53,757.24,904.58,753.28,904.58,748.98"/>
<path class="st0" d="M835.46,731.45l-2.46,6.57c-1.79-0.79-3.57-1.37-5.37-1.74c-1.77-0.37-3.62-0.56-5.52-0.56
	c-2.64,0-4.74,0.46-6.34,1.36c-1.59,0.91-2.39,2.1-2.39,3.59c0,0.97,0.36,1.89,1.04,2.75c0.7,0.85,1.77,1.69,3.23,2.52
	c0.25,0.14,0.62,0.34,1.12,0.6c4.69,2.64,7.62,4.59,8.78,5.83c1,1.12,1.76,2.27,2.25,3.48c0.5,1.21,0.75,2.47,0.75,3.81
	c0,4.33-1.9,7.82-5.71,10.42c-3.79,2.61-8.93,3.92-15.39,3.92c-2.45,0-4.8-0.2-7.04-0.6c-2.22-0.38-4.36-0.98-6.36-1.78l2.24-6.89
	c1.86,0.91,3.78,1.6,5.79,2.07c1.99,0.46,4.03,0.68,6.12,0.68c3.02,0,5.43-0.54,7.25-1.65c1.81-1.09,2.72-2.53,2.72-4.3
	c0-2.25-2.49-4.78-7.48-7.62c-1.16-0.67-2.05-1.18-2.7-1.55c-2.11-1.27-3.74-2.78-4.89-4.53c-1.15-1.76-1.72-3.62-1.72-5.57
	c0-3.9,1.75-7.01,5.25-9.34c3.5-2.33,8.22-3.49,14.2-3.49c2.25,0,4.41,0.17,6.52,0.5C831.44,730.3,833.47,730.79,835.46,731.45"/>
<path class="st0" d="M783.92,747.11c0,2.65-0.43,5.25-1.29,7.81c-0.86,2.56-2.05,4.75-3.58,6.56c-1.7,2.05-3.47,3.57-5.37,4.56
	c-1.86,0.98-3.91,1.46-6.13,1.46c-3.32,0-5.93-1.02-7.81-3.05c-1.89-2.03-2.85-4.84-2.85-8.41c0-2.76,0.47-5.47,1.43-8.14
	c0.95-2.66,2.29-5,4.01-6.99c1.44-1.67,3.09-2.98,5-3.89c1.89-0.92,3.85-1.37,5.87-1.37c3.36,0,5.99,1,7.89,3.02
	C782.97,740.69,783.92,743.52,783.92,747.11 M793.88,747.37c0-5.69-1.77-10.11-5.32-13.28c-3.55-3.17-8.54-4.76-14.96-4.76
	c-3.57,0-6.89,0.58-9.99,1.73c-3.07,1.14-5.79,2.82-8.14,5.01c-2.73,2.57-4.85,5.52-6.34,8.88c-1.48,3.36-2.24,6.84-2.24,10.46
	c0,5.73,1.79,10.27,5.35,13.65c3.57,3.38,8.39,5.07,14.47,5.07c3.68,0,7.08-0.54,10.2-1.65c3.11-1.09,5.84-2.7,8.18-4.79
	c2.83-2.57,5-5.59,6.52-9.08C793.13,755.13,793.88,751.38,793.88,747.37"/>
<polygon class="st0" points="702.76,730.28 714.61,730.28 727.23,763.91 734.96,730.28 743.74,730.28 733.49,773.26 721.65,773.26 
	709.19,739.39 701.37,773.26 692.51,773.26 "/>
<path class="st0" d="M675.79,756.77h-16.3l13.04-19.99L675.79,756.77z M687.98,773.25l-8.37-42.97h-11.77l-29.14,42.97h10.18
	l6.7-10.17h21.11l1.84,10.17H687.98z"/>
<path class="st0" d="M631.17,741.16c0,2.11-1.04,3.8-3.12,5.07c-2.08,1.25-4.89,1.89-8.46,1.89h-4.58l2.86-11.97h5.99
	c2.34,0,4.14,0.43,5.4,1.3C630.53,738.33,631.17,739.57,631.17,741.16 M613.67,753.75h6.2c2.63,0,4.65,0.47,6.05,1.42
	c1.41,0.95,2.12,2.31,2.12,4.08c0,2.41-0.99,4.3-2.97,5.7c-1.97,1.4-4.66,2.11-8.06,2.11h-6.55L613.67,753.75z M640.57,739.81
	c0-3.21-1.31-5.59-3.93-7.18c-2.62-1.56-6.61-2.34-11.97-2.34h-14.71l-10.26,42.97h16.61c6.71,0,11.88-1.19,15.56-3.55
	c3.65-2.38,5.49-5.72,5.49-10.04c0-2.4-0.74-4.32-2.19-5.77c-1.46-1.47-3.73-2.49-6.8-3.11c3.73-0.52,6.67-1.75,8.89-3.75
	C639.47,745.06,640.57,742.64,640.57,739.81"/>
<path class="st0" d="M587.72,741.59c0,2.4-1.07,4.21-3.25,5.45c-2.16,1.25-5.3,1.87-9.44,1.87c-0.65,0-1.71-0.05-3.16-0.13h-0.18
	l2.86-12.38h5.42c2.5,0,4.41,0.45,5.75,1.36C587.05,738.67,587.72,739.94,587.72,741.59 M597.57,740.62c0-3.41-1.31-5.98-3.95-7.73
	c-2.64-1.74-6.51-2.61-11.61-2.61h-15.35l-10.25,42.97h9.5l4.32-18.21h1.73c2.82,0,4.76,0.29,5.83,0.84
	c1.08,0.55,1.81,1.57,2.17,3.06l3.65,14.3H593l-3.67-14.88c-0.47-1.85-1.09-3.26-1.89-4.22c-0.77-0.96-1.87-1.73-3.29-2.35
	c4.28-0.35,7.57-1.51,9.92-3.47C596.39,746.37,597.57,743.8,597.57,740.62"/>
<path class="st0" d="M516.68,730.28h9.66l-5.93,24.62c-0.23,0.85-0.4,1.67-0.5,2.47c-0.11,0.79-0.15,1.6-0.15,2.4
	c0,2.44,0.77,4.4,2.33,5.88c1.56,1.49,3.62,2.23,6.18,2.23c3.17,0,5.72-1.04,7.62-3.1c1.9-2.08,3.45-5.52,4.62-10.37l5.96-24.13
	h9.33l-6.06,25.83c-1.48,6.22-4.02,10.8-7.67,13.74c-3.62,2.94-8.54,4.41-14.73,4.41c-5.33,0-9.53-1.25-12.59-3.74
	c-3.07-2.48-4.6-5.89-4.6-10.2c0-1.04,0.07-2.14,0.23-3.28c0.15-1.14,0.37-2.31,0.66-3.52L516.68,730.28z"/>
<path class="st0" d="M494.93,741.16c0,2.11-1.03,3.8-3.11,5.07c-2.08,1.25-4.9,1.89-8.46,1.89h-4.59l2.86-11.97h6
	c2.33,0,4.13,0.43,5.4,1.3C494.3,738.33,494.93,739.57,494.93,741.16 M477.44,753.75h6.21c2.62,0,4.64,0.47,6.06,1.42
	c1.4,0.95,2.11,2.31,2.11,4.08c0,2.41-0.98,4.3-2.96,5.7c-1.97,1.4-4.66,2.11-8.06,2.11h-6.55L477.44,753.75z M504.34,739.81
	c0-3.21-1.32-5.59-3.93-7.18c-2.63-1.56-6.6-2.34-11.96-2.34h-14.72l-10.25,42.97h16.61c6.7,0,11.88-1.19,15.55-3.55
	c3.66-2.38,5.5-5.72,5.5-10.04c0-2.4-0.73-4.32-2.19-5.77c-1.47-1.47-3.74-2.49-6.81-3.11c3.74-0.52,6.68-1.75,8.9-3.75
	C503.24,745.06,504.34,742.64,504.34,739.81"/>
<path class="st0" d="M423.61,730.28h9.66l-5.93,24.62c-0.23,0.85-0.4,1.67-0.5,2.47c-0.11,0.79-0.15,1.6-0.15,2.4
	c0,2.44,0.78,4.4,2.34,5.88c1.56,1.49,3.62,2.23,6.19,2.23c3.17,0,5.71-1.04,7.62-3.1c1.9-2.08,3.45-5.52,4.62-10.37l5.96-24.13
	h9.33l-6.06,25.83c-1.48,6.22-4.02,10.8-7.67,13.74c-3.62,2.94-8.53,4.41-14.73,4.41c-5.33,0-9.54-1.25-12.6-3.74
	c-3.07-2.48-4.6-5.89-4.6-10.2c0-1.04,0.07-2.14,0.23-3.28c0.15-1.14,0.37-2.31,0.66-3.52L423.61,730.28z"/>
<path class="st0" d="M412.82,731.45l-2.44,6.57c-1.79-0.79-3.58-1.37-5.37-1.74c-1.78-0.37-3.62-0.56-5.53-0.56
	c-2.63,0-4.74,0.46-6.33,1.36c-1.59,0.91-2.38,2.1-2.38,3.59c0,0.97,0.35,1.89,1.03,2.75c0.7,0.85,1.78,1.69,3.22,2.52
	c0.26,0.14,0.62,0.34,1.13,0.6c4.69,2.64,7.62,4.59,8.78,5.83c1,1.12,1.76,2.27,2.26,3.48c0.5,1.21,0.74,2.47,0.74,3.81
	c0,4.33-1.9,7.82-5.71,10.42c-3.79,2.61-8.93,3.92-15.4,3.92c-2.45,0-4.79-0.2-7.02-0.6c-2.23-0.38-4.37-0.98-6.37-1.78l2.24-6.89
	c1.85,0.91,3.78,1.6,5.79,2.07c1.99,0.46,4.03,0.68,6.12,0.68c3.02,0,5.43-0.54,7.25-1.65c1.81-1.09,2.72-2.53,2.72-4.3
	c0-2.25-2.5-4.78-7.48-7.62c-1.16-0.67-2.06-1.18-2.7-1.55c-2.1-1.27-3.74-2.78-4.89-4.53c-1.15-1.76-1.72-3.62-1.72-5.57
	c0-3.9,1.75-7.01,5.24-9.34c3.51-2.33,8.23-3.49,14.21-3.49c2.23,0,4.41,0.17,6.51,0.5C408.82,730.3,410.85,730.79,412.82,731.45"/>
<polygon class="st0" points="312.58,730.28 323.02,730.28 330.69,749.21 347.1,730.28 358.23,730.28 334.25,756.24 330.28,773.26 
	320.63,773.26 324.62,756.11 "/>
<path class="st0" d="M945.95,660.71l-2.45,6.57c-1.79-0.8-3.57-1.38-5.36-1.75c-1.79-0.38-3.63-0.55-5.53-0.55
	c-2.62,0-4.74,0.45-6.33,1.36c-1.59,0.91-2.39,2.1-2.39,3.59c0,0.97,0.36,1.89,1.03,2.74c0.71,0.85,1.77,1.7,3.23,2.52
	c0.26,0.15,0.62,0.34,1.12,0.62c4.69,2.64,7.62,4.57,8.79,5.83c0.99,1.12,1.75,2.26,2.26,3.47c0.49,1.21,0.74,2.48,0.74,3.82
	c0,4.33-1.89,7.81-5.71,10.42c-3.8,2.62-8.94,3.92-15.4,3.92c-2.45,0-4.79-0.2-7.02-0.59c-2.24-0.38-4.38-0.98-6.38-1.78l2.24-6.89
	c1.86,0.91,3.78,1.6,5.79,2.07c1.99,0.46,4.03,0.69,6.11,0.69c3.02,0,5.44-0.55,7.25-1.65c1.81-1.1,2.72-2.54,2.72-4.31
	c0-2.24-2.5-4.78-7.48-7.62c-1.16-0.67-2.06-1.18-2.7-1.54c-2.11-1.28-3.74-2.79-4.88-4.53c-1.15-1.76-1.72-3.62-1.72-5.57
	c0-3.89,1.74-7,5.23-9.34c3.51-2.33,8.23-3.49,14.21-3.49c2.23,0,4.4,0.17,6.51,0.5C941.94,659.55,943.98,660.04,945.95,660.71"/>
<path class="st0" d="M894.41,676.37c0,2.64-0.43,5.24-1.28,7.81c-0.88,2.56-2.06,4.75-3.58,6.57c-1.7,2.05-3.48,3.57-5.37,4.55
	c-1.87,0.98-3.91,1.47-6.15,1.47c-3.31,0-5.91-1.03-7.8-3.05c-1.9-2.04-2.86-4.85-2.86-8.4c0-2.76,0.48-5.48,1.43-8.14
	c0.95-2.66,2.28-5,4.02-6.99c1.43-1.67,3.09-2.98,4.98-3.89c1.9-0.92,3.86-1.38,5.88-1.38c3.36,0,5.99,1.02,7.9,3.03
	C893.46,669.94,894.41,672.76,894.41,676.37 M904.38,676.61c0-5.69-1.78-10.11-5.32-13.28c-3.55-3.17-8.55-4.75-14.97-4.75
	c-3.57,0-6.89,0.58-9.98,1.71c-3.08,1.15-5.8,2.84-8.13,5.03c-2.74,2.57-4.86,5.52-6.35,8.88c-1.48,3.36-2.23,6.85-2.23,10.45
	c0,5.73,1.78,10.28,5.35,13.66c3.57,3.37,8.38,5.06,14.47,5.06c3.69,0,7.08-0.55,10.2-1.65c3.11-1.1,5.85-2.69,8.17-4.79
	c2.84-2.56,5.01-5.59,6.52-9.08C903.63,684.37,904.38,680.63,904.38,676.61"/>
<polygon class="st0" points="813.26,659.54 825.1,659.54 837.73,693.16 845.45,659.54 854.25,659.54 843.99,702.51 832.15,702.51 
	819.68,668.63 811.87,702.51 803,702.51 "/>
<path class="st0" d="M786.29,686.01h-16.3l13.05-19.98L786.29,686.01z M798.48,702.51l-8.38-42.98h-11.77l-29.14,42.98h10.17
	l6.71-10.17h21.1l1.85,10.17H798.48z"/>
<path class="st0" d="M741.67,670.41c0,2.11-1.04,3.81-3.11,5.07c-2.08,1.26-4.89,1.89-8.46,1.89h-4.6l2.86-11.98h6
	c2.34,0,4.14,0.43,5.41,1.31C741.02,667.58,741.67,668.82,741.67,670.41 M724.16,682.99h6.2c2.63,0,4.66,0.47,6.06,1.42
	c1.41,0.95,2.11,2.31,2.11,4.09c0,2.4-0.98,4.3-2.97,5.69c-1.97,1.4-4.66,2.1-8.06,2.1h-6.55L724.16,682.99z M751.06,669.06
	c0-3.22-1.3-5.59-3.92-7.18c-2.63-1.58-6.61-2.35-11.98-2.35h-14.7l-10.25,42.98h16.61c6.7,0,11.88-1.2,15.55-3.56
	c3.66-2.37,5.49-5.71,5.49-10.03c0-2.4-0.73-4.33-2.19-5.77c-1.47-1.46-3.74-2.5-6.8-3.11c3.73-0.52,6.68-1.76,8.89-3.74
	C749.97,674.31,751.06,671.89,751.06,669.06"/>
<path class="st0" d="M698.21,670.84c0,2.4-1.08,4.22-3.24,5.46c-2.17,1.24-5.32,1.86-9.45,1.86c-0.65,0-1.71-0.05-3.16-0.13h-0.18
	l2.86-12.38h5.42c2.5,0,4.42,0.45,5.75,1.36C697.55,667.92,698.21,669.18,698.21,670.84 M708.07,669.88c0-3.42-1.32-5.99-3.96-7.74
	c-2.63-1.74-6.5-2.61-11.61-2.61h-15.35l-10.24,42.98h9.49l4.32-18.22h1.74c2.81,0,4.76,0.28,5.83,0.83
	c1.09,0.55,1.81,1.58,2.16,3.07l3.64,14.32h9.39l-3.67-14.89c-0.46-1.84-1.1-3.26-1.89-4.23c-0.78-0.95-1.88-1.73-3.29-2.34
	c4.27-0.36,7.57-1.52,9.9-3.47C706.89,675.62,708.07,673.06,708.07,669.88"/>
<path class="st0" d="M627.17,659.54h9.65l-5.93,24.61c-0.23,0.84-0.39,1.67-0.51,2.46c-0.1,0.8-0.15,1.6-0.15,2.41
	c0,2.43,0.77,4.4,2.33,5.89c1.56,1.47,3.62,2.23,6.19,2.23c3.17,0,5.72-1.04,7.62-3.11c1.91-2.08,3.46-5.51,4.62-10.36l5.96-24.13
	h9.33l-6.06,25.82c-1.48,6.21-4.02,10.78-7.66,13.73c-3.63,2.94-8.54,4.42-14.74,4.42c-5.33,0-9.53-1.25-12.6-3.74
	c-3.06-2.49-4.59-5.9-4.59-10.21c0-1.04,0.07-2.13,0.23-3.27c0.15-1.14,0.37-2.32,0.66-3.53L627.17,659.54z"/>
<path class="st0" d="M595.76,660.71l-2.45,6.57c-1.78-0.8-3.57-1.38-5.37-1.75c-1.78-0.38-3.62-0.55-5.53-0.55
	c-2.61,0-4.73,0.45-6.33,1.36c-1.59,0.91-2.38,2.1-2.38,3.59c0,0.97,0.35,1.89,1.04,2.74c0.69,0.85,1.77,1.7,3.21,2.52
	c0.27,0.15,0.63,0.34,1.13,0.62c4.7,2.64,7.62,4.57,8.79,5.83c0.99,1.12,1.75,2.26,2.25,3.47c0.5,1.21,0.75,2.48,0.75,3.82
	c0,4.33-1.9,7.81-5.7,10.42c-3.8,2.62-8.94,3.92-15.4,3.92c-2.44,0-4.79-0.2-7.02-0.59c-2.24-0.38-4.38-0.98-6.38-1.78l2.25-6.89
	c1.86,0.91,3.78,1.6,5.78,2.07c2,0.46,4.03,0.69,6.12,0.69c3.02,0,5.44-0.55,7.25-1.65c1.82-1.1,2.72-2.54,2.72-4.31
	c0-2.24-2.5-4.78-7.49-7.62c-1.16-0.67-2.05-1.18-2.69-1.54c-2.11-1.28-3.74-2.79-4.89-4.53c-1.15-1.76-1.72-3.62-1.72-5.57
	c0-3.89,1.74-7,5.23-9.34c3.49-2.33,8.23-3.49,14.2-3.49c2.25,0,4.42,0.17,6.52,0.5C591.76,659.55,593.79,660.04,595.76,660.71"/>
<polygon class="st0" points="528.55,659.54 518.23,702.51 549.03,702.51 550.56,696.25 529.32,696.25 532.46,683.06 551.76,683.06 
	553.15,676.91 533.93,676.91 536.64,665.7 557,665.7 558.53,659.54 "/>
<polygon class="st0" points="486.77,659.54 522.54,659.54 521.02,665.91 507.83,665.91 499.13,702.51 489.42,702.51 498.13,665.91 
	485.23,665.91 "/>
<path class="st0" d="M470.27,670.84c0,2.4-1.08,4.22-3.25,5.46c-2.16,1.24-5.31,1.86-9.45,1.86c-0.64,0-1.71-0.05-3.16-0.13h-0.18
	l2.87-12.38h5.41c2.49,0,4.42,0.45,5.75,1.36C469.6,667.92,470.27,669.18,470.27,670.84 M480.11,669.88c0-3.42-1.31-5.99-3.94-7.74
	c-2.64-1.74-6.51-2.61-11.61-2.61H449.2l-10.24,42.98h9.49l4.32-18.22h1.75c2.81,0,4.75,0.28,5.82,0.83
	c1.09,0.55,1.81,1.58,2.17,3.07l3.65,14.32h9.39l-3.67-14.89c-0.48-1.84-1.11-3.26-1.9-4.23c-0.77-0.95-1.87-1.73-3.29-2.34
	c4.28-0.36,7.58-1.52,9.92-3.47C478.93,675.62,480.11,673.06,480.11,669.88"/>
<path class="st0" d="M425.78,676.37c0,2.64-0.43,5.24-1.28,7.81c-0.88,2.56-2.06,4.75-3.58,6.57c-1.72,2.05-3.49,3.57-5.37,4.55
	c-1.88,0.98-3.93,1.47-6.15,1.47c-3.31,0-5.91-1.03-7.8-3.05c-1.89-2.04-2.85-4.85-2.85-8.4c0-2.76,0.48-5.48,1.43-8.14
	c0.95-2.66,2.28-5,4.02-6.99c1.43-1.67,3.09-2.98,4.99-3.89c1.89-0.92,3.85-1.38,5.88-1.38c3.37,0,5.98,1.02,7.87,3.03
	C424.84,669.94,425.78,672.76,425.78,676.37 M435.76,676.61c0-5.69-1.79-10.11-5.32-13.28c-3.55-3.17-8.54-4.75-14.96-4.75
	c-3.57,0-6.9,0.58-9.99,1.71c-3.08,1.15-5.79,2.84-8.13,5.03c-2.75,2.57-4.86,5.52-6.34,8.88c-1.49,3.36-2.24,6.85-2.24,10.45
	c0,5.73,1.78,10.28,5.34,13.66c3.57,3.37,8.39,5.06,14.47,5.06c3.69,0,7.08-0.55,10.2-1.65c3.12-1.1,5.85-2.69,8.18-4.79
	c2.84-2.56,5.01-5.59,6.52-9.08C435,684.37,435.76,680.63,435.76,676.61"/>
<path class="st0" d="M376.49,671.3c0,2.72-1.05,4.73-3.15,6.06c-2.1,1.32-5.32,1.99-9.68,1.99c-0.54,0-1.07-0.02-1.57-0.04
	c-0.5-0.01-0.95-0.05-1.36-0.09l3.31-13.63h3.8c2.84,0,4.99,0.48,6.45,1.46C375.76,667.99,376.49,669.42,376.49,671.3
	 M386.05,671.42c0-4-1.43-6.97-4.31-8.94c-2.86-1.97-7.21-2.95-13.04-2.95h-12.83l-10.25,42.98h9.57l4.12-16.92
	c1.32,0.07,2.46,0.12,3.42,0.15c0.98,0.04,1.81,0.04,2.49,0.04c6.34,0,11.42-1.31,15.18-3.93
	C384.18,679.23,386.05,675.75,386.05,671.42"/>
<path class="st0" d="M345,660.71c-1.98-0.67-4-1.16-6.11-1.5c-2.1-0.33-4.28-0.5-6.52-0.5c-5.97,0-10.71,1.16-14.21,3.49
	c-3.49,2.34-5.24,5.45-5.24,9.34c0,1.95,0.58,3.8,1.73,5.57c1.14,1.74,2.77,3.25,4.88,4.53c0.64,0.36,1.53,0.88,2.7,1.54
	c4.98,2.84,7.48,5.38,7.48,7.62c0,1.78-0.91,3.22-2.72,4.31c-1.81,1.09-4.23,1.65-7.26,1.65c-2.08,0-4.13-0.23-6.11-0.69
	c-2.01-0.47-3.93-1.16-5.8-2.07l-2.24,6.89c2.01,0.8,4.15,1.39,6.38,1.78c2.23,0.39,4.58,0.59,7.03,0.59c6.46,0,11.6-1.29,15.4-3.92
	c3.8-2.61,5.71-6.09,5.71-10.42c0-1.34-0.24-2.61-0.75-3.82c-0.51-1.21-1.26-2.36-2.25-3.47c-1.17-1.26-4.09-3.19-8.79-5.83
	c-0.5-0.28-0.87-0.47-1.13-0.62c-1.45-0.82-2.52-1.66-3.22-2.52c-0.68-0.85-1.03-1.77-1.03-2.74c0-1.49,0.79-2.68,2.39-3.59
	c1.59-0.91,3.7-1.36,6.34-1.36c1.9,0,3.75,0.18,5.52,0.55c1.8,0.37,3.58,0.95,5.37,1.75L345,660.71z"/>
<polygon class="st0" points="265.01,659.54 276.85,659.54 289.49,693.16 297.21,659.54 305.99,659.54 295.75,702.51 283.9,702.51 
	271.43,668.63 263.61,702.51 254.76,702.51 "/>
<path class="st0" d="M238.03,686.01h-16.3l13.04-19.98L238.03,686.01z M250.23,702.51l-8.38-42.98h-11.77l-29.15,42.98h10.19
	l6.71-10.17h21.1l1.85,10.17H250.23z"/>
<path class="st0" d="M193.34,670.84c0,2.4-1.08,4.22-3.25,5.46c-2.17,1.24-5.31,1.86-9.45,1.86c-0.65,0-1.71-0.05-3.16-0.13h-0.18
	l2.86-12.38h5.43c2.49,0,4.41,0.45,5.75,1.36C192.66,667.92,193.34,669.18,193.34,670.84 M203.18,669.88c0-3.42-1.3-5.99-3.95-7.74
	c-2.64-1.74-6.5-2.61-11.61-2.61h-15.35l-10.24,42.98h9.49l4.33-18.22h1.74c2.82,0,4.76,0.28,5.83,0.83
	c1.09,0.55,1.81,1.58,2.17,3.07l3.64,14.32h9.4l-3.66-14.89c-0.48-1.84-1.11-3.26-1.9-4.23c-0.78-0.95-1.87-1.73-3.29-2.34
	c4.27-0.36,7.57-1.52,9.91-3.47C202,675.62,203.18,673.06,203.18,669.88"/>
<polygon class="st0" points="130.44,659.54 166.22,659.54 164.68,665.91 151.51,665.91 142.78,702.51 133.08,702.51 141.8,665.91 
	128.9,665.91 "/>
<path class="st0" d="M599.4,802.2l-2.46,6.57c-1.79-0.79-3.58-1.38-5.36-1.75c-1.79-0.38-3.63-0.56-5.54-0.56
	c-2.62,0-4.74,0.46-6.33,1.36c-1.59,0.91-2.38,2.11-2.38,3.59c0,0.97,0.36,1.89,1.03,2.75c0.71,0.85,1.77,1.69,3.23,2.52
	c0.26,0.14,0.63,0.34,1.12,0.6c4.71,2.64,7.62,4.59,8.79,5.84c1,1.11,1.76,2.27,2.26,3.47c0.5,1.22,0.74,2.49,0.74,3.82
	c0,4.33-1.9,7.81-5.7,10.42c-3.8,2.61-8.93,3.92-15.4,3.92c-2.46,0-4.8-0.2-7.03-0.59c-2.23-0.39-4.37-0.98-6.38-1.77l2.25-6.9
	c1.86,0.91,3.79,1.6,5.79,2.07c1.99,0.46,4.03,0.69,6.12,0.69c3.02,0,5.44-0.54,7.26-1.65c1.8-1.09,2.71-2.53,2.71-4.3
	c0-2.24-2.5-4.77-7.48-7.61c-1.16-0.68-2.05-1.19-2.69-1.55c-2.11-1.27-3.75-2.79-4.89-4.54c-1.14-1.74-1.72-3.6-1.72-5.55
	c0-3.89,1.76-7,5.24-9.34c3.51-2.32,8.23-3.49,14.21-3.49c2.23,0,4.41,0.16,6.52,0.51C595.39,801.05,597.41,801.55,599.4,802.2
	 M603.2,836.03h9.06l-1.87,7.97h-9.13L603.2,836.03z M650.42,807.54l-13.04,19.99h16.3L650.42,807.54z M645.72,801.03h11.77
	l8.37,42.97h-9.45l-1.85-10.17h-21.1l-6.7,10.17h-10.18L645.72,801.03z M674.75,836.03h9.05l-1.87,7.97h-9.12L674.75,836.03z
	 M731.56,807.41l-7.12,30.04h5.59c2.99,0,5.57-0.28,7.75-0.84c2.17-0.54,4.08-1.42,5.69-2.57c2.18-1.58,3.93-3.71,5.3-6.41
	c1.35-2.7,2.03-5.43,2.03-8.2c0-3.91-1.18-6.88-3.53-8.94c-2.34-2.05-5.75-3.07-10.2-3.07H731.56z M723.32,801.03h13.56
	c7.87,0,13.81,1.56,17.82,4.7c4,3.14,6,7.8,6,13.99c0,4.3-1.06,8.26-3.17,11.89c-2.11,3.65-4.95,6.44-8.54,8.36
	c-2.62,1.42-5.41,2.44-8.38,3.08c-2.98,0.63-6.61,0.95-10.92,0.95h-16.69L723.32,801.03z M774.02,801.03h29.99l-1.53,6.18h-20.36
	l-2.72,11.21h19.24l-1.39,6.14h-19.31l-3.14,13.2h21.25l-1.53,6.25H763.7L774.02,801.03z M870.36,802.52l-2.42,6.81
	c-1.93-0.92-3.85-1.59-5.75-2.02c-1.91-0.44-3.88-0.66-5.89-0.66c-3.32,0-6.25,0.47-8.78,1.4c-2.52,0.93-4.73,2.37-6.64,4.29
	c-1.55,1.59-2.77,3.5-3.67,5.71c-0.9,2.22-1.35,4.43-1.35,6.64c0,4.07,1.39,7.31,4.18,9.7c2.8,2.4,6.56,3.6,11.28,3.6
	c1.68,0,3.4-0.18,5.16-0.52c1.75-0.36,3.58-0.9,5.46-1.63l-0.92,7.48c-2.02,0.51-4.02,0.92-6.01,1.18s-3.96,0.38-5.9,0.38
	c-7.17,0-12.84-1.78-16.98-5.36c-4.15-3.56-6.24-8.4-6.24-14.54c0-3.85,0.91-7.47,2.71-10.83c1.81-3.37,4.4-6.28,7.82-8.74
	c2.37-1.74,5.21-3.08,8.48-3.94c3.28-0.89,6.96-1.32,11.06-1.32c2.1,0,4.37,0.2,6.78,0.59
	C865.14,801.14,867.69,801.73,870.36,802.52 M871.13,836.03l-1.93,7.97h9.11l1.88-7.97H871.13z M893.73,801.03h9.48l4.58,36.18
	l21.56-36.18h10.04l-27.47,42.97h-11.31L893.73,801.03z M929.13,836.03l-1.94,7.97h9.12l1.87-7.97H929.13z"/>
</svg>
