<?xml version="1.0" encoding="utf-8"?>
<!-- Generator: Adobe Illustrator 25.4.1, SVG Export Plug-In . SVG Version: 6.00 Build 0)  -->
<svg version="1.1" id="Capa_1" xmlns="http://www.w3.org/2000/svg" xmlns:xlink="http://www.w3.org/1999/xlink" x="0px" y="0px"
	 viewBox="0 0 1080 1080" style="enable-background:new 0 0 1080 1080;" xml:space="preserve">
<style type="text/css">
	.st0{fill:#3F2B56;}
</style>
<path class="st0" d="M982.58,568.68c-5.99-0.03-11.16-0.8-15.45-2.29c-4.3-1.5-7.77-3.54-10.53-6.14c-2.7-2.58-4.73-5.54-5.99-8.89
	c-1.3-3.34-1.92-6.87-1.92-10.57c0-3.75,0.62-7.32,1.92-10.67c1.26-3.37,3.29-6.37,5.99-8.98c2.75-2.61,6.23-4.65,10.53-6.14
	c4.29-1.5,9.46-2.26,15.45-2.29c5.99,0.04,11.16,0.8,15.45,2.29c4.3,1.49,7.78,3.54,10.53,6.14c2.7,2.61,4.73,5.61,5.99,8.98
	c1.3,3.35,1.92,6.92,1.92,10.67c0,3.7-0.62,7.23-1.92,10.57c-1.26,3.35-3.29,6.31-5.99,8.89c-2.75,2.61-6.22,4.65-10.53,6.14
	C993.73,567.88,988.56,568.65,982.58,568.68 M982.58,592.76c12.5,0,24.1-1.19,34.76-3.51c10.62-2.32,19.89-5.7,27.81-10.16
	c7.92-4.45,14.1-9.9,18.49-16.33c4.39-6.4,6.67-13.76,6.71-21.97c-0.04-8.28-2.32-15.63-6.71-22.09
	c-4.4-6.46-10.57-11.91-18.49-16.37c-7.91-4.48-17.18-7.86-27.81-10.19c-10.67-2.33-22.26-3.5-34.76-3.5
	c-12.5,0-24.09,1.17-34.71,3.5c-10.67,2.33-19.94,5.7-27.85,10.19c-7.92,4.46-14.1,9.91-18.49,16.37
	c-4.4,6.46-6.67,13.81-6.72,22.09c0.05,8.21,2.32,15.57,6.72,21.97c4.39,6.43,10.57,11.88,18.49,16.33
	c7.91,4.46,17.19,7.83,27.85,10.16C958.48,591.58,970.07,592.76,982.58,592.76 M889.01,489.78c-2.66-0.29-5.46-0.57-8.49-0.8
	c-3.04-0.22-6.08-0.35-9.17-0.35c-7.49,0.03-14.06,0.85-19.6,2.55c-5.61,1.68-10.44,4.05-14.49,7.13
	c-4.05,3.08-7.57,6.72-10.52,10.96h-0.58v-18.34h-47.5v99.53h52.14v-42.02c0-6.53,1.5-12.1,4.44-16.75
	c2.95-4.61,7.2-8.18,12.85-10.67c5.65-2.45,12.56-3.69,20.66-3.73c3.04-0.03,6.03,0.03,8.93,0.13c2.95,0.12,5.84,0.48,8.74,1.02
	L889.01,489.78z M646.54,531.24c0.39-3.85,1.65-7.35,3.86-10.51c2.17-3.12,5.31-5.6,9.47-7.48c4.15-1.84,9.36-2.8,15.64-2.84
	c6.91,0.04,12.5,0.99,16.81,2.84c4.24,1.88,7.33,4.36,9.31,7.48c1.93,3.16,2.9,6.66,2.85,10.51H646.54z M751.41,550.73v-6.3
	c0-5.95-0.83-11.69-2.56-17.16c-1.73-5.51-4.44-10.61-8.16-15.29c-3.72-4.65-8.55-8.76-14.48-12.22c-5.94-3.5-13.13-6.21-21.58-8.15
	c-8.45-1.94-18.25-2.93-29.4-2.96c-11.78,0-22.59,1.17-32.45,3.5c-9.8,2.33-18.34,5.7-25.54,10.16c-7.25,4.46-12.84,9.9-16.8,16.34
	c-3.97,6.4-5.99,13.72-6.04,21.97c0.04,8.21,2.32,15.57,6.71,22c4.39,6.47,10.57,11.91,18.49,16.4c7.92,4.49,17.19,7.9,27.86,10.21
	c10.62,2.36,22.2,3.51,34.71,3.54c9.75,0,19.31-0.49,28.63-1.5c9.37-1.02,18.25-2.61,26.69-4.81v-24.26
	c-7.87,2.74-15.74,4.71-23.56,5.89c-7.87,1.21-15.35,1.78-22.5,1.75c-8.5,0.03-15.88-0.6-22.16-1.91
	c-6.27-1.27-11.29-3.31-15.06-6.11c-3.71-2.83-6.13-6.53-7.1-11.08H751.41z M563.12,449.48h-52.14v25.22h52.14V449.48z
	 M481.43,631.16c4.59,0.66,9.27,1.11,14,1.36c4.73,0.26,9.8,0.35,15.26,0.35c10.04-0.03,18.44-1.02,25.2-2.99
	c6.76-1.96,12.11-4.77,16.13-8.41c4-3.66,6.86-8.02,8.59-13.09c1.69-5.09,2.57-10.73,2.51-16.97V490.93h-52.14v99.53
	c0.05,2.42-0.09,4.78-0.43,7.07c-0.34,2.32-1.06,4.39-2.17,6.27c-1.11,1.84-2.85,3.35-5.22,4.47c-2.37,1.08-5.55,1.65-9.56,1.68
	c-1.73,0-3.52,0-5.41-0.07c-1.84-0.06-3.72-0.22-5.6-0.5L481.43,631.16z M369.32,558.94c0.05-3.18,1.5-5.73,4.25-7.67
	c2.79-1.95,6.57-3.35,11.3-4.2c4.73-0.9,10.09-1.34,16.03-1.3c3.91,0,7.73,0.09,11.44,0.22c3.72,0.12,7.24,0.26,10.57,0.35
	c0,2.94-0.77,5.8-2.27,8.6c-1.45,2.76-3.62,5.28-6.42,7.51c-2.8,2.26-6.18,4.05-10.14,5.35c-3.96,1.33-8.4,2.01-13.33,2.04
	c-4.1,0-7.77-0.45-10.96-1.31c-3.24-0.86-5.74-2.06-7.63-3.69C370.28,563.21,369.37,561.23,369.32,558.94 M474.47,590.46
	c-1.11-3.92-1.88-7.83-2.31-11.75c-0.39-3.92-0.59-7.83-0.59-11.74V529.9c-0.04-7.57-2.02-13.97-5.79-19.25
	c-3.81-5.3-9.03-9.52-15.69-12.78c-6.61-3.21-14.24-5.57-22.88-7.07c-8.59-1.46-17.77-2.19-27.47-2.16
	c-11.11-0.03-21.63,0.54-31.53,1.65c-9.94,1.15-19.5,2.93-28.73,5.42l0.87,23.31c7.29-2.64,15.02-4.55,23.18-5.73
	c8.16-1.17,16.46-1.75,24.91-1.72c6.38-0.03,12.12,0.44,17.24,1.43c5.16,1.02,9.27,2.77,12.36,5.28c3.09,2.48,4.73,5.99,4.88,10.48
	c-3.38-0.39-7.24-0.7-11.49-0.96c-4.29-0.25-8.55-0.38-12.84-0.38c-4.68-0.03-9.85,0.13-15.45,0.42c-5.55,0.29-11.3,0.83-17.09,1.66
	c-5.84,0.79-11.45,2-16.85,3.52c-5.41,1.56-10.23,3.6-14.53,6.08c-4.25,2.52-7.68,5.58-10.14,9.27c-2.51,3.67-3.82,8.03-3.86,13.06
	c0.04,5.38,1.59,10.06,4.63,14.01c3.04,3.95,7.14,7.19,12.41,9.74c5.26,2.58,11.3,4.46,18.01,5.73c6.76,1.24,13.9,1.85,21.43,1.85
	c7.1,0,13.57-0.64,19.26-1.92c5.74-1.27,10.96-3.22,15.64-5.89c4.68-2.64,8.98-6.01,12.89-10.16h0.58c0.05,2.57,0.19,5.16,0.48,7.77
	c0.29,2.58,0.53,5.22,0.68,7.89H474.47z M289.37,449.48h-52.14v25.22h52.14V449.48z M237.22,590.46h52.14v-99.53h-52.14V590.46z
	 M81.67,590.46h66.63l68.94-133.34h-55.33l-45.19,104.69h-0.58l-44.9-104.69H13.88L81.67,590.46z"/>
</svg>
