<?xml version="1.0" encoding="utf-8"?>
<!-- Generator: Adobe Illustrator 25.4.1, SVG Export Plug-In . SVG Version: 6.00 Build 0)  -->
<svg version="1.1" id="Capa_1" xmlns="http://www.w3.org/2000/svg" xmlns:xlink="http://www.w3.org/1999/xlink" x="0px" y="0px"
	 viewBox="0 0 1080 1080" style="enable-background:new 0 0 1080 1080;" xml:space="preserve">
<style type="text/css">
	.st0{fill:#245583;}
</style>
<g>
	<path class="st0" d="M10.35,615.2l60.45-222.84h89.81c72.64,0,98.9,27.59,84.33,81.22c-14.08,49.65-57.88,81.24-125.32,81.24h-27.9
		L75.31,615.2H10.35z M130.83,506.69c2.46,0,4.9,0,7.43-0.32c25.43-2.13,39.55-13.48,45.18-34.32c4.95-20.54-5.14-31.88-33.95-31.88
		h-26.66l-18.05,66.52H130.83z"/>
	<path class="st0" d="M195.95,537.66c0.58-2.15,0.79-4.01,1.37-6.13c7.22-26.65,27.14-51.5,54.15-67.44
		c10.54-6.12,21.51-10.43,32.82-12.57c7.17-1.54,14.08-2.12,20.52-2.12c36.47,0,60.76,22.36,61.9,62.2
		c0.07,4.31,0.05,8.9-0.57,13.53l-114.17,30.92l-0.11,1.57l-0.04,1.2c0.74,5.18,6.14,11.35,13.91,13.16
		c1.97,0.63,4.12,0.63,6.26,0.63c5.91-0.3,12.37-1.54,19.65-5.84c5.77-3.04,10.61-7.36,16.59-14.7c0.54-0.93,1.1-1.86,1.67-2.74
		l43.8,15.9c-1.42,1.86-2.92,4.01-4.26,5.54c-24.27,30.64-55.81,47.51-88.91,47.51c-5.83,0-11.78-0.63-17.68-1.54
		c-10.83-1.83-19.95-5.51-27.58-11.32C195.02,589.76,188.64,564.63,195.95,537.66 M316.95,506.37l0.02-1.2l-0.57-2.47
		c-1.78-9.19-9.31-15.35-20.36-15.35c-2.76,0-5.6,0.33-8.93,1.27c-14.16,3.65-26.34,14.7-32.03,30.02
		c-0.73,1.52-1.23,3.37-1.65,4.89L316.95,506.37z"/>
	<path class="st0" d="M346.08,536.13c1.32-4.89,2.95-9.82,4.81-14.41c17.88-41.05,58.69-67.15,92.71-67.15
		c11.96,0,23.09,3.09,32.28,9.84l2.34,1.5l1.94,1.84l3.52-12.87h51.8L491.4,617.36c-11.72,43.22-49.32,71.11-110.14,72.64
		c-9.8,0-19.86-0.31-29.53-1.85l12.89-47.5c8.13,2.78,16.78,3.7,25.66,3.7c27.14-0.65,42.55-12.26,47.72-31.27l1.66-6.17l-2.56,1.55
		l-3.57,1.85c-11.77,6.15-24.34,9.51-36.29,9.51c-15.65,0-30.17-5.22-41.06-15.93c-11.77-11.98-17.36-29.75-14.15-51.81
		C343.15,546.86,344.56,541.62,346.08,536.13 M399.61,541.03c-3.71,20.53,4.66,32.49,21.23,32.49c2.15,0,4.39-0.31,6.62-0.62
		c14.76-2.46,26.56-13.19,33.24-32.19c1.08-3.98,2.02-7.39,3-11.03c3.9-21.14-4.28-32.79-21.44-32.79c-17.49,0-32,11.65-39.55,32.79
		c-0.81,1.84-1.31,3.63-1.82,5.51C400.39,537.02,399.8,539.15,399.61,541.03"/>
	<path class="st0" d="M544.37,617.65c-33.74,0-50.35-22.36-42.79-50.26c7.36-24.84,32.39-45.99,66.45-50.56
		c6.5-0.33,13.25-0.33,19.68-0.33c13.15,1.23,20.61,4.28,26.56,9.52l2-7.36c3.56-13.19-3.31-21.76-26.38-24.83
		c-3.83-0.64-8.34-0.93-13.85-0.93c-7.05,0-15.51,0.63-25.64,1.87c-2.24,0.28-4.37,0.28-6.68,0.9l11.13-41.09l6.37-0.92l6.01-0.58
		c4.09-0.34,8.47-0.66,12.74-0.66c3.38,0,6.82-0.28,10.19-0.28c69.29,0,89.53,24.83,77.23,70.2l-25.21,92.86h-53.65l3.42-12.54
		c-1.87,1.22-4.05,2.44-5.92,3.66c-10.55,6.12-20.95,9.48-31.1,10.73C551.07,617.65,547.71,617.65,544.37,617.65 M571.16,585.48
		c2.74,0,5.51,0,8.06-0.34c4.13-0.57,7.14-1.52,9.85-2.42c7.58-3.09,13.09-9.82,14.98-16.85c1.18-4.3,0.73-8.26-1.5-11.36
		c-2.47-3.37-7.02-5.8-12.81-7.02c-2.07-0.34-4.11-0.62-6.27-0.62c-10.1,0-18.72,4.56-23.83,11.03c-1.99,2.74-3.65,5.52-4.4,8.27
		C552.5,576.28,557.39,584.25,571.16,585.48"/>
	<path class="st0" d="M793.01,453.65l-11.28,41.7c-4.73-0.6-9.57-0.92-13.47-1.24h-5.22l-9.11-0.3l-6.52,0.3h-3.05h-2.16l-5.67,0.64
		c-4.47,0.6-6.96,1.82-8.3,3.36c-0.74,0.59-1.32,1.53-1.56,2.45c-0.31,1.24,0.18,2.76,1.16,3.67l0.97,0.94l2.11,1.2l5.08,2.76
		l1.35,0.62l5.83,3.35l3.18,1.86l4.55,2.46c2.13,1.22,3.93,2.43,5.76,3.7c12.37,8.57,17.7,18.38,17.74,30.63
		c0.12,5.22-0.69,10.46-2.03,15.34c-7.79,28.8-38.53,50.56-92.19,50.56c-6.74,0-21.52-0.92-21.52-0.92l-8.08-44.76
		c2.34,0.34,5.04,0.64,7.39,0.93c11.72,0.92,22.38,1.23,29.42,1.23c15.09-0.31,19.72-1.53,24.36-3.98c2.29-1.54,3.31-3.06,3.71-4.6
		c0.51-1.83,0.3-3.35-1.29-4.3l-1.28-0.89l-1.82-1.24l-4.23-2.47l-0.75-0.63l-6.01-2.7l-7.41-4.33
		c-24.3-14.44-30.49-26.67-24.08-50.3c9.3-29.71,35.25-47.47,83.94-48.41c9.19,0,20.07,0.62,32.54,2.13l4.09,0.65L793.01,453.65z"/>
	<path class="st0" d="M903.7,453.65l-11.3,41.7c-4.72-0.6-9.55-0.92-13.47-1.24h-5.22l-9.09-0.3l-6.53,0.3h-3.05h-2.15l-5.69,0.64
		c-4.48,0.6-6.95,1.82-8.29,3.36c-0.74,0.59-1.35,1.53-1.55,2.45c-0.34,1.24,0.16,2.76,1.14,3.67l0.98,0.94l2.11,1.2l5.07,2.76
		l1.39,0.62l5.83,3.35l3.15,1.86l4.56,2.46c2.1,1.22,3.92,2.43,5.76,3.7c12.36,8.57,17.7,18.38,17.73,30.63
		c0.11,5.22-0.68,10.46-2.01,15.34c-7.81,28.8-38.53,50.56-92.2,50.56c-6.73,0-21.52-0.92-21.52-0.92l-8.09-44.76
		c2.36,0.34,5.05,0.64,7.43,0.93c11.7,0.92,22.35,1.23,29.39,1.23c15.1-0.31,19.71-1.53,24.4-3.98c2.24-1.54,3.25-3.06,3.69-4.6
		c0.5-1.83,0.27-3.35-1.3-4.3l-1.28-0.89l-1.83-1.24l-4.23-2.47l-0.72-0.63l-6.03-2.7l-7.4-4.33
		c-24.31-14.44-30.48-26.67-24.09-50.3c9.31-29.71,35.27-47.47,83.97-48.41c9.19,0,20.06,0.62,32.53,2.13l4.13,0.65L903.7,453.65z"
		/>
	<path class="st0" d="M872.38,535.2c12.46-45.99,48.08-77.84,95.21-84.31c5.14-0.92,10.14-1.2,15.03-1.2c4.93,0,9.73,0.28,14.4,1.2
		c37.19,5.24,56.36,30.64,52.94,64.67c-0.67,7.08-2,14.13-3.71,20.57c-12.32,45.37-48.58,77.26-95.08,83.68
		c-5.03,0.6-10.04,0.94-14.95,0.94c-4.9,0-9.71-0.34-14.44-0.94C878.16,613.39,859.8,581.5,872.38,535.2 M923.79,542.25
		c-2.38,17.79,4.69,29.13,18.72,31.58c2.39,0.31,4.44,0.63,6.58,0.63c17.79,0,34-12.25,42.15-32.2c1.34-4.89,2.58-9.5,3.81-14.1
		c2.57-19.61-6.98-31.88-24.45-31.88c-2.13,0-4.69,0.31-7.22,0.62c-15.35,2.44-28.5,13.47-35.78,31.26
		c-0.97,2.46-1.85,4.6-2.49,7.04C924.52,537.36,924.06,540.09,923.79,542.25"/>
</g>
</svg>
