<?xml version="1.0" encoding="utf-8"?>
<!-- Generator: Adobe Illustrator 25.4.1, SVG Export Plug-In . SVG Version: 6.00 Build 0)  -->
<svg version="1.1" id="Capa_1" xmlns="http://www.w3.org/2000/svg" xmlns:xlink="http://www.w3.org/1999/xlink" x="0px" y="0px"
	 viewBox="0 0 1080 1080" style="enable-background:new 0 0 1080 1080;" xml:space="preserve">
<style type="text/css">
	.st0{fill-rule:evenodd;clip-rule:evenodd;fill:#00205C;}
	.st1{fill-rule:evenodd;clip-rule:evenodd;fill:#009845;}
	.st2{fill-rule:evenodd;clip-rule:evenodd;fill:#00ADEE;}
	.st3{fill:#769D90;}
	.st4{fill:#116571;}
</style>
<g>
	<path class="st0" d="M228.91,561.98h9.9l2.86,16.11h16.94l-11.93-66.1h-16.94h-0.84v24.1l3.94-7.28l3.94,22.07h-7.88V561.98z
		 M192.76,578.09h13.6l8.59-16.11h13.96v-11.1h-7.99l7.99-14.79v-24.1h-0.72L192.76,578.09z"/>
	<path class="st0" d="M318.4,565.44c-2.62,11.33,10.62,20.76,27.09,11.33l1.43-9.66c-10.14,4.06-9.55-3.1-8.47-7.64l3.7-19.69h8.59
		l1.79-11.1h-8.35l1.91-10.02l-19.21,2.03l-1.55,8h-5.61l-1.79,11.1h5.37L318.4,565.44z"/>
	<path class="st0" d="M379.5,538.84c5.13,0,7.76,6.68,6.09,14.8c-1.43,6.44-5.25,11.93-9.31,13.96v12.05
		c12.29-3.22,23.51-13.49,26.97-25.66c0.48-1.91,0.83-3.82,0.95-5.61v-2.98c-0.72-10.62-8.83-18.14-20.88-18.14
		c-2.39,0-4.65,0.24-7.04,0.72v11.69C377.35,539.19,378.42,538.84,379.5,538.84 M376.27,567.59c-0.95,0.48-2.03,0.72-3.1,0.72
		c-5.13,0-7.76-6.57-6.08-14.68c1.43-6.44,5.25-11.93,9.19-13.96v-11.69c-12.65,2.98-24.46,13.48-28.04,26.01
		c-0.6,1.91-0.84,3.82-0.95,5.73v2.98c0.72,10.5,8.83,18.14,20.88,18.14c2.74,0,5.49-0.36,8.11-1.19V567.59z"/>
	<polygon class="st0" points="402.64,527.5 420.06,527.5 426.27,562.46 445,527.86 458.61,527.86 430.92,579.17 429.25,579.17 
		411.83,579.17 	"/>
	<polygon class="st0" points="451.33,578.09 468.15,578.09 477.1,528.1 460.28,528.1 	"/>
	<polygon class="st0" points="505.38,578.09 522.21,578.09 531.16,528.1 514.33,528.1 	"/>
	<polygon class="st0" points="474.71,507.1 491.78,507.1 472.57,522.13 461.47,522.13 	"/>
	<path class="st0" d="M289.77,578.09h17.3l9.07-50h-17.42l-2.15,10.74c-1.07,5.01-4.65,13.96-11.33,21.48
		c-4.89,5.37-5.49,2.03-4.29-3.82l5.13-28.4h-18.26l-5.73,31.98c-4.77,20.64,11.81,30.55,30.55,1.79L289.77,578.09z"/>
	<path class="st0" d="M509.91,558.05l8.71-29.95h-10.38c-2.39,0-4.77,0.24-7.16,0.83v12.41c0.24-0.12,0.36-0.24,0.6-0.36
		c6.44-3.7,11.1-1.31,6.68,5.85c-2.27,3.82-4.54,7.28-7.28,10.5v12.89C504.07,567,506.93,563.06,509.91,558.05 M501.08,528.93
		c-10.74,2.86-21.6,13.13-26.25,31.14c-0.48,1.91-0.72,3.7-0.72,5.37v1.67c0.48,13.48,12.89,18.61,26.97,3.1v-12.89
		c-0.72,0.84-1.43,1.79-2.27,2.63c-5.37,5.73-7.28,4.89-6.44-3.34c0.72-6.92,4.06-12.41,8.71-15.27V528.93z"/>
	<path class="st0" d="M525.9,577.14c10.02,3.94,19.81,6.09,32.1,1.19c10.74-4.18,12.53-20.28,2.98-26.97
		c-17.3-12.05-4.77-16.82,9.07-9.79l2.5-13.48c-5.61-0.48-11.21-0.36-15.75-0.48c-18.85-0.48-30.79,14.56-16.11,27.09
		c18.25,14.56,1.91,19.33-12.17,8.71L525.9,577.14z"/>
	<path class="st0" d="M76.9,484.69h2.83c-23.55,28.09-24.15,37.99-18.09,41.63c5.26,3.03,44.36-12.33,102.76-41.63h3.44
		c-65.78,35.57-109.03,54.36-114.69,47.79C47.19,528.75,50.42,515.01,76.9,484.69"/>
	<path class="st1" d="M141.26,597.66h-1.82c32.23-32.54,46.08-57.09,15.66-69.42c-23.74-9.6-86.7,24.15-140.05,48.2v-1.62
		c57.6-29.2,114.08-67.4,151.26-58.4C186.13,521.17,191.49,551.28,141.26,597.66"/>
	<path class="st2" d="M129.95,484.69h0.81c-73.96,41.33-83.67,53.25-76.9,60.12c17.28,17.58,125.7-24.25,210.78-60.12h2.32
		c-103.98,46.68-203.2,80.73-220.08,64.36C38.2,540.67,55.58,525.01,129.95,484.69"/>
</g>
<g>
	<polygon class="st3" points="694.06,504.42 682.68,569.07 709.86,569.07 707.23,584.16 660.89,584.16 674.9,504.42 	"/>
	<path class="st3" d="M766.49,584.16h-17.72l2.04-12.93c-1.04,1.84-2.22,3.61-3.53,5.33c-1.32,1.72-2.77,3.23-4.37,4.55
		c-1.6,1.32-3.31,2.36-5.15,3.11c-1.84,0.76-3.79,1.14-5.87,1.14c-2.88,0-5.37-0.6-7.48-1.8c-2.12-1.2-3.83-2.82-5.15-4.85
		c-1.32-2.04-2.29-4.37-2.93-7c-0.64-2.64-0.96-5.39-0.96-8.26c0-5.27,0.76-10.28,2.27-15.03c1.52-4.75,3.73-8.92,6.65-12.51
		c2.91-3.59,6.54-6.42,10.89-8.5c4.35-2.07,9.4-3.11,15.14-3.11c4.39,0,8.68,0.44,12.87,1.32c4.19,0.88,8.48,2.31,12.87,4.31
		L766.49,584.16z M738.36,570.75c1.36,0,2.77-0.62,4.25-1.86c1.48-1.24,2.89-2.77,4.25-4.61c1.36-1.84,2.61-3.85,3.77-6.05
		c1.16-2.19,2.14-4.21,2.93-6.05l2.27-12.81c-1.84-0.8-3.79-1.2-5.87-1.2c-2.79,0-5.19,0.82-7.18,2.46c-2,1.64-3.63,3.69-4.91,6.16
		c-1.28,2.47-2.23,5.15-2.87,8.02c-0.64,2.87-0.96,5.51-0.96,7.9c0,0.96,0.04,1.9,0.12,2.81c0.08,0.92,0.28,1.78,0.6,2.57
		c0.32,0.8,0.76,1.44,1.32,1.91C736.64,570.51,737.4,570.75,738.36,570.75"/>
	<polygon class="st4" points="833.41,504.42 822.04,569.07 849.21,569.07 846.58,584.16 800.25,584.16 814.25,504.42 	"/>
	<path class="st4" d="M853.4,584.16l10.3-58.67h18.68l-10.3,58.67H853.4z M866.21,517.23L878.3,497h21.31l-17,20.23H866.21z"/>
	<path class="st4" d="M883.45,584.16l10.41-58.66h17.96l-1.68,9.1c1.83-2.95,4.25-5.4,7.24-7.36c2.99-1.95,6.6-2.93,10.82-2.93
		c2.7,0,5.06,0.52,7.08,1.56c2.02,1.04,3.71,2.47,5.06,4.31c1.35,1.84,2.36,3.99,3.03,6.46c0.67,2.47,1.01,5.15,1.01,8.02
		c0,1.12-0.06,2.28-0.18,3.47c-0.12,1.2-0.26,2.35-0.42,3.47l-5.71,32.57h-18.6l5.75-32.57c0.16-0.8,0.28-1.65,0.36-2.57
		c0.08-0.92,0.12-1.81,0.12-2.69c0-2.08-0.36-3.83-1.08-5.27c-0.72-1.44-2-2.15-3.83-2.15c-2.48,0-4.83,1.16-7.06,3.47
		c-2.23,2.32-4.11,4.91-5.63,7.78l-5.98,34H883.45z"/>
	<path class="st4" d="M984.14,524.29c2.87,0,5.45,0.38,7.72,1.14c2.27,0.76,4.19,1.82,5.75,3.17c1.56,1.36,2.75,2.93,3.59,4.73
		c0.84,1.79,1.26,3.69,1.26,5.69c0,3.99-1.02,7.4-3.05,10.24c-2.03,2.83-4.67,5.19-7.9,7.06c-3.23,1.88-6.88,3.25-10.95,4.13
		c-4.07,0.88-8.14,1.32-12.21,1.32c-0.08,0.48-0.12,0.88-0.12,1.2v1.08c0,2.48,0.6,4.39,1.79,5.75c1.2,1.36,3.19,2.04,5.99,2.04
		c2.55,0,5.31-0.38,8.26-1.14c2.95-0.76,5.79-1.93,8.5-3.53l3.59,11.97c-3.27,2-6.88,3.53-10.84,4.61
		c-3.95,1.08-8.12,1.62-12.51,1.62c-3.83,0-7.17-0.58-10-1.74c-2.83-1.16-5.21-2.75-7.12-4.79c-1.92-2.04-3.33-4.39-4.25-7.07
		c-0.92-2.67-1.38-5.53-1.38-8.56c0-5.59,0.8-10.75,2.4-15.5c1.6-4.75,3.85-8.86,6.76-12.33c2.91-3.47,6.47-6.18,10.66-8.14
		C974.26,525.27,978.95,524.29,984.14,524.29 M981.26,537.1c-2.56,0-4.87,1.18-6.95,3.53c-2.08,2.35-3.43,5.45-4.07,9.28
		c1.99-0.08,3.93-0.34,5.81-0.78c1.87-0.44,3.53-1.06,4.97-1.86c1.44-0.8,2.57-1.72,3.41-2.76c0.84-1.04,1.26-2.23,1.26-3.59
		C985.69,538.38,984.21,537.1,981.26,537.1"/>
	<path class="st4" d="M1054.89,584.16h-17.72l2.03-12.93c-1.04,1.84-2.21,3.61-3.53,5.33c-1.32,1.72-2.77,3.23-4.37,4.55
		c-1.6,1.32-3.31,2.36-5.15,3.11c-1.84,0.76-3.79,1.14-5.86,1.14c-2.88,0-5.37-0.6-7.48-1.8c-2.12-1.2-3.83-2.82-5.15-4.85
		c-1.32-2.04-2.3-4.37-2.93-7c-0.64-2.64-0.96-5.39-0.96-8.26c0-5.27,0.76-10.28,2.27-15.03c1.52-4.75,3.73-8.92,6.65-12.51
		c2.91-3.59,6.54-6.42,10.89-8.5c4.35-2.07,9.4-3.11,15.14-3.11c4.39,0,8.68,0.44,12.87,1.32c4.19,0.88,8.48,2.31,12.87,4.31
		L1054.89,584.16z M1026.76,570.75c1.36,0,2.77-0.62,4.25-1.86c1.48-1.24,2.89-2.77,4.25-4.61c1.35-1.84,2.61-3.85,3.77-6.05
		c1.15-2.19,2.13-4.21,2.93-6.05l2.27-12.81c-1.83-0.8-3.79-1.2-5.87-1.2c-2.79,0-5.19,0.82-7.18,2.46
		c-1.99,1.64-3.63,3.69-4.91,6.16c-1.28,2.47-2.24,5.15-2.87,8.02c-0.64,2.87-0.96,5.51-0.96,7.9c0,0.96,0.04,1.9,0.12,2.81
		c0.08,0.92,0.28,1.78,0.6,2.57c0.32,0.8,0.76,1.44,1.32,1.91C1025.04,570.51,1025.8,570.75,1026.76,570.75"/>
</g>
</svg>
