<?xml version="1.0" encoding="utf-8"?>
<!-- Generator: Adobe Illustrator 25.4.1, SVG Export Plug-In . SVG Version: 6.00 Build 0)  -->
<svg version="1.1" id="Capa_1" xmlns="http://www.w3.org/2000/svg" xmlns:xlink="http://www.w3.org/1999/xlink" x="0px" y="0px"
	 viewBox="0 0 1080 1080" style="enable-background:new 0 0 1080 1080;" xml:space="preserve">
<style type="text/css">
	.st0{fill:#231F20;}
	.st1{fill:#A6A8AB;}
</style>
<path class="st0" d="M494.5,605.32h74.14c1.08,2.69,2.22,5.41,3.44,8.16h-61.06C505.54,610.89,500.03,608.17,494.5,605.32
	 M458.49,585.55h103.33c0.76,2.68,1.61,5.41,2.54,8.16h-91.46C468.11,591.06,463.32,588.34,458.49,585.55 M424.2,565.35h133.35
	c0.35,2.68,0.8,5.4,1.35,8.17H437.94c-1.97-1.17-3.94-2.34-5.92-3.52L424.2,565.35z M382.67,541.3h174.78
	c-0.37,2.65-0.6,5.38-0.7,8.16H397.11C392.37,546.73,387.56,544.01,382.67,541.3 M340.33,519.38h224.23
	c-1.43,2.63-2.67,5.34-3.7,8.16H356.89C351.49,524.79,345.98,522.06,340.33,519.38 M298.51,500.04h282.43
	c-3.17,2.57-6.02,5.29-8.55,8.16H315.5c-5.53-2.34-11.19-4.64-16.99-6.89V500.04z M594.18,640.85
	c-59.93-1.08-117.83-33.74-180.22-70.85c-43.33-25.78-89.38-53.5-151.1-75.21h333.71C552.87,522.93,557.11,574.04,594.18,640.85
	 M612.19,651.18c-49.56-73.64-55.25-129.94,3.19-160.94H97.42c-0.35,2.49-0.71,4.98-1.06,7.46c153.66-4.04,146.69-6.88,213.34,23.65
	C396.21,560.98,496.05,647.27,612.19,651.18"/>
<path class="st0" d="M1063.13,669.84v13.23h-1.1c-0.82-3.46-2.37-6.1-4.62-7.95c-2.25-1.83-4.81-2.76-7.66-2.76
	c-2.38,0-4.57,0.69-6.56,2.06c-1.99,1.37-3.45,3.15-4.36,5.38c-1.18,2.84-1.78,5.98-1.78,9.47c0,3.41,0.44,6.52,1.3,9.34
	c0.87,2.8,2.21,4.93,4.06,6.36c1.84,1.44,4.22,2.16,7.15,2.16c2.41,0,4.6-0.52,6.6-1.57c2.01-1.05,4.11-2.86,6.33-5.44v3.3
	c-2.15,2.23-4.38,3.87-6.69,4.86c-2.32,1.01-5.03,1.51-8.14,1.51c-4.07,0-7.7-0.82-10.86-2.46c-3.16-1.63-5.6-3.98-7.32-7.04
	c-1.72-3.07-2.58-6.33-2.58-9.78c0-3.64,0.95-7.1,2.87-10.37c1.9-3.26,4.47-5.8,7.72-7.6c3.23-1.81,6.68-2.7,10.33-2.7
	c2.68,0,5.52,0.58,8.51,1.74c1.73,0.67,2.83,1.02,3.3,1.02c0.59,0,1.11-0.22,1.56-0.67c0.44-0.44,0.73-1.14,0.86-2.09H1063.13z
	 M991.42,672.91v15.54h0.76c2.42,0,4.17-0.75,5.27-2.27c1.08-1.52,1.78-3.78,2.09-6.73h1.07v20h-1.07
	c-0.23-2.18-0.71-3.97-1.42-5.36c-0.73-1.39-1.57-2.32-2.54-2.8c-0.95-0.47-2.35-0.72-4.16-0.72v10.77c0,2.1,0.08,3.38,0.27,3.85
	c0.18,0.48,0.51,0.86,1,1.15c0.48,0.31,1.27,0.45,2.37,0.45h2.27c3.57,0,6.42-0.83,8.58-2.48c2.15-1.64,3.7-4.16,4.63-7.55h1.04
	l-1.71,12.15h-33.02v-1.04h1.27c1.11,0,2-0.21,2.68-0.6c0.49-0.27,0.86-0.72,1.13-1.36c0.21-0.44,0.31-1.63,0.31-3.55v-25.13
	c0-1.73-0.05-2.79-0.15-3.18c-0.18-0.65-0.54-1.16-1.04-1.52c-0.72-0.53-1.69-0.79-2.93-0.79h-1.27v-1.05h31.97V682h-1.06
	c-0.55-2.76-1.31-4.74-2.3-5.94c-0.98-1.2-2.38-2.08-4.18-2.64c-1.05-0.35-3.02-0.51-5.91-0.51H991.42z M945.6,672.91v16.51
	c0.62,0.03,1.08,0.05,1.41,0.05c2.29,0,4.05-0.69,5.29-2.05c1.24-1.36,1.86-3.47,1.86-6.33c0-2.84-0.62-4.9-1.86-6.22
	c-1.24-1.31-3.09-1.97-5.55-1.97H945.6z M945.6,691.61v10.59c0,2.07,0.12,3.37,0.38,3.9c0.26,0.54,0.71,0.97,1.35,1.29
	c0.65,0.32,1.84,0.49,3.57,0.49v1.04h-19.41v-1.04c1.76,0,2.96-0.17,3.6-0.5c0.62-0.33,1.06-0.75,1.33-1.28
	c0.24-0.53,0.38-1.82,0.38-3.89v-24.79c0-2.07-0.13-3.37-0.38-3.9c-0.26-0.54-0.71-0.96-1.35-1.28c-0.63-0.33-1.83-0.48-3.57-0.48
	v-1.05h16.66c5.47,0,9.41,0.98,11.8,2.94c2.38,1.95,3.58,4.39,3.58,7.32c0,2.49-0.77,4.6-2.31,6.37c-1.53,1.76-3.67,2.97-6.37,3.61
	C953.03,691.39,949.94,691.61,945.6,691.61 M896.83,672.91v15.54h0.76c2.43,0,4.17-0.75,5.27-2.27c1.09-1.52,1.79-3.78,2.09-6.73
	h1.07v20h-1.07c-0.23-2.18-0.7-3.97-1.43-5.36c-0.73-1.39-1.57-2.32-2.52-2.8c-0.95-0.47-2.34-0.72-4.16-0.72v10.77
	c0,2.1,0.09,3.38,0.27,3.85c0.18,0.48,0.51,0.86,1,1.15c0.49,0.31,1.28,0.45,2.37,0.45h2.28c3.57,0,6.42-0.83,8.57-2.48
	c2.15-1.64,3.7-4.16,4.63-7.55H917l-1.71,12.15h-33.03v-1.04h1.27c1.11,0,2-0.21,2.68-0.6c0.49-0.27,0.86-0.72,1.13-1.36
	c0.21-0.44,0.32-1.63,0.32-3.55v-25.13c0-1.73-0.05-2.79-0.14-3.18c-0.18-0.65-0.54-1.16-1.04-1.52c-0.73-0.53-1.69-0.79-2.94-0.79
	h-1.27v-1.05h31.98V682h-1.07c-0.55-2.76-1.31-4.74-2.3-5.94c-0.98-1.2-2.37-2.08-4.18-2.64c-1.05-0.35-3.02-0.51-5.92-0.51H896.83z
	 M868.59,670.7v10.35h-1.01c-0.6-2.39-1.27-4.1-2-5.15c-0.73-1.04-1.74-1.87-3.02-2.48c-0.71-0.35-1.96-0.51-3.74-0.51h-2.85v29.46
	c0,1.95,0.1,3.17,0.32,3.67c0.22,0.49,0.64,0.91,1.27,1.27c0.64,0.38,1.49,0.57,2.58,0.57h1.27v1.04h-20v-1.04h1.27
	c1.11,0,2-0.21,2.68-0.6c0.49-0.27,0.87-0.72,1.15-1.36c0.21-0.44,0.32-1.63,0.32-3.55v-29.46h-2.77c-2.57,0-4.44,0.54-5.61,1.63
	c-1.64,1.52-2.67,3.7-3.1,6.51h-1.07V670.7H868.59z M794.46,670.7l18.85,23.69v-16.42c0-2.29-0.33-3.83-0.98-4.65
	c-0.9-1.09-2.41-1.61-4.54-1.57v-1.05h12.61v1.05c-1.61,0.2-2.69,0.47-3.25,0.8c-0.56,0.33-0.99,0.87-1.3,1.61
	c-0.31,0.74-0.46,2.02-0.46,3.82v31.82h-0.96l-25.83-31.82v24.29c0,2.2,0.5,3.68,1.51,4.45c1,0.78,2.15,1.17,3.44,1.17h0.91v1.04
	h-13.55v-1.04c2.1-0.02,3.57-0.46,4.4-1.31c0.82-0.84,1.24-2.28,1.24-4.31V675.3l-0.82-1.02c-0.81-1-1.52-1.67-2.14-2
	c-0.62-0.31-1.51-0.49-2.68-0.53v-1.05H794.46z M751.04,695.94l-5.69-13.15l-5.86,13.15H751.04z M752,698.03h-13.5l-1.6,3.72
	c-0.53,1.24-0.79,2.26-0.79,3.07c0,1.08,0.43,1.86,1.3,2.37c0.5,0.31,1.75,0.53,3.74,0.69v1.04h-12.7v-1.04
	c1.36-0.22,2.5-0.79,3.38-1.72c0.88-0.92,1.97-2.84,3.26-5.76l13.66-30.49h0.54l13.77,31.33c1.32,2.98,2.39,4.85,3.24,5.61
	c0.65,0.59,1.55,0.93,2.72,1.03v1.04h-18.48v-1.04h0.76c1.48,0,2.52-0.22,3.12-0.63c0.42-0.3,0.63-0.73,0.63-1.3
	c0-0.34-0.06-0.69-0.18-1.04c-0.04-0.17-0.32-0.88-0.84-2.11L752,698.03z M714.4,669.84v13.23h-1.09c-0.83-3.46-2.37-6.1-4.63-7.95
	c-2.25-1.83-4.81-2.76-7.66-2.76c-2.38,0-4.57,0.69-6.56,2.06c-1.99,1.37-3.45,3.15-4.36,5.38c-1.18,2.84-1.78,5.98-1.78,9.47
	c0,3.41,0.43,6.52,1.31,9.34c0.86,2.8,2.21,4.93,4.05,6.36c1.83,1.44,4.22,2.16,7.15,2.16c2.41,0,4.6-0.52,6.6-1.57
	c2.01-1.05,4.11-2.86,6.33-5.44v3.3c-2.14,2.23-4.38,3.87-6.69,4.86c-2.33,1.01-5.03,1.51-8.14,1.51c-4.07,0-7.69-0.82-10.86-2.46
	c-3.16-1.63-5.61-3.98-7.32-7.04c-1.71-3.07-2.58-6.33-2.58-9.78c0-3.64,0.95-7.1,2.87-10.37c1.9-3.26,4.47-5.8,7.71-7.6
	c3.24-1.81,6.69-2.7,10.33-2.7c2.69,0,5.53,0.58,8.51,1.74c1.74,0.67,2.83,1.02,3.3,1.02c0.59,0,1.11-0.22,1.55-0.67
	c0.44-0.44,0.73-1.14,0.87-2.09H714.4z M646.83,695.94l-5.68-13.15l-5.86,13.15H646.83z M647.79,698.03H634.3l-1.6,3.72
	c-0.53,1.24-0.79,2.26-0.79,3.07c0,1.08,0.43,1.86,1.3,2.37c0.5,0.31,1.75,0.53,3.74,0.69v1.04h-12.7v-1.04
	c1.37-0.22,2.5-0.79,3.38-1.72c0.88-0.92,1.98-2.84,3.27-5.76l13.66-30.49h0.54l13.77,31.33c1.31,2.98,2.39,4.85,3.23,5.61
	c0.65,0.59,1.55,0.93,2.72,1.03v1.04h-18.48v-1.04h0.75c1.48,0,2.53-0.22,3.13-0.63c0.41-0.3,0.62-0.73,0.62-1.3
	c0-0.34-0.06-0.69-0.18-1.04c-0.04-0.17-0.31-0.88-0.84-2.11L647.79,698.03z M586.06,670.7l18.85,23.69v-16.42
	c0-2.29-0.33-3.83-0.98-4.65c-0.9-1.09-2.41-1.61-4.54-1.57v-1.05h12.61v1.05c-1.62,0.2-2.69,0.47-3.25,0.8s-0.99,0.87-1.3,1.61
	c-0.31,0.74-0.46,2.02-0.46,3.82v31.82h-0.96l-25.83-31.82v24.29c0,2.2,0.5,3.68,1.5,4.45c1,0.78,2.16,1.17,3.45,1.17h0.9v1.04
	h-13.55v-1.04c2.1-0.02,3.57-0.46,4.39-1.31c0.83-0.84,1.24-2.28,1.24-4.31V675.3l-0.82-1.02c-0.8-1-1.52-1.67-2.15-2
	c-0.62-0.31-1.51-0.49-2.68-0.53v-1.05H586.06z M559.93,707.88v1.04h-19.97v-1.04h1.27c1.11,0,2-0.21,2.67-0.6
	c0.5-0.27,0.87-0.72,1.13-1.36c0.22-0.44,0.32-1.63,0.32-3.55v-25.13c0-1.95-0.1-3.17-0.32-3.66c-0.2-0.49-0.62-0.92-1.25-1.28
	c-0.62-0.37-1.48-0.55-2.54-0.55h-1.27v-1.05h19.97v1.05h-1.26c-1.11,0-2,0.19-2.68,0.59c-0.49,0.27-0.87,0.71-1.15,1.35
	c-0.2,0.46-0.31,1.64-0.31,3.55v25.13c0,1.95,0.1,3.17,0.32,3.67c0.22,0.49,0.64,0.91,1.27,1.27c0.63,0.38,1.48,0.57,2.55,0.57
	H559.93z M525.11,670.7l-22.46,36.06h7.27c3.43,0,5.84-0.21,7.21-0.65c2.23-0.67,4.16-1.92,5.78-3.73c1.62-1.81,2.73-4.25,3.35-7.29
	h1.1l-1.55,13.81h-34.98l22.49-36.12h-5.67c-2.2,0-3.65,0.07-4.34,0.2c-1.31,0.24-2.56,0.72-3.71,1.45
	c-1.15,0.73-2.1,1.68-2.87,2.88c-0.76,1.2-1.36,2.72-1.79,4.56h-1.04l1.04-11.18H525.11z M445.62,669.84l0.32,12.73h-1.16
	c-0.54-3.19-1.87-5.76-4.01-7.71c-2.13-1.94-4.43-2.91-6.91-2.91c-1.92,0-3.44,0.51-4.54,1.53c-1.13,1.02-1.69,2.2-1.69,3.55
	c0,0.83,0.2,1.59,0.6,2.24c0.54,0.89,1.41,1.76,2.62,2.61c0.89,0.63,2.92,1.73,6.12,3.31c4.47,2.2,7.48,4.27,9.04,6.23
	c1.55,1.95,2.32,4.18,2.32,6.7c0,3.2-1.25,5.95-3.73,8.25c-2.49,2.29-5.65,3.45-9.48,3.45c-1.2,0-2.34-0.12-3.41-0.37
	c-1.07-0.25-2.41-0.71-4.03-1.38c-0.91-0.38-1.65-0.57-2.22-0.57c-0.49,0-1.01,0.18-1.55,0.57c-0.55,0.37-1,0.95-1.33,1.72h-1.04
	v-14.43h1.04c0.83,4.05,2.41,7.15,4.78,9.27c2.36,2.15,4.9,3.21,7.62,3.21c2.11,0,3.78-0.58,5.03-1.73c1.25-1.14,1.88-2.48,1.88-4
	c0-0.9-0.24-1.78-0.72-2.62c-0.49-0.84-1.21-1.65-2.19-2.4c-0.98-0.77-2.7-1.75-5.18-2.97c-3.47-1.71-5.97-3.17-7.49-4.36
	c-1.53-1.2-2.69-2.55-3.51-4.03c-0.82-1.48-1.23-3.11-1.23-4.91c0-3.04,1.13-5.64,3.36-7.77c2.24-2.13,5.06-3.2,8.45-3.2
	c1.24,0,2.44,0.14,3.61,0.44c0.88,0.23,1.96,0.65,3.22,1.27c1.26,0.6,2.16,0.91,2.66,0.91c0.49,0,0.88-0.16,1.15-0.46
	c0.29-0.29,0.55-1.01,0.79-2.16H445.62z M385.33,672.91v15.54h0.76c2.42,0,4.18-0.75,5.27-2.27c1.09-1.52,1.78-3.78,2.09-6.73h1.07
	v20h-1.07c-0.23-2.18-0.7-3.97-1.42-5.36c-0.73-1.39-1.57-2.32-2.53-2.8c-0.95-0.47-2.35-0.72-4.16-0.72v10.77
	c0,2.1,0.09,3.38,0.27,3.85c0.17,0.48,0.51,0.86,1,1.15c0.48,0.31,1.27,0.45,2.37,0.45h2.28c3.56,0,6.42-0.83,8.57-2.48
	c2.16-1.64,3.7-4.16,4.64-7.55h1.04l-1.71,12.15h-33.03v-1.04h1.27c1.11,0,2-0.21,2.67-0.6c0.49-0.27,0.87-0.72,1.13-1.36
	c0.21-0.44,0.32-1.63,0.32-3.55v-25.13c0-1.73-0.05-2.79-0.14-3.18c-0.18-0.65-0.54-1.16-1.04-1.52c-0.73-0.53-1.7-0.79-2.94-0.79
	h-1.27v-1.05h31.98V682h-1.07c-0.55-2.76-1.31-4.74-2.3-5.94c-0.99-1.2-2.38-2.08-4.18-2.64c-1.05-0.35-3.03-0.51-5.92-0.51H385.33z
	 M354.18,669.84l0.31,12.73h-1.16c-0.54-3.19-1.87-5.76-4.01-7.71c-2.14-1.94-4.43-2.91-6.92-2.91c-1.92,0-3.43,0.51-4.54,1.53
	c-1.13,1.02-1.69,2.2-1.69,3.55c0,0.83,0.21,1.59,0.6,2.24c0.54,0.89,1.42,1.76,2.61,2.61c0.89,0.63,2.93,1.73,6.12,3.31
	c4.47,2.2,7.48,4.27,9.04,6.23c1.55,1.95,2.32,4.18,2.32,6.7c0,3.2-1.25,5.95-3.73,8.25c-2.49,2.29-5.65,3.45-9.48,3.45
	c-1.2,0-2.34-0.12-3.41-0.37c-1.06-0.25-2.41-0.71-4.03-1.38c-0.91-0.38-1.65-0.57-2.22-0.57c-0.49,0-1.01,0.18-1.55,0.57
	c-0.55,0.37-1,0.95-1.33,1.72h-1.04v-14.43h1.04c0.83,4.05,2.41,7.15,4.78,9.27c2.36,2.15,4.9,3.21,7.61,3.21
	c2.1,0,3.78-0.58,5.03-1.73c1.25-1.14,1.88-2.48,1.88-4c0-0.9-0.24-1.78-0.73-2.62c-0.48-0.84-1.2-1.65-2.18-2.4
	c-0.98-0.77-2.7-1.75-5.18-2.97c-3.47-1.71-5.97-3.17-7.49-4.36c-1.53-1.2-2.69-2.55-3.51-4.03c-0.82-1.48-1.23-3.11-1.23-4.91
	c0-3.04,1.13-5.64,3.35-7.77c2.25-2.13,5.06-3.2,8.45-3.2c1.24,0,2.45,0.14,3.61,0.44c0.88,0.23,1.96,0.65,3.22,1.27
	c1.27,0.6,2.16,0.91,2.66,0.91c0.49,0,0.88-0.16,1.16-0.46c0.29-0.29,0.55-1.01,0.79-2.16H354.18z M276.34,670.7h19.72v1.05h-0.98
	c-1.48,0-2.5,0.15-3.06,0.46c-0.56,0.31-0.95,0.74-1.18,1.27c-0.23,0.55-0.35,1.92-0.35,4.09v18.7c0,3.42,0.26,5.68,0.77,6.79
	c0.53,1.11,1.37,2.02,2.55,2.76c1.18,0.73,2.67,1.1,4.48,1.1c2.07,0,3.83-0.46,5.28-1.39c1.46-0.93,2.55-2.21,3.27-3.85
	c0.72-1.63,1.08-4.48,1.08-8.54v-15.58c0-1.71-0.18-2.94-0.54-3.66c-0.36-0.73-0.81-1.24-1.35-1.52c-0.85-0.43-2.04-0.64-3.59-0.64
	v-1.05h13.22v1.05h-0.79c-1.06,0-1.96,0.21-2.67,0.64c-0.72,0.43-1.24,1.08-1.55,1.94c-0.24,0.61-0.36,1.68-0.36,3.24v14.51
	c0,4.49-0.3,7.73-0.89,9.73c-0.59,1.98-2.04,3.81-4.32,5.49c-2.29,1.68-5.42,2.51-9.38,2.51c-3.3,0-5.85-0.45-7.66-1.33
	c-2.45-1.21-4.2-2.74-5.22-4.62c-1-1.89-1.52-4.4-1.52-7.59v-18.7c0-2.2-0.11-3.56-0.36-4.1c-0.24-0.53-0.67-0.95-1.28-1.27
	c-0.59-0.33-1.7-0.47-3.31-0.45V670.7z M241.48,690.09v12.25l-0.03,1.41c0,1.01,0.25,1.79,0.77,2.3c0.52,0.51,1.28,0.76,2.3,0.76
	c1.5,0,2.88-0.33,4.15-1c1.26-0.66,2.24-1.63,2.92-2.9c0.68-1.26,1.02-2.68,1.02-4.24c0-1.78-0.41-3.39-1.24-4.8
	c-0.82-1.42-1.96-2.4-3.42-2.97C246.51,690.34,244.35,690.06,241.48,690.09 M241.48,687.88c2.66,0,4.63-0.3,5.89-0.89
	c1.27-0.6,2.24-1.45,2.92-2.53c0.67-1.09,1.01-2.49,1.01-4.18c0-1.68-0.34-3.07-1-4.16c-0.66-1.08-1.61-1.9-2.85-2.46
	c-1.24-0.56-3.23-0.84-5.97-0.81V687.88z M251.73,688.65c3.62,0.84,6.17,1.86,7.63,3.07c2.1,1.71,3.15,3.93,3.15,6.65
	c0,2.87-1.15,5.25-3.46,7.12c-2.83,2.28-6.96,3.42-12.37,3.42h-19.41v-1.04c1.77,0,2.96-0.17,3.6-0.5c0.62-0.33,1.06-0.75,1.32-1.28
	c0.26-0.53,0.38-1.82,0.38-3.89v-24.79c0-2.07-0.13-3.37-0.38-3.9c-0.26-0.54-0.7-0.96-1.34-1.28c-0.64-0.33-1.83-0.48-3.58-0.48
	v-1.05h18.31c4.38,0,7.48,0.4,9.3,1.18c1.83,0.77,3.26,1.94,4.3,3.49c1.07,1.55,1.58,3.21,1.58,4.94c0,1.85-0.66,3.48-2,4.93
	C257.44,686.66,255.1,687.81,251.73,688.65 M193.38,671.97c-3.5,0-6.16,1.79-7.98,5.35c-1.48,2.92-2.23,7.14-2.23,12.62
	c0,6.51,1.14,11.33,3.44,14.45c1.59,2.19,3.84,3.27,6.71,3.27c1.93,0,3.55-0.47,4.85-1.4c1.64-1.2,2.93-3.12,3.85-5.77
	c0.93-2.63,1.38-6.08,1.38-10.32c0-5.06-0.47-8.84-1.41-11.33c-0.94-2.52-2.14-4.29-3.59-5.32
	C196.95,672.49,195.28,671.97,193.38,671.97 M193.03,670.17c6.09-0.23,11.03,1.55,14.84,5.32c3.8,3.77,5.7,8.5,5.7,14.17
	c0,4.85-1.41,9.11-4.25,12.79c-3.76,4.88-9.07,7.33-15.92,7.33c-6.87,0-12.18-2.33-15.94-6.99c-2.97-3.69-4.46-8.05-4.46-13.1
	c0-5.66,1.93-10.4,5.79-14.18C182.66,671.72,187.4,669.94,193.03,670.17 M159.28,670.7v10.35h-1.01c-0.61-2.39-1.27-4.1-2-5.15
	c-0.73-1.04-1.75-1.87-3.02-2.48c-0.71-0.35-1.96-0.51-3.74-0.51h-2.84v29.46c0,1.95,0.11,3.17,0.31,3.67
	c0.23,0.49,0.65,0.91,1.27,1.27c0.64,0.38,1.49,0.57,2.58,0.57h1.26v1.04h-20v-1.04h1.27c1.11,0,2-0.21,2.68-0.6
	c0.49-0.27,0.87-0.72,1.15-1.36c0.22-0.44,0.32-1.63,0.32-3.55v-29.46h-2.77c-2.57,0-4.45,0.54-5.61,1.63
	c-1.63,1.52-2.66,3.7-3.1,6.51h-1.06V670.7H159.28z M72.13,670.7h19.72v1.05h-0.98c-1.48,0-2.5,0.15-3.06,0.46
	c-0.55,0.31-0.95,0.74-1.18,1.27c-0.23,0.55-0.35,1.92-0.35,4.09v18.7c0,3.42,0.26,5.68,0.78,6.79c0.52,1.11,1.37,2.02,2.55,2.76
	c1.18,0.73,2.67,1.1,4.48,1.1c2.07,0,3.82-0.46,5.28-1.39c1.46-0.93,2.55-2.21,3.27-3.85c0.73-1.63,1.09-4.48,1.09-8.54v-15.58
	c0-1.71-0.18-2.94-0.54-3.66c-0.36-0.73-0.8-1.24-1.35-1.52c-0.84-0.43-2.04-0.64-3.58-0.64v-1.05h13.21v1.05h-0.79
	c-1.07,0-1.97,0.21-2.67,0.64c-0.71,0.43-1.24,1.08-1.55,1.94c-0.24,0.61-0.37,1.68-0.37,3.24v14.51c0,4.49-0.3,7.73-0.89,9.73
	c-0.59,1.98-2.04,3.81-4.32,5.49c-2.29,1.68-5.42,2.51-9.39,2.51c-3.3,0-5.86-0.45-7.66-1.33c-2.46-1.21-4.19-2.74-5.21-4.62
	c-1.01-1.89-1.52-4.4-1.52-7.59v-18.7c0-2.2-0.12-3.56-0.37-4.1c-0.24-0.53-0.66-0.95-1.27-1.27c-0.6-0.33-1.7-0.47-3.32-0.45V670.7
	z M41.72,695.94l-5.69-13.15l-5.86,13.15H41.72z M42.68,698.03H29.19l-1.61,3.72c-0.53,1.24-0.79,2.26-0.79,3.07
	c0,1.08,0.44,1.86,1.3,2.37c0.5,0.31,1.75,0.53,3.74,0.69v1.04h-12.7v-1.04c1.37-0.22,2.5-0.79,3.38-1.72
	c0.89-0.92,1.98-2.84,3.26-5.76l13.67-30.49h0.54l13.77,31.33c1.32,2.98,2.4,4.85,3.24,5.61c0.64,0.59,1.55,0.93,2.71,1.03v1.04
	H41.22v-1.04h0.75c1.48,0,2.53-0.22,3.13-0.63c0.41-0.3,0.62-0.73,0.62-1.3c0-0.34-0.06-0.69-0.18-1.04
	c-0.04-0.17-0.31-0.88-0.85-2.11L42.68,698.03z"/>
<path class="st0" d="M86.63,517.92c84.92-24.32,172-21.58,243.57,17.39c60.08,32.71,101.63,70.2,198.13,108.47
	c-71.36,2.76-141.15-51.27-214.89-79.89c-84.53-32.8-138.12-3.52-173.3,59.95c-9.82-5.1-18.35-10.85-24.02-18.02
	c9.95-20.5,29.23-42.22,81.35-68.25c-41.81,12.41-71.36,33.25-88.99,62.24c-9.65-6.65-15.83-15.02-18.56-25.12
	c22.09-23.07,52.52-40.47,93.24-49.74c-33.67,4.98-66.67,16.8-97.07,33.36C83.85,544.85,84.03,531.39,86.63,517.92"/>
<path class="st0" d="M594.14,599.94c-26.28-63.48,1.75-97.98,51.18-106.8c81.08-14.48,229.51,31.35,369.26,123.14
	C896.81,557.46,704.76,494.52,594.14,599.94"/>
<path class="st1" d="M663.58,567.23c-25.62,9.84-48.45,22.77-64.38,43.28c29.88,45.35,74.01,66.45,149.48,34.19
	C702.31,627.61,677.94,599.84,663.58,567.23"/>
<path class="st1" d="M86.63,517.92c84.92-24.32,172-21.58,243.57,17.39c9.66,5.26,18.84,10.64,27.84,16.13
	c-54.57,15.25-66.2-39.99-174.89-26.48c-33.67,4.98-66.67,16.8-97.07,33.36C83.85,544.85,84.03,531.39,86.63,517.92"/>
</svg>
