<?xml version="1.0" encoding="utf-8"?>
<!-- Generator: Adobe Illustrator 25.4.1, SVG Export Plug-In . SVG Version: 6.00 Build 0)  -->
<svg version="1.1" id="Capa_1" xmlns="http://www.w3.org/2000/svg" xmlns:xlink="http://www.w3.org/1999/xlink" x="0px" y="0px"
	 viewBox="0 0 1080 1080" style="enable-background:new 0 0 1080 1080;" xml:space="preserve">
<style type="text/css">
	.st0{fill:#EB252C;}
	.st1{fill:#FFC629;}
	.st2{fill:#E1251B;}
</style>
<g>
	<path class="st0" d="M490.99,542.84l3.14-19.91c-19.42,18.1-39.07,25.35-62.25,25.35c-39.11,0-62.69-25.35-54.15-65.55
		l25.86-121.68h68.81l-22.7,106.83c-3.05,17.74-2.79,36.94,18.58,36.94c34.04,0,37.63-37.3,38.08-39.48l22.17-104.29h68.8
		l-28.71,135.08c-3.46,16.3-5.41,27.16-7.76,46.71H490.99z M289.01,294.41c50.59,0,96.96,17.76,81.46,74.83h-65.6
		c1.89-9.06,0.24-16.19-4.9-21.41c-5.07-5.5-13.8-8.26-25.54-8.26c-16.06,0-32.6,10.45-35.37,23.53
		c-4.29,20.19,20.63,26.21,34.73,30.16c9.75,2.64,20.77,4.88,31.59,7.79c37.01,9.96,61.2,26.32,51.53,71.86
		c-10.82,50.91-66.31,75.37-123.08,75.37c-56.93,0-102.18-16.39-89.96-80.97h65.55c-4.51,23.26,10.72,35.81,35.24,35.81
		c15.8,0,38.6-8.23,42.29-25.58c3.8-17.9-8.62-24.79-26.75-30.11c-9.09-2.67-19.93-5.02-31.53-8.18
		c-11.52-3.14-23.79-7.08-35.85-12.92c-21.87-10.57-29.28-32.34-23.73-58.53C183.96,310.38,237.66,294.41,289.01,294.41z
		 M712.89,361.05l-6.15,34.04h0.73c14.35-30.05,38.96-40.19,69.23-39.47l-12.4,58.3c-4.99-0.36-9.7-0.36-14.41-0.36
		c-35.93,0.36-52.78,21.73-59.09,56.49l-15.47,72.79h-68.81l28.71-135.08c3.46-16.3,5.41-27.16,7.76-46.72H712.89z M1053.27,462.19
		c-63.4-8.35-127.33-14.01-176.93-10.02c-24.63,1.96-44.71,6.48-58.65,13.14c-14.01,6.66-21.91,15.32-26.05,24.81
		c-4.17,9.46-3.57,20.16-2.49,30.55c0.1,10.17-4.15,19.45-12.45,27.57c-16.5,16.31-48.14,28.03-86.64,36.52
		c-78.1,16.75-180.71,21.93-287.89,23.04c-107.81,0.96-222.5-2.93-339.07-8.31l-52.77-43.47c119.73,8.95,233.99,16.28,342.79,19.02
		c107.9,2.61,210.84,1.23,290.17-10.71c39.19-6.07,71.82-15,91.21-28.13c9.74-6.55,15.95-14.17,18.32-22.81l0.7-3.28
		c0.23-1.12,0.35-2.62,0.54-3.91c0.23-2.69,1.01-5.31,1.59-7.93c1.56-5.2,3.85-10.26,7.12-15.09c6.8-9.59,17.71-18.32,35.09-24.77
		c17.28-6.47,41.04-10.45,68.68-11.62C922.35,444.42,988.83,452.18,1053.27,462.19z M73.15,607.76
		c116.17,4.87,231.15,8.27,339.09,6.76c107.36-1.66,210.31-7.39,288.82-24.96c38.69-8.9,70.54-21.13,86.84-38.12
		c8.19-8.46,12.22-18.11,11.76-28.66c-1.44-10.7-2.36-20.98,1.37-30.4c3.69-9.35,11.05-17.86,24.29-24.41
		c13.18-6.55,32.27-11.04,55.96-13.08c47.66-4.15,110.38,1.1,173.16,9.15c-61.73-6.39-121.91-9.54-163.38-3.77
		c-42.08,5.51-59.76,20.45-61.18,39.05c-0.37,4.67,0.07,9.53,1.13,14.53c0.74,2.55,1.24,5.04,2.27,7.66
		c0.46,1.34,0.92,2.48,1.37,3.98l1.32,4.57c2.93,12.08,0.87,23.39-5.88,33.42c-13.4,20.17-44.27,35.19-82.27,46.51
		c-77.28,22.39-179.9,31.91-286.54,37.3c-106.95,5.21-222.36,5.25-335.37,3.94L73.15,607.76z"/>
	<path class="st1" d="M480.67,532.53l3.14-19.92c-19.42,18.1-39.07,25.35-62.24,25.35c-39.11,0-62.69-25.35-54.14-65.55
		l25.86-121.68h68.81l-22.71,106.83c-3.05,17.74-2.78,36.94,18.58,36.94c34.04,0,37.63-37.3,38.09-39.48l22.17-104.3h68.81
		l-28.71,135.08c-3.46,16.3-5.41,27.16-7.75,46.72H480.67z M278.69,284.1c50.58,0,96.96,17.76,81.45,74.83h-65.6
		c1.89-9.06,0.24-16.19-4.9-21.41c-5.07-5.5-13.79-8.26-25.54-8.26c-16.06,0-32.6,10.45-35.37,23.53
		c-4.29,20.2,20.63,26.21,34.73,30.16c9.75,2.64,20.77,4.88,31.58,7.79c37.01,9.96,61.21,26.32,51.53,71.86
		c-10.82,50.91-66.32,75.37-123.08,75.37c-56.92,0-102.18-16.39-89.96-80.97h65.55c-4.51,23.26,10.72,35.81,35.24,35.81
		c15.8,0,38.6-8.23,42.29-25.58c3.81-17.9-8.62-24.79-26.75-30.11c-9.1-2.67-19.93-5.02-31.53-8.19
		c-11.52-3.14-23.79-7.08-35.85-12.92c-21.86-10.57-29.27-32.34-23.73-58.53C173.65,300.07,227.34,284.1,278.69,284.1z
		 M702.58,350.73l-6.14,34.04h0.72c14.36-30.05,38.96-40.19,69.23-39.47l-12.39,58.3c-4.99-0.36-9.7-0.36-14.41-0.36
		c-35.93,0.36-52.78,21.73-59.09,56.49l-15.47,72.79h-68.81l28.71-135.08c3.47-16.3,5.41-27.16,7.76-46.72H702.58z"/>
	<path d="M77.53,612.14c116.16,4.87,231.15,8.27,339.09,6.77c107.36-1.66,210.31-7.39,288.82-24.96
		c38.69-8.91,70.54-21.13,86.83-38.13c8.19-8.46,12.22-18.11,11.76-28.66c-1.45-10.7-2.36-20.98,1.37-30.4
		c3.69-9.35,11.05-17.86,24.29-24.41c13.18-6.56,32.27-11.04,55.97-13.08c47.65-4.15,110.38,1.1,173.16,9.15
		c-61.73-6.39-121.91-9.54-163.38-3.77c-42.08,5.51-59.76,20.45-61.18,39.05c-0.37,4.67,0.07,9.53,1.13,14.53
		c0.74,2.56,1.24,5.04,2.27,7.66c0.46,1.34,0.92,2.48,1.37,3.98l1.33,4.57c2.93,12.08,0.87,23.39-5.88,33.42
		c-13.4,20.17-44.27,35.19-82.27,46.51c-77.28,22.39-179.9,31.91-286.54,37.3c-106.95,5.21-222.36,5.25-335.37,3.94L77.53,612.14z
		 M1057.66,466.57c-63.4-8.35-127.33-14.01-176.93-10.02c-24.63,1.96-44.72,6.48-58.65,13.14c-14.01,6.66-21.91,15.33-26.05,24.81
		c-4.18,9.46-3.57,20.16-2.49,30.55c0.1,10.17-4.15,19.45-12.44,27.57c-16.5,16.31-48.14,28.03-86.64,36.52
		c-78.1,16.76-180.71,21.93-287.89,23.04c-107.81,0.96-222.49-2.93-339.07-8.31L14.74,560.4c119.73,8.95,233.98,16.28,342.79,19.02
		c107.9,2.61,210.85,1.23,290.17-10.71c39.19-6.07,71.82-15,91.21-28.14c9.74-6.54,15.95-14.17,18.32-22.81l0.7-3.29
		c0.23-1.12,0.35-2.62,0.54-3.91c0.23-2.69,1.01-5.3,1.59-7.93c1.56-5.2,3.85-10.26,7.12-15.09c6.8-9.59,17.71-18.31,35.09-24.77
		c17.28-6.47,41.04-10.46,68.69-11.63C926.74,448.81,993.21,456.56,1057.66,466.57z"/>
	<path d="M712.89,361.05l-6.15,34.04h0.73c14.35-30.05,38.96-40.19,69.23-39.47l-12.4,58.3c-4.99-0.36-9.7-0.36-14.41-0.36
		c-35.93,0.36-52.78,21.73-59.09,56.49l-15.47,72.79h-68.81l28.71-135.08c3.46-16.3,5.41-27.16,7.76-46.72H712.89z M490.99,542.84
		l3.14-19.91c-19.42,18.1-39.07,25.35-62.25,25.35c-39.11,0-62.69-25.35-54.15-65.55l25.86-121.68h68.81l-22.7,106.83
		c-3.05,17.74-2.79,36.94,18.58,36.94c34.04,0,37.63-37.3,38.08-39.48l22.17-104.29h68.8l-28.71,135.08
		c-3.46,16.3-5.41,27.16-7.76,46.71H490.99z M289.01,294.41c50.59,0,96.96,17.76,81.46,74.83h-65.6c1.89-9.06,0.24-16.19-4.9-21.41
		c-5.07-5.5-13.8-8.26-25.54-8.26c-16.06,0-32.6,10.45-35.37,23.53c-4.29,20.19,20.63,26.21,34.73,30.16
		c9.75,2.64,20.77,4.88,31.59,7.79c37.01,9.96,61.2,26.32,51.53,71.86c-10.82,50.91-66.31,75.37-123.08,75.37
		c-56.93,0-102.18-16.39-89.96-80.97h65.55c-4.51,23.26,10.72,35.81,35.24,35.81c15.8,0,38.6-8.23,42.29-25.58
		c3.8-17.9-8.62-24.79-26.75-30.11c-9.09-2.67-19.93-5.02-31.53-8.18c-11.52-3.14-23.79-7.08-35.85-12.92
		c-21.87-10.57-29.28-32.34-23.73-58.53C183.96,310.38,237.66,294.41,289.01,294.41z"/>
	<path class="st2" d="M73.15,607.76c116.17,4.87,231.15,8.27,339.09,6.76c107.36-1.66,210.31-7.39,288.82-24.96
		c38.69-8.9,70.54-21.13,86.84-38.12c8.19-8.46,12.22-18.11,11.76-28.66c-1.44-10.7-2.36-20.98,1.37-30.4
		c3.69-9.35,11.05-17.86,24.29-24.41c13.18-6.55,32.27-11.04,55.96-13.08c47.66-4.15,110.38,1.1,173.16,9.15
		c-61.73-6.39-121.91-9.54-163.38-3.77c-42.08,5.51-59.76,20.45-61.18,39.05c-0.37,4.67,0.07,9.53,1.13,14.53
		c0.74,2.55,1.24,5.04,2.27,7.66c0.46,1.34,0.92,2.48,1.37,3.98l1.32,4.57c2.93,12.08,0.87,23.39-5.88,33.42
		c-13.4,20.17-44.27,35.19-82.27,46.51c-77.28,22.39-179.9,31.91-286.54,37.3c-106.95,5.21-222.36,5.25-335.37,3.94L73.15,607.76z"
		/>
	<path class="st2" d="M1053.27,462.19c-63.4-8.35-127.33-14.01-176.93-10.02c-24.63,1.96-44.71,6.48-58.65,13.14
		c-14.01,6.66-21.91,15.32-26.05,24.81c-4.17,9.46-3.57,20.16-2.49,30.55c0.1,10.17-4.15,19.45-12.45,27.57
		c-16.5,16.31-48.14,28.03-86.64,36.52c-78.1,16.75-180.71,21.93-287.89,23.04c-107.81,0.96-222.5-2.93-339.07-8.31l-52.77-43.47
		c119.73,8.95,233.99,16.28,342.79,19.02c107.9,2.61,210.84,1.23,290.17-10.71c39.19-6.07,71.82-15,91.21-28.13
		c9.74-6.55,15.95-14.17,18.32-22.81l0.7-3.28c0.23-1.12,0.35-2.62,0.54-3.91c0.23-2.69,1.01-5.31,1.59-7.93
		c1.56-5.2,3.85-10.26,7.12-15.09c6.8-9.59,17.71-18.32,35.09-24.77c17.28-6.47,41.04-10.45,68.68-11.62
		C922.35,444.42,988.83,452.18,1053.27,462.19z"/>
	<path class="st1" d="M480.67,532.53l3.14-19.92c-19.42,18.1-39.07,25.35-62.24,25.35c-39.11,0-62.69-25.35-54.14-65.55
		l25.86-121.68h68.81l-22.71,106.83c-3.05,17.74-2.78,36.94,18.58,36.94c34.04,0,37.63-37.3,38.09-39.48l22.17-104.3h68.81
		l-28.71,135.08c-3.46,16.3-5.41,27.16-7.75,46.72H480.67z M278.69,284.1c50.58,0,96.96,17.76,81.45,74.83h-65.6
		c1.89-9.06,0.24-16.19-4.9-21.41c-5.07-5.5-13.79-8.26-25.54-8.26c-16.06,0-32.6,10.45-35.37,23.53
		c-4.29,20.2,20.63,26.21,34.73,30.16c9.75,2.64,20.77,4.88,31.58,7.79c37.01,9.96,61.21,26.32,51.53,71.86
		c-10.82,50.91-66.32,75.37-123.08,75.37c-56.92,0-102.18-16.39-89.96-80.97h65.55c-4.51,23.26,10.72,35.81,35.24,35.81
		c15.8,0,38.6-8.23,42.29-25.58c3.81-17.9-8.62-24.79-26.75-30.11c-9.1-2.67-19.93-5.02-31.53-8.19
		c-11.52-3.14-23.79-7.08-35.85-12.92c-21.86-10.57-29.27-32.34-23.73-58.53C173.65,300.07,227.34,284.1,278.69,284.1z
		 M702.58,350.73l-6.14,34.04h0.72c14.36-30.05,38.96-40.19,69.23-39.47l-12.39,58.3c-4.99-0.36-9.7-0.36-14.41-0.36
		c-35.93,0.36-52.78,21.73-59.09,56.49l-15.47,72.79h-68.81l28.71-135.08c3.47-16.3,5.41-27.16,7.76-46.72H702.58z"/>
	<g>
		<g>
			<path d="M529.05,668.49l-13.46,96.22c-8.2,1.38-15.62,2.08-22.25,2.08c-11.45,0-20.55-2.8-27.29-8.4
				c-6.74-5.6-10.12-13.11-10.12-22.55c0-9.95,3.62-18.42,10.86-25.43c7.24-7.01,16.96-10.51,29.18-10.51
				c1.99,0,5.11,0.23,9.37,0.69l4.5-32.09H529.05z M498.29,750.46l4.71-33.48c-1.67-0.23-3.29-0.35-4.86-0.35
				c-6.85,0-12.29,1.86-16.32,5.58c-4.03,3.72-6.04,8.31-6.04,13.76c0,4.67,1.54,8.37,4.62,11.09c3.08,2.73,7.28,4.09,12.61,4.09
				C494.4,751.16,496.16,750.93,498.29,750.46z"/>
			<path d="M594.71,736.01h-42.24c-0.46,5.07,0.7,9.11,3.47,12.11c2.78,3,6.55,4.49,11.32,4.49c5.28,0,13.24-2.2,23.9-6.6
				l-3.4,16.12c-8.38,3.1-15.86,4.65-22.44,4.65c-9.77,0-17.57-2.84-23.41-8.54c-5.84-5.69-8.75-13.3-8.75-22.83
				c0-9.86,3.41-18.24,10.21-25.16c6.81-6.92,15.05-10.37,24.73-10.37c8.38,0,15.08,2.49,20.11,7.47
				c5.02,4.98,7.54,11.54,7.54,19.69C595.76,729.93,595.41,732.91,594.71,736.01z M554.35,724.9h22.58
				c0.14-0.79,0.21-1.58,0.21-2.36c0-2.82-0.86-5.11-2.57-6.84c-1.71-1.74-4.01-2.61-6.88-2.61
				C561.53,713.09,557.08,717.03,554.35,724.9z"/>
			<path d="M681.19,668.49l-14.41,102.04c-2.59,18.48-12.86,27.72-30.81,27.72c-2.31,0-4.79-0.14-7.43-0.42l2.29-16.12
				c5.09,0,8.82-1.15,11.18-3.44c2.36-2.29,3.94-6.26,4.72-11.91l13.82-97.88H681.19z"/>
			<path d="M755.88,702.04l-8.99,63.49h-19.15l0.83-5.97c-6.02,4.82-12.23,7.22-18.62,7.22c-6.53,0-11.93-2.59-16.22-7.77
				c-4.28-5.18-6.43-11.82-6.43-19.92c0-11.56,4.04-20.99,12.12-28.28c8.08-7.29,19.65-10.93,34.7-10.93
				C741.64,699.89,748.89,700.61,755.88,702.04z M730.38,746.78l4.31-30.7c-1.44-0.14-2.82-0.21-4.17-0.21
				c-7.69,0-13.49,2.32-17.4,6.97c-3.91,4.65-5.87,10.39-5.87,17.23c0,3.88,0.83,6.92,2.5,9.12c1.67,2.2,3.96,3.29,6.88,3.29
				C721.26,752.48,725.84,750.58,730.38,746.78z"/>
			<path d="M797.67,668.49l-13.69,97.04h-19.15l13.62-97.04H797.67z"/>
			<path d="M829.63,700.93l-9.1,64.6h-19.22l9.1-64.6H829.63z M812.28,683.01c0-2.73,0.97-5.07,2.92-7.02
				c1.95-1.94,4.28-2.92,7.02-2.92c2.78,0,5.14,0.97,7.09,2.92c1.94,1.95,2.92,4.29,2.92,7.02c0,2.78-0.97,5.14-2.92,7.08
				c-1.94,1.94-4.31,2.92-7.09,2.92c-2.73,0-5.07-0.97-7.02-2.92C813.26,688.15,812.28,685.79,812.28,683.01z"/>
			<path d="M885.22,705.73l-1.53,15.21c-3.34-1.67-6.81-2.99-10.42-3.96c-3.61-0.97-6.37-1.46-8.27-1.46
				c-2.82,0-4.24,0.95-4.24,2.84c0,1.89,2.55,4.74,7.64,8.53c5.84,4.35,9.6,7.98,11.29,10.9c1.69,2.92,2.54,5.83,2.54,8.74
				c0,5.83-2.26,10.64-6.77,14.44c-4.51,3.79-10.31,5.69-17.4,5.69c-7.36,0-14.8-1.94-22.3-5.83l2.64-14.31
				c7.87,3.01,13.75,4.52,17.64,4.52c4.21,0,6.32-1.18,6.32-3.55c0-2-2.8-5.11-8.4-9.34c-5.6-4.23-9.21-7.6-10.84-10.12
				c-1.63-2.52-2.44-4.93-2.44-7.25c0-6.15,2.26-11.16,6.77-15.05c4.51-3.88,10.32-5.83,17.4-5.83
				C871.58,699.89,878.37,701.84,885.22,705.73z"/>
			<path d="M951.7,702.18l-2.43,17.3c-3.38-1.2-5.75-1.98-7.12-2.33c-1.37-0.35-3.65-0.52-6.84-0.52c-6.48,0-11.92,1.91-16.32,5.72
				c-4.4,3.81-6.6,8.49-6.6,14.04c0,4.67,1.47,8.3,4.41,10.88c2.94,2.59,7.07,3.88,12.4,3.88c5.19,0,11.3-1.41,18.34-4.24
				l-2.29,17.5c-6.48,1.58-13.11,2.36-19.87,2.36c-9.68,0-17.58-2.9-23.69-8.71c-6.11-5.81-9.17-13.27-9.17-22.38
				c0-10.09,3.98-18.57,11.95-25.47c7.96-6.89,17.78-10.34,29.45-10.34C940.68,699.89,946.61,700.66,951.7,702.18z"/>
			<path d="M996.51,699.89c9.4,0,17.09,2.81,23.06,8.43c5.97,5.62,8.96,12.94,8.96,21.96c0,10.27-3.53,18.92-10.59,25.95
				c-7.06,7.03-15.76,10.55-26.08,10.55c-9.17,0-16.89-3.01-23.17-9.02c-6.28-6.01-9.41-13.37-9.41-22.07
				c0-9.76,3.66-18.17,10.97-25.22C977.57,703.42,986.32,699.89,996.51,699.89z M991.99,751.16c4.86,0,8.84-2.23,11.95-6.69
				c3.1-4.46,4.65-9.37,4.65-14.74c0-4.25-1.18-7.68-3.54-10.29c-2.36-2.61-5.49-3.92-9.38-3.92c-5.14,0-9.18,2.3-12.12,6.9
				c-2.94,4.6-4.41,9.39-4.41,14.39c0,4.34,1.3,7.82,3.89,10.44C985.63,749.85,988.61,751.16,991.99,751.16z"/>
		</g>
		<g>
			<path class="st1" d="M520.93,663.08l-13.46,96.22c-8.21,1.38-15.62,2.07-22.25,2.07c-11.45,0-20.54-2.8-27.29-8.4
				c-6.74-5.6-10.11-13.12-10.11-22.55c0-9.95,3.62-18.42,10.86-25.43c7.24-7.01,16.97-10.51,29.17-10.51
				c1.99,0,5.11,0.23,9.37,0.69l4.51-32.09H520.93z M490.18,745.06l4.71-33.48c-1.67-0.23-3.28-0.35-4.86-0.35
				c-6.85,0-12.29,1.86-16.32,5.58c-4.03,3.72-6.04,8.31-6.04,13.76c0,4.67,1.54,8.37,4.62,11.09c3.08,2.73,7.28,4.09,12.61,4.09
				C486.29,745.75,488.05,745.52,490.18,745.06z"/>
			<path class="st1" d="M586.6,730.61h-42.24c-0.46,5.07,0.69,9.11,3.47,12.11c2.78,3,6.55,4.49,11.32,4.49
				c5.28,0,13.24-2.2,23.9-6.6l-3.4,16.12c-8.38,3.1-15.86,4.65-22.44,4.65c-9.77,0-17.58-2.85-23.41-8.54
				c-5.84-5.69-8.75-13.3-8.75-22.83c0-9.85,3.4-18.24,10.21-25.16c6.81-6.92,15.05-10.37,24.73-10.37c8.38,0,15.09,2.49,20.11,7.47
				c5.03,4.98,7.54,11.54,7.54,19.69C587.64,724.52,587.3,727.5,586.6,730.61z M546.24,719.49h22.58c0.14-0.79,0.21-1.57,0.21-2.36
				c0-2.82-0.86-5.11-2.57-6.84c-1.71-1.74-4.01-2.6-6.88-2.6C553.42,707.68,548.97,711.62,546.24,719.49z"/>
			<path class="st1" d="M673.08,663.08l-14.41,102.04c-2.59,18.48-12.86,27.72-30.81,27.72c-2.31,0-4.78-0.14-7.42-0.42l2.29-16.11
				c5.1,0,8.82-1.15,11.18-3.44c2.36-2.29,3.94-6.26,4.72-11.91l13.82-97.88H673.08z"/>
			<path class="st1" d="M747.77,696.64l-8.99,63.49h-19.15l0.83-5.97c-6.02,4.82-12.23,7.22-18.62,7.22
				c-6.53,0-11.94-2.59-16.22-7.77c-4.28-5.18-6.43-11.82-6.43-19.92c0-11.56,4.04-20.99,12.12-28.28
				c8.08-7.28,19.65-10.93,34.7-10.93C733.53,694.48,740.78,695.2,747.77,696.64z M722.27,741.37l4.31-30.7
				c-1.43-0.14-2.82-0.21-4.17-0.21c-7.69,0-13.49,2.32-17.4,6.97c-3.91,4.65-5.87,10.39-5.87,17.23c0,3.88,0.83,6.92,2.5,9.12
				c1.67,2.2,3.96,3.29,6.88,3.29C713.15,747.07,717.73,745.17,722.27,741.37z"/>
			<path class="st1" d="M789.56,663.08l-13.68,97.04h-19.15l13.61-97.04H789.56z"/>
			<path class="st1" d="M821.52,695.53l-9.1,64.6H793.2l9.1-64.6H821.52z M804.17,677.6c0-2.73,0.97-5.07,2.92-7.02
				c1.94-1.95,4.28-2.92,7.02-2.92c2.78,0,5.14,0.97,7.09,2.92c1.94,1.94,2.92,4.28,2.92,7.02c0,2.78-0.97,5.14-2.92,7.08
				c-1.94,1.95-4.31,2.92-7.09,2.92c-2.73,0-5.07-0.97-7.02-2.92C805.14,682.74,804.17,680.38,804.17,677.6z"/>
			<path class="st1" d="M877.11,700.32l-1.53,15.21c-3.33-1.67-6.81-2.99-10.42-3.96c-3.61-0.97-6.37-1.46-8.27-1.46
				c-2.82,0-4.24,0.95-4.24,2.84c0,1.89,2.55,4.74,7.64,8.53c5.84,4.35,9.6,7.98,11.29,10.9c1.69,2.92,2.54,5.83,2.54,8.74
				c0,5.83-2.26,10.64-6.78,14.43c-4.52,3.79-10.32,5.69-17.4,5.69c-7.36,0-14.8-1.95-22.3-5.84l2.64-14.31
				c7.87,3.01,13.75,4.51,17.65,4.51c4.21,0,6.32-1.18,6.32-3.55c0-1.99-2.8-5.11-8.4-9.34c-5.6-4.23-9.21-7.6-10.84-10.12
				c-1.62-2.52-2.44-4.93-2.44-7.25c0-6.15,2.26-11.16,6.77-15.05c4.52-3.88,10.32-5.82,17.4-5.82
				C863.47,694.48,870.26,696.43,877.11,700.32z"/>
			<path class="st1" d="M943.59,696.78l-2.43,17.3c-3.38-1.2-5.75-1.98-7.12-2.33c-1.37-0.35-3.65-0.52-6.84-0.52
				c-6.48,0-11.93,1.91-16.32,5.72c-4.4,3.81-6.6,8.49-6.6,14.04c0,4.67,1.47,8.29,4.41,10.88c2.94,2.59,7.07,3.88,12.4,3.88
				c5.19,0,11.3-1.41,18.34-4.24l-2.29,17.51c-6.49,1.57-13.11,2.36-19.87,2.36c-9.68,0-17.57-2.9-23.69-8.71
				c-6.11-5.81-9.17-13.27-9.17-22.38c0-10.09,3.98-18.57,11.95-25.47c7.96-6.89,17.78-10.34,29.45-10.34
				C932.57,694.48,938.5,695.25,943.59,696.78z"/>
			<path class="st1" d="M988.4,694.48c9.4,0,17.09,2.81,23.06,8.43c5.97,5.62,8.96,12.94,8.96,21.96c0,10.27-3.53,18.92-10.59,25.95
				c-7.06,7.03-15.76,10.55-26.08,10.55c-9.17,0-16.89-3.01-23.17-9.02c-6.27-6.01-9.41-13.37-9.41-22.07
				c0-9.76,3.66-18.17,10.98-25.22C969.46,698.01,978.21,694.48,988.4,694.48z M983.88,745.75c4.86,0,8.84-2.23,11.95-6.69
				c3.1-4.46,4.65-9.37,4.65-14.73c0-4.25-1.18-7.69-3.54-10.3c-2.36-2.61-5.49-3.92-9.38-3.92c-5.14,0-9.18,2.3-12.12,6.9
				c-2.94,4.6-4.41,9.4-4.41,14.39c0,4.34,1.3,7.82,3.89,10.43C977.51,744.44,980.5,745.75,983.88,745.75z"/>
		</g>
	</g>
</g>
</svg>
