<?xml version="1.0" encoding="utf-8"?>
<!-- Generator: Adobe Illustrator 25.4.1, SVG Export Plug-In . SVG Version: 6.00 Build 0)  -->
<svg version="1.1" id="Capa_1" xmlns="http://www.w3.org/2000/svg" xmlns:xlink="http://www.w3.org/1999/xlink" x="0px" y="0px"
	 viewBox="0 0 1080 1080" style="enable-background:new 0 0 1080 1080;" xml:space="preserve">
<style type="text/css">
	.st0{fill:#231F20;}
	.st1{fill:#E1251B;}
</style>
<path class="st0" d="M579.9,389.16c-5.12,0-9.47,1.02-13.04,3.05h-11.65v60.68h15.16v-43.41c0.3-0.67,1.05-1.6,2.24-2.77
	c2.08-2,4.51-2.99,7.29-2.99c2.82,0,5.29,1.02,7.41,3.08c2.12,2.05,3.17,4.58,3.17,7.58v38.51h15.09v-38.98
	c-0.1-7.01-2.51-12.89-7.28-17.64C593.53,391.54,587.4,389.16,579.9,389.16"/>
<path class="st0" d="M647.76,428.35c0,3.01-1.04,5.53-3.17,7.61c-2.11,2.08-4.54,3.11-7.28,3.11c-3.13,0-5.72-1.02-7.75-3.03
	c-2.21-2.13-3.3-4.68-3.3-7.69v-36.19H611.1v36.66c0.13,7.11,2.58,13.02,7.33,17.75c4.73,4.71,11.04,7.07,18.89,7.07
	c7.44,0,13.58-2.39,18.38-7.15c4.68-4.67,7.1-10.56,7.22-17.67v-36.66h-15.16V428.35z"/>
<path class="st0" d="M722.92,397.5c-6.54-6.56-14.5-9.85-23.89-9.85c-9.32,0-17.25,3.26-23.82,9.77c-6.58,6.5-9.86,14.36-9.86,23.58
	c0,9.09,3.28,16.92,9.86,23.5c6.56,6.58,14.5,9.86,23.82,9.86c9.39,0,17.36-3.31,23.89-9.95c2.2-2.1,4.72-5.53,7.54-10.24
	l-14.36-5.03c-2.2,2.64-3.64,4.3-4.29,4.96c-3.58,3.57-7.85,5.36-12.78,5.36c-5.03,0-9.33-1.79-12.9-5.36
	c-3.58-3.58-5.41-7.16-5.51-10.72h51.1C731.72,412.01,728.79,403.38,722.92,397.5 M684.33,408.62c3.05-4.1,7.96-6.15,14.7-6.15
	c7.15,0,11.99,2.05,14.55,6.15H684.33z"/>
<polygon class="st0" points="761.14,420.41 748.1,392.22 731.3,392.22 761.14,454.82 791.12,392.22 774.24,392.22 "/>
<path class="st0" d="M850.63,397.45c-6.51-6.54-14.47-9.8-23.86-9.8c-9.31,0-17.26,3.26-23.83,9.77c-6.58,6.5-9.86,14.37-9.86,23.58
	c0,9.1,3.29,16.93,9.86,23.5c6.57,6.58,14.52,9.87,23.83,9.87c9.39,0,17.35-3.29,23.86-9.87c6.5-6.57,9.75-14.4,9.75-23.5
	C860.38,411.83,857.13,403.97,850.63,397.45 M839.53,434.11c-3.57,3.58-7.83,5.36-12.76,5.36c-5.04,0-9.33-1.79-12.91-5.36
	c-3.58-3.58-5.36-7.94-5.36-13.11c0-5.16,1.79-9.54,5.39-13.13c3.59-3.6,7.88-5.4,12.87-5.4c4.93,0,9.2,1.79,12.76,5.4
	c3.58,3.58,5.37,7.97,5.37,13.13C844.9,426.17,843.11,430.53,839.53,434.11"/>
<path class="st0" d="M306.67,510.1c117.93,8.18,217.93,56.21,265.64,115.29c-43.29-66.71-142.39-122.42-265.83-130.98
	c-123.44-8.58-224.79,34.33-277.9,94.94C84.02,537.45,188.73,501.89,306.67,510.1"/>
<path class="st1" d="M703.97,467.69c-17.77,0-32.94,6.22-45.48,18.63c-12.55,12.43-18.82,27.45-18.82,45.04
	c0,17.35,6.27,32.3,18.82,44.84c12.55,12.56,27.71,18.81,45.48,18.81c17.94,0,33.12-6.26,45.54-18.81
	c12.43-12.55,18.64-27.49,18.64-44.84c0-17.52-6.21-32.51-18.64-44.98C737.09,473.93,721.91,467.69,703.97,467.69 M728.35,556.37
	c-6.83,6.83-14.95,10.24-24.38,10.24c-9.6,0-17.82-3.41-24.64-10.24c-6.82-6.82-10.23-15.15-10.23-25.01
	c0-9.85,3.43-18.22,10.3-25.07c6.85-6.86,15.05-10.3,24.57-10.3c9.43,0,17.55,3.44,24.38,10.3c6.82,6.86,10.22,15.22,10.22,25.07
	C738.57,541.22,735.17,549.55,728.35,556.37"/>
<path class="st1" d="M823.92,470.6c-9.77,0-18.06,1.93-24.89,5.81H776.8v115.84h28.93v-82.87c0.59-1.27,2.02-3.03,4.3-5.31
	c3.96-3.78,8.59-5.69,13.9-5.69c5.38,0,10.12,1.96,14.16,5.88c4.05,3.92,6.05,8.75,6.05,14.47v73.52h28.81v-74.41
	c-0.17-13.39-4.8-24.61-13.9-33.67C849.94,475.12,838.24,470.6,823.92,470.6"/>
<polygon class="st1" points="945.02,476.41 925.32,476.41 925.32,435.1 896.26,435.1 896.26,476.41 876.55,476.41 876.55,504.2 
	896.26,504.2 896.26,592.25 925.32,592.25 925.32,504.2 945.02,504.2 "/>
<path class="st1" d="M1031.37,556.37c-6.81,6.83-14.95,10.24-24.38,10.24c-9.61,0-17.82-3.41-24.65-10.24
	c-6.82-6.82-10.3-13.65-10.48-20.47h97.52c0-21.72-5.6-38.19-16.79-49.37c-12.46-12.56-27.67-18.84-45.6-18.84
	c-17.77,0-32.93,6.22-45.47,18.64c-12.55,12.42-18.82,27.45-18.82,45.04c0,17.35,6.27,32.3,18.82,44.84
	c12.54,12.56,27.71,18.82,45.47,18.82c17.93,0,33.14-6.31,45.6-18.94c4.21-4.04,9-10.56,14.39-19.58l-27.41-9.6
	C1035.38,551.95,1032.63,555.11,1031.37,556.37 M1006.99,495.99c13.64,0,22.9,3.91,27.79,11.74h-55.83
	C984.77,499.9,994.11,495.99,1006.99,495.99"/>
<path class="st1" d="M173.03,495.56c9.39-2.63,19.04-4.93,28.93-6.89v-73.28h-28.93V495.56z"/>
<path class="st1" d="M173.03,592.25h28.93v-69.81c-9.86,1.31-19.51,2.9-28.93,4.78V592.25z"/>
<path class="st1" d="M262.84,592.25h29.05v-73.61c-9.79-0.42-19.49-0.6-29.05-0.49V592.25z"/>
<path class="st1" d="M262.84,481.41c9.56-0.41,19.25-0.44,29.05-0.16v-65.86h-29.05V481.41z"/>
<path class="st1" d="M388.61,556.37c-6.83,6.83-14.95,10.24-24.38,10.24c-9.6,0-17.82-3.41-24.64-10.24
	c-6.82-6.82-10.23-15.15-10.23-25.01c0-3.41,0.43-6.63,1.26-9.67c-8.03-0.92-16.15-1.69-24.37-2.25c-1.74-0.12-3.48-0.21-5.22-0.31
	c-0.72,3.93-1.1,8-1.1,12.23c0,17.35,6.27,32.3,18.82,44.84c12.55,12.56,27.71,18.81,45.48,18.81c17.94,0,33.11-6.26,45.54-18.81
	c9.71-9.81,15.61-21.11,17.72-33.87c-9.33-3.01-18.93-5.77-28.77-8.26C398.15,542.75,394.79,550.18,388.61,556.37"/>
<path class="st1" d="M409.77,486.38c-12.43-12.45-27.61-18.7-45.54-18.7c-16.2,0-30.23,5.19-42.1,15.51
	c36.31,3.72,70.55,12.09,101.63,23.84C420.66,499.52,415.99,492.63,409.77,486.38"/>
<path class="st1" d="M434.29,592.25h28.92v-36.67c-9.3-3.93-18.95-7.61-28.92-10.99V592.25z"/>
<path class="st1" d="M463.22,488.03v-11.62h-28.92v34.78c10.41,4.29,20.44,8.95,30.03,13.95c1.51-5.97,4.54-11.23,9.13-15.76
	c3.71-3.79,11.28-6.82,22.74-9.09l-15.16-26.78C474.88,474.09,468.94,478.94,463.22,488.03"/>
<path class="st1" d="M512.55,429.41c-5.3,0-9.8,1.8-13.52,5.38c-3.7,3.57-5.56,7.85-5.56,12.81c0,5.06,1.86,9.37,5.56,12.96
	c3.71,3.58,8.21,5.36,13.52,5.36c5.23,0,9.67-1.78,13.34-5.36c3.66-3.59,5.48-7.9,5.48-12.96c0-4.88-1.82-9.14-5.48-12.75
	C522.23,431.24,517.79,429.41,512.55,429.41"/>
<path class="st1" d="M498.04,545.23c10.36,7.04,19.98,14.47,28.8,22.21v-91.03h-28.8V545.23z"/>
<path class="st1" d="M498.04,592.25h28.8v-1.76c-8.95-6.33-18.57-12.36-28.8-18.02V592.25z"/>
<path class="st1" d="M543.08,477.8v27.79h43.21l-44.14,76.46c3.24,3.36,6.33,6.77,9.27,10.21h80.98v-27.79h-47.12l50.15-86.66
	H543.08z"/>
</svg>
