<?xml version="1.0" encoding="utf-8"?>
<!-- Generator: Adobe Illustrator 25.4.1, SVG Export Plug-In . SVG Version: 6.00 Build 0)  -->
<svg version="1.1" id="Capa_1" xmlns="http://www.w3.org/2000/svg" xmlns:xlink="http://www.w3.org/1999/xlink" x="0px" y="0px"
	 viewBox="0 0 1080 1080" style="enable-background:new 0 0 1080 1080;" xml:space="preserve">
<style type="text/css">
	.st0{fill:#31006F;}
	.st1{fill:#EE4F8F;}
	.st2{fill:#FFDD00;}
</style>
<g>
	<g>
		<path class="st0" d="M725.66,520.83c-27.61-1.06-79.51,16.14-96.26,22.93c-16.75,6.79-60.8,24.44-63.22,26.71
			c-2.42,2.26-9.96,9.51-11.32,10.71c-1.36,1.21-1.36,2.57-0.75,3.32c0.6,0.75,1.66,0.91,6.64-1.06
			c4.98-1.96,40.13-13.73,40.13-13.73s-125.23,96.11-129.46,98.22c-4.22,2.11-26.25,8-31.68,9.66c-5.43,1.66-10.71,4.83-9.96,8.6
			c0.75,3.77,8.3,2.41,12.52,1.21c4.22-1.21,35.16-10.11,39.38-11.16c4.22-1.06,6.79-1.66,10.86-4.83
			c4.07-3.17,80.72-63.07,80.72-63.07s0.45-0.45,3.92-0.6c3.47-0.15,48.28-5.58,76.2-14.33c27.91-8.75,62.91-20.52,83.74-39.08
			C757.95,535.77,753.28,521.89,725.66,520.83z M730.19,546.18c-8.6,12.98-51.3,28.36-83.59,36.96
			c-32.29,8.6-50.85,12.22-52.96,12.52c-2.11,0.3-3.76-1.06-3.76-2.26c0-1.21,2.41-3.46,3.76-4.53c0,0,33.19-26.4,38.32-30.63
			c5.13-4.23,8-5.73,10.56-6.79c2.57-1.06,31.99-14.94,57.03-19.01C724.61,528.38,738.79,533.2,730.19,546.18z"/>
		<path class="st0" d="M1054.02,558.67c-2.6-3.05-11.88-13.8-13.13-15.62c-1.25-1.81-4.3-0.9-18.22,2.04
			c-13.92,2.94-62.01,15.8-73.48,19.27c-11.47,3.47-27.76,9.05-39.23,12.98c-11.47,3.92-30.78,11.54-32.59,12.45
			c-1.81,0.91-5.51,2.34-5.81,1.96c-0.3-0.38,0.76-0.98,2.26-2.11c1.51-1.13,3.85-3.24,6.94-6.56c3.1-3.32,6.64-11.24,8.53-16.22
			c1.89-4.98,3.09-9.81,4.07-11.09c0.98-1.28,2.26-2.19,2.26-4.53c0-2.34-2.72-3.47-8.3-3.47c-5.58,0-13.43,7.09-15.62,10.34
			c-2.19,3.24-4.53,3.92-9.99,6.64c-5.46,2.71-28.18,14.48-35.73,18.56c-7.54,4.07-16.44,7.54-17.05,6.64
			c-0.6-0.91,32.14-17.96,38.93-21.88c6.79-3.92,16.3-11.62,13.28-15.24c-3.02-3.62-9.65-1.21-22.33,4.45
			c-12.67,5.66-58.39,28.59-68.65,33.42c-10.26,4.83-14.79,6.19-15.24,5.73c-0.45-0.45,3.17-2.57,7.39-4.98
			c4.23-2.41,31.38-16.6,41.64-21.73c10.26-5.13,15.24-9.5,12.52-13.58c-2.71-4.07-17.65,0.91-29.42,7.24
			c-11.77,6.33-35.91,21.28-50.85,28.82c-14.94,7.54-33.49,17.95-34.7,16.14c-1.21-1.81,19.01-14.33,30.03-22.03
			c11.01-7.7,44.21-29.42,57.33-38.32c13.13-8.9,57.79-39.98,63.07-43.3c5.28-3.32,7.7-5.88,7.24-7.09
			c-0.45-1.21-2.72-1.21-2.72-1.21s-18.86,0-20.82,0c-1.96,0-3.77,1.81-3.77,1.81s-14.49,12.07-39.38,30.93
			c-24.89,18.86-61.86,42.7-101.24,64.12c-39.38,21.43-60.58,25.16-60.58,25.16c-8.15,1.62-7.69,3.24-7.69,3.24
			c0,2.49,2.49,2.98,6,4.79c3.51,1.81,6.56,3.85,7.58,3.85c1.02,0,2.94-0.57,12.56-3.28c9.62-2.72,19.39-7.77,20.11-8.19
			c0.72-0.41,1.32-0.79,0.49,0.98c-0.83,1.77-1.09,3.55-1.09,3.55c0,4.53,5.43,4.98,5.43,4.98c7.54,0,12.9-1.28,29.05-6.79
			c16.14-5.51,27.38-13.43,28.74-14.63c1.36-1.21,1.58-0.08,1.58-0.08s-0.9,9.2,10.41,9.2c11.32,0,28.29-9.51,30.25-10.79
			c1.96-1.28,3.73-2.41,3.96-2.38s0.42,1.89,0.42,1.89c1.09,9.81,9.96,10.71,9.96,10.71c10.41,0,22.97-9.73,25.69-11.54
			c2.72-1.81,4.3-4.07,4.98-3.85c0.68,0.23,0.34,4.07,0.34,4.07c0.34,7.81,5.77,9.62,5.77,9.62c9.84,4.41,22.97-1.02,41.53-6.45
			c18.56-5.43,54.32-15.95,72.54-20.82c18.22-4.87,61.22-14.6,80-18.22c18.78-3.62,32.36-5.43,33.72-5.77
			C1054.35,562.17,1056.62,561.72,1054.02,558.67z M862.82,591.84c-8.9,7.77-14.59,8.9-16.75,8.9c-2.16,0-4.15-1.81-4.41-5.27
			c-0.26-3.45-3.37-4.4-4.58-4.23c-1.21,0.17-3.54-0.95-3.54-3.11c0-2.16,2.33-4.49,6.56-6.91c4.23-2.42,14.33-8.46,20.21-11.74
			c5.87-3.28,8.85-6.16,11.31-5.27c2.07,0.74,1.45,4.54,1.45,4.54S871.71,584.06,862.82,591.84z"/>
	</g>
	<g>
		<g>
			<path class="st0" d="M958.12,393.9c-0.64-0.5-1.34-0.59-3.14-0.59c-0.44,0-44.38,1.09-46.73,14.58l-0.45,2.57l2.61-0.07
				c11.4-0.32,48.73-1.41,50.69-1.8c1.03-0.2,1.81-0.97,2.07-2.04C963.91,403.59,959.53,395.03,958.12,393.9z"/>
			<g>
				<path class="st1" d="M239.41,512.99l31.21-24.19l-9.08,1.91c-0.31,0.06-27.99,5.92-60.47,15.43
					c22.47-17.21,45.23-32.08,67.79-44.28c0.12-0.06,11.89-6.33,33.8-9.12c5.34-0.69,11.21-1.38,17.31-2.11
					c19.86-2.36,42.37-5.03,56.69-8.5c14.5-3.51,40.02-24.94,45.49-34.48c1.2-2.08,1.56-3.7,1.15-5.08l-0.74-2.48l-2.3,1.21
					c-0.41,0.21-42.04,21.68-147.47,37.84l-0.21,0.04c-0.45,0.12-46.01,12.16-97.79,44.77l-4.85,3.05l5.66,0.86
					c0.09,0.01,0.91,0.13,2.28,0.13c3.02,0,9.12-0.59,16.07-4.5c6.1-3.44,17.03-6.93,23.08-7.91c-7.88,7.02-30.86,25.82-50,41.49
					c-13.88,4.93-25.98,9.89-35.96,14.76l-1.07,0.52l-1.13,11.24l3.63-2.16c0.07-0.04,4.88-2.88,12.93-6.69
					c-31.46,25.77-59.84,49.21-74.91,62.75c-10.74,4.62-38.87,16.23-45.23,16.7c-6.35,0.42-6.74,3.48-6.71,4.41
					c0.07,2.13,2.36,4.4,8.56,4.4c1.73,0,3.65-0.18,5.69-0.54c18.24-3.14,62.66-15.97,64.65-17.27c0.41-0.27,0.7-0.6,3.17-3.48
					c25.5-29.69,53.11-56.91,82.06-80.92c15.74-4.36,30.79-6.58,44.74-6.58L239.41,512.99z"/>
				<path class="st1" d="M938,417.69l-0.61-0.6l-0.86-0.01c-110.28-2.01-247.56,52.39-300.77,75.55c-1.8,0.78-2.98,1.3-3.49,1.5
					c-2.42,0.96-3.93,1.06-4.76,1.01c12.25-6.51,20.8-14.95,25.42-25.09c0.15-0.32,0.25-0.55,0.26-0.6
					c1.82-2.49,3.38-4.14,4.52-5.34c1.88-1.98,3.5-3.69,2.52-6.27c-1.13-3.14-5.12-3.48-6.79-3.48l-0.36,0.01
					c-2.54,0.18-3.65,0.53-4.83,0.9c-0.88,0.28-1.8,0.56-3.6,0.87c-1.4,0.23-3.79,0.57-6.51,0.96c-5.87,0.83-13.18,1.87-16.02,2.59
					c-15.94,4.13-27.74,11.5-37.23,17.42c-6.45,4.02-11.53,7.2-15.46,7.72c-2.38,0.32-4.74-0.73-5.38-2.33
					c-0.69-1.73,0.52-4.24,3.31-6.89c2.64-2.5,6-6.22,4.66-9.6c-0.93-2.32-3.69-3.5-8.21-3.5c-2.99,0-6.25,0.51-7.91,1.02
					c-4.18,1.23-9.78,11.81-12.3,16.97c-0.98,0.49-2.27,1.05-3.26,1.31c-0.03-0.95-0.37-1.85-0.99-2.62
					c-2.09-2.57-6.61-2.76-7.94-2.76c-2,0-3.82,0.34-5.13,0.96c-2.77,1.33-9.1,5.62-17.12,11.06
					c-15.2,10.32-38.18,25.92-46.83,27.41c-0.45,0.08-0.88,0.12-1.28,0.12c-1.23,0-1.76-0.37-1.8-0.37l0,0c0,0,0.03-0.29,0.55-0.82
					c4.7-4.71,18.44-13.28,29.48-20.16c10.14-6.32,16.45-10.3,18.3-12.29c2.4-2.56,2.28-4.56,1.76-5.79
					c-1.47-3.42-7.47-3.73-9.27-3.74l-0.61-0.01l-0.52,0.32c-21.65,13.27-79.96,47.51-92.15,48.16
					c3.84-5.14,24.68-19.04,33.97-25.23c8.84-5.89,10.79-7.24,11.39-8.14c0.58-0.86,0.65-1.89,0.19-2.75
					c-0.8-1.5-2.71-2.04-7.31-2.04c-3.18,0-6.47,0.28-6.61,0.29l-0.56,0.05l-0.46,0.32c-46.65,31.98-74.06,47.53-83.8,47.53
					c-0.37,0-0.7-0.02-1.01-0.06c5.25-5.26,26.09-22.89,97.6-78.26c40.54-8.57,103.55-19.49,174.35-23.06l1-0.05l10.38-13.82
					l-4.56,0.24c-0.52,0.03-51.67,2.89-160.06,20.4c22.7-17.47,39.77-30.47,39.96-30.61l5.33-4.05l-6.69,0.23
					c-23.34,0.79-24.48,1.54-25.04,1.91c-0.21,0.14-0.58,0.45-6.41,5.36c-7.65,6.44-21.82,18.4-38.68,32.4
					c-15.2,2.59-29.62,5.13-44.06,7.77l-0.53,0.1l-0.42,0.34c-20.61,16.56-20.68,17.93-20.73,19.02l-0.02,1.04l1.6,1.56l1.22-0.38
					c0.16-0.05,15.13-4.74,40.5-10.92c-52.04,42.61-85.44,67.7-96.8,72.72c-11.81,5.2-17.66,6.29-20.48,6.29
					c-1.58,0-2.37-0.33-2.59-0.65c-0.16-0.23-0.14-0.67-0.03-1.09c1.66-1.58,10.92-8.24,19.14-14.15
					c17.64-12.68,30.32-21.9,32.75-24.99c1.28-1.62,1.62-3.09,1.01-4.35c-0.61-1.25-1.93-1.89-3.95-1.89
					c-3.23,0-8.21,1.54-8.77,1.71l-0.3,0.09l-0.26,0.17c-61.49,41.58-80.29,47.79-86.03,47.79c-1.04,0-1.34-0.21-1.34-0.21
					c-0.04-0.1-0.07-0.59,0.3-1.51c2.37-2.91,28.71-19.57,52.5-33.9l6.3-3.8l-24.78-0.55l-0.51,0.29
					c-0.33,0.19-33.31,18.68-40.92,21.73c-1.94,0.76-4.08,0.88-6.34,1.02c-0.92,0.06-1.83,0.11-2.72,0.2
					c-4.88,0.47-9.15,1.09-9.19,1.1l-2.13,0.31l0.33,2.12c0.01,0.06,0.23,1.46,0.68,2.75c0.57,1.79,2.59,1.79,3.25,1.79
					c0.77,0,1.69-0.08,2.69-0.18c-2.96,2.23-6.51,5.31-7.97,8.14c-3.53,6.82,17.5,20.92,17.74,21.06c1.34,0.78,3.24,1.23,5.21,1.23
					c2.14,0,4.22-0.51,6.17-1.51c1.67-0.85,3.34-1.99,5.86-3.71c2.57-1.76,6.17-4.22,11.62-7.61c-0.13,1.3-0.03,2.7,0.47,4.06
					c0.98,2.66,3.21,4.56,6.64,5.64c1.32,0.42,2.73,0.63,4.21,0.63c6.88,0,14.55-4.59,22.67-9.44c3.75-2.24,7.63-4.57,11.58-6.53
					c3.25-1.62,5.52-2.66,7.11-3.34c-0.53,2.25-0.35,4.68,0.61,6.81c1.05,2.32,3.95,6.25,11.64,6.51l0.3,0.01
					c7.71,0,26.2-11,44.48-22.26c1.53-0.95,3.08-1.9,4.47-2.75c-0.05,0.75-0.01,1.51,0.12,2.27c0.61,3.58,3.14,6.8,6.99,8.86
					c0.82,0.41,8.08,3.47,12.33,3.47c0.69,0,1.27-0.07,1.8-0.23c8.14-2.44,20.73-12.11,26.42-16.71
					c2.88,12.23,15.33,15.64,22.97,15.64l0.68-0.01l0.55-0.41c26.7-19.81,67.7-49.81,71.13-51.21c0.73-0.21,1.4-0.21,1.93-0.05
					c-7.31,6.24-32.19,27.65-37.02,34.21c-1.93,2.61-2.41,4.97-1.43,7.02c1.81,3.76,7.77,4.15,8.95,4.19l0.84,0.03l0.64-0.55
					c18.68-16.32,49.32-42.67,52.78-44.56c0.42-0.09,0.85-0.14,1.28-0.14c1.78,0,3.39,0.79,4.45,1.47
					c-4.57,7.84-5.86,13.98-3.93,18.75c1.67,4.13,5.63,6.93,12.11,8.55c6.97,1.73,21.39-7.68,35.53-17.55
					c-0.88,1.17-1.89,2.51-3.02,4.05c-3.15,4.28-4.1,7.31-2.96,9.55c0.58,1.16,1.98,2.55,5.33,2.55c3.33,0,7.33-1.34,7.5-1.4
					l0.24-0.1c112.78-54.57,219.79-84.49,318.07-88.9c6.32-0.28,8.37-0.39,9.47-0.81c2.6-0.97,4.13-2.46,4.55-4.44
					C940.88,420.65,938.3,417.98,938,417.69z M592.76,494.65c-5.82,3.65-11.31,7.09-15.85,8.74c-4.36,1.58-7.15,1.35-9.07-0.95
					c0.39-2.37,9.04-10.77,25.83-19.94c3.84-2.12,7.72-3.99,11.52-5.56c7.19-2.96,13.99-4.73,18.18-4.73c1.32,0,1.9,0.18,2.09,0.26
					c2.13,0.88,2.52,1.5,2.56,1.5l0,0c-0.34,1.75-8.11,5.68-13.78,8.56c-3.02,1.53-6.44,3.26-9.85,5.13
					C600.39,489.86,596.51,492.29,592.76,494.65z"/>
			</g>
			<path class="st0" d="M515.82,587.93c-0.32-0.05-32.98-4.69-90.26-4.69c-61.26,0-160.17,5.39-283.45,31.06l-0.67,0.14l-19.15,20.8
				l7.39-2.17c0.83-0.24,84.12-24.41,179.7-24.41c51.81,0,97.88,7.02,136.94,20.85l0.9,0.32l74.93-40.98L515.82,587.93z"/>
			<polygon class="st2" points="420.87,612.49 447.03,621.07 496.99,594.14 453.27,592.96 			"/>
		</g>
		<g>
			<path class="st1" d="M947.36,444.89v-9.77h4.32c0.86,0,1.53,0.12,1.97,0.26c0.46,0.2,0.82,0.51,1.09,0.95
				c0.28,0.44,0.41,0.94,0.41,1.47c0,0.69-0.23,1.25-0.65,1.76c-0.48,0.47-1.16,0.78-2.09,0.88c0.33,0.17,0.59,0.34,0.77,0.5
				c0.38,0.33,0.73,0.77,1.08,1.28l1.69,2.67h-1.63l-1.28-2.04c-0.38-0.58-0.7-1.02-0.94-1.33c-0.25-0.33-0.45-0.54-0.66-0.66
				c-0.18-0.14-0.39-0.21-0.57-0.26c-0.14-0.05-0.39-0.05-0.72-0.05h-1.49v4.34H947.36z M948.65,439.44h2.77
				c0.59,0,1.04-0.06,1.39-0.17c0.33-0.14,0.59-0.33,0.75-0.62c0.18-0.24,0.26-0.56,0.26-0.86c0-0.46-0.16-0.83-0.5-1.13
				c-0.32-0.31-0.86-0.46-1.58-0.46h-3.08V439.44z"/>
			<g>
				<path class="st1" d="M951.66,449.51c-5.24,0-9.51-4.27-9.51-9.52c0-5.23,4.27-9.49,9.51-9.49c5.22,0,9.48,4.26,9.48,9.49
					C961.15,445.24,956.89,449.51,951.66,449.51L951.66,449.51z M951.66,431.9c-4.47,0-8.11,3.63-8.11,8.09
					c0,4.47,3.64,8.11,8.11,8.11c4.46,0,8.09-3.64,8.09-8.11C959.75,435.53,956.12,431.9,951.66,431.9L951.66,431.9z"/>
			</g>
		</g>
	</g>
</g>
</svg>
