<?xml version="1.0" encoding="utf-8"?>
<!-- Generator: Adobe Illustrator 25.4.1, SVG Export Plug-In . SVG Version: 6.00 Build 0)  -->
<svg version="1.1" id="Capa_1" xmlns="http://www.w3.org/2000/svg" xmlns:xlink="http://www.w3.org/1999/xlink" x="0px" y="0px"
	 viewBox="0 0 1080 1080" style="enable-background:new 0 0 1080 1080;" xml:space="preserve">
<style type="text/css">
	.st0{fill:#334872;}
	.st1{fill:#75BE43;}
</style>
<g>
	<g>
		<g>
			<path class="st0" d="M480.45,625.27c-5.82-6.79-1.7-27.63,11.15-54.78c12.85-27.15,55.75-79.99,64.23-90.65
				c8.48-10.67,7.03-17.94,0-30.54c-7.03-12.6-12.12-11.15-41.2,13.57c-29.09,24.72-86.53,85.32-86.53,85.32s26.42-42.9,30.3-50.9
				c3.88-8,24.72-36.11,12.85-52.35c-11.88-16.24-17.45-10.67-46.29,12.36c-28.84,23.03-72.96,79.26-72.96,79.26
				c2.18-3.64,35.07-53.24,35.87-78.29c0.81-25.04-14.47-35.39-18.58-35.39c-4.11,0-28.92,8.89-38.78,13.09
				c-9.86,4.2-26.18,12.44-26.18,12.44s4.69-5.33,6.63-7.11c1.94-1.78,9.05-8.24,7.27-9.7c-1.78-1.45-10.58,5.33-10.58,5.33
				c-21.33,14.06-25.21,42.17-25.94,54.53c-0.73,12.36,19.63,0.73,29.09-4.85c9.45-5.57,44.36-27.63,49.69-25.21
				c5.33,2.42,4.85,7.51-11.15,39.99c-14.96,30.38-42.44,69.24-52.07,82.07c0,0-11.79,15.97-12.16,23.37
				c-1.26,14.67,8.73,30.54,13.09,30.54s9.7-6.06,16.24-14.3c6.54-8.24,37.08-54.54,63.5-90.41c26.42-35.87,61.81-62.29,61.81-62.29
				s-8,19.88-23.75,47.75c-15.75,27.87-48.72,75.38-55.5,90.17c-6.79,14.79,3.39,38.78,6.54,38.78c3.15,0,8.24-6.06,13.09-10.91
				c4.85-4.85,35.22-41.37,58.82-70.13c23.59-28.76,68.84-67.22,68.84-67.22c-18.42,17.77-49.77,66.25-60.76,89.2
				c-10.99,22.95-9.37,69,15.83,69c25.21,0,60.76-32.48,60.76-32.48c1.74-5.06,2.95-11.1,9.21-20.12
				c-1.45,1.7-22.3,13.09-24.97,14.78C505.17,620.91,486.27,632.05,480.45,625.27z"/>
			<path class="st0" d="M566.74,589.15c-29.81,3.15-32.48,13.57-33.93,15.27c6.26-9.02,22.62-5.41,22.62-5.41
				C560.27,597.23,566.74,589.15,566.74,589.15z"/>
		</g>
	</g>
	<path class="st0" d="M222.72,615.81c-8.24,1.78-13.9,1.62-16.65-0.65c-2.75-2.26-2.26-9.05-2.26-9.05
		c0-29.57,3.55-34.26,3.55-34.26s-0.81-0.32,11.8-1.29c12.6-0.97,35.55-24.24,32.32-32.96c-3.23-8.73-31.99-4.85-31.99-4.85
		s9.37-31.02,17.13-55.91c7.76-24.89,10.99-38.46,5.17-45.89c-5.82-7.43-17.13,2.59-17.13,2.59
		C197.83,451,122.54,537.61,122.54,537.61l-20.93-0.57c10.18-1.7,20.12-8.24,20.12-8.24s-8.73-0.97-25.21,2.42
		s-34.9,20.6-36.36,31.99c-1.45,11.39,32.24,10.67,32.24,10.67l-20.36,25.45c-18.66,4.6-46.29,34.66-48.48,47.99
		c-2.18,13.33,8.97,13.33,30.05-2.42c21.09-15.75,61.08-70.53,61.08-70.53c19.15,0.97,65.44-2.67,65.44-2.67s-7.03,26.18-9.45,35.15
		c-2.42,8.97-15.51,46.29,29.33,33.93s85.08-33.93,85.08-33.93c0.36-7.4,12.16-23.37,12.16-23.37l0,0
		c-0.67,0.88-1.25,1.65-1.73,2.28C288,595.46,230.96,614.04,222.72,615.81z M192.02,533.73c0,0-35.22,3.56-47.18,2.91
		c0,0,55.91-67.22,70.78-75.94L192.02,533.73z"/>
	<path class="st0" d="M745.45,552.15c0,0,124.91,184.21,325.28-144.78c0,0-73.69,198.43-202.31,225.57
		C868.42,632.94,801.2,649.43,745.45,552.15z"/>
	<path class="st1" d="M764.38,580.57c0,0,37.79,76.45,98.55,76.45c60.75,0,137.81-64.6,184.76-198.81
		c0,0-80.05,168.28-191.06,175.79C856.62,634,809.8,638.89,764.38,580.57z"/>
	<g>
		<path class="st0" d="M733.02,640.89c0,9.05-7.29,16.39-16.39,16.39c-9.09,0-16.39-7.34-16.39-16.39c0-9.09,7.29-16.39,16.39-16.39
			C725.73,624.5,733.02,631.79,733.02,640.89z M728.89,640.89c0-6.59-5.67-12.26-12.26-12.26c-6.59,0-12.26,5.67-12.26,12.26
			c0,6.55,5.67,12.26,12.26,12.26C723.22,653.15,728.89,647.43,728.89,640.89z M723.57,648.49h-4.43l-3.3-6.81h-2.11v6.81h-3.87
			v-16.12h7.86c1.41,0,3.21-0.04,4.4,0.7c1.49,0.92,1.93,2.51,1.93,4.22c0,2.99-1.54,4.17-4.04,4.39L723.57,648.49z M717.6,638.87
			c1.49,0,2.59-0.31,2.59-1.98c0-1.71-1.98-1.71-3.25-1.71h-3.21v3.69H717.6z"/>
	</g>
	<path class="st0" d="M656.42,430.31c-42.73,7.43-77.24,24.72-84.67,49.61c-7.43,24.88-6.63,37.33,3.23,47.35
		c9.86,10.02,64.64,21.81,71.1,23.27c6.46,1.45,38.62,9.21,38.94,20.36c0.32,11.15-32.96,20.2-32.96,20.2
		c-42.66,14.86-96.63,7.92-96.63,7.92s-16.36-3.61-22.62,5.41c-6.26,9.02-7.47,15.06-9.21,20.12
		c-3.96,16.66,55.99,32.48,125.55,12.6c69.56-19.88,73.36-61.24,53.16-82.73c-20.2-21.49-76.59-34.26-92.27-39.43
		c-15.67-5.17-14.06-10.67-14.06-10.67c1.29-13.41,26.02-23.11,52.84-29.89s54.78-4.04,54.78-4.04
		c-15.67,10.67-24.24,20.04-21.17,22.78c3.07,2.75,8.73-1.78,13.25-4.52c4.53-2.75,21.01-10.83,33.13-16.16S744.32,451,744.32,451
		C754.02,422.23,699.15,422.88,656.42,430.31z"/>
</g>
</svg>
