<?xml version="1.0" encoding="utf-8"?>
<!-- Generator: Adobe Illustrator 25.4.1, SVG Export Plug-In . SVG Version: 6.00 Build 0)  -->
<svg version="1.1" id="Capa_1" xmlns="http://www.w3.org/2000/svg" xmlns:xlink="http://www.w3.org/1999/xlink" x="0px" y="0px"
	 viewBox="0 0 1080 1080" style="enable-background:new 0 0 1080 1080;" xml:space="preserve">
<style type="text/css">
	.st0{fill:#005793;}
</style>
<g>
	<path class="st0" d="M433.3,512.61l16.44-42.84c0,0-62.14-7.95-89.65,8.28c0,0-34.22,16.04-27.84,55.45c0,0,1.1,15.9,32.52,27.07
		c0,0,9.24,2.65,6.66,11.52c-2.03,7-8.15,10.36-19.22,9.81c-9.43-0.49-28.04-4.04-43.29-13.61c20.32-35.67,16.77-71.78-9.16-91.32
		c-24.02-18.1-89.54-15.48-122.7,25.39c-16.96,20.92-25.89,44.57-26.14,65.78c-6.26,0.71-16.11,1.32-27.01,0.07
		c-61.69-6.99-28.1-66.87-18.48-75.7c43.22-39.91,78.34-11.5,78.34-11.5l6.27-64.62C50.37,409.72,24.12,518.35,25.25,559.72
		c1.47,54.65,53.57,62.81,53.57,62.81s15.89,1.48,25.12,1.48c9.24,0,25.14-1.48,25.14-1.48l22.52-43.34
		c2.22,15.67,9.74,29.32,22.91,38.51c23.27,16.26,77.06,17.43,115.25-23.62c4.3-4.62,8.14-9.32,11.57-14.06l0.25,41.38l3.89,0.37
		c0,0,120.61,36.6,125.06-53.19c0,0,4.79-16.61-26.24-31.39c0,0-22.89-8.04-17.92-17.19C394.31,505.4,433.3,512.61,433.3,512.61z
		 M254.03,560c-9.9,13.99-25.25,17.89-34.83,12.29c-12.27-7.19-11.63-26.67-1.09-39.61c12.82-15.76,25.46-18.07,35.56-10.94
		C263.78,528.92,263.95,546.04,254.03,560z"/>
	<path class="st0" d="M830.73,511.82c0,0,21.67-19.22,24.15-19.22C857.34,492.6,842.32,482,830.73,511.82z"/>
	<path class="st0" d="M1051.67,535.71c-2.71,2.71-34.74,48.78-61.34,47.04c0,0-19.45-1.97-10.6-25.61c0,0,35.72,3.71,43.86-25.88
		c0,0,5.67-22.15-17.98-12.54c0,0-8.85,3.42-39.65,38.42c0,0-17.49,23.17-34.49,21.68c0,0-4.41-6.19,2.48-25.37
		c6.88-19.2-3.65-24.29-8.37-23.88c-2.97,0.24-8.64-0.76-54.47,37.19c0,0-7.12,0.24-0.21-12.53c6.89-12.85,17.99-30.57,16.49-30.86
		c-1.45-0.19-7.63,2.49-21.17,18.01c-13.55,15.53-37.44,41.38-50.74,38.93c-13.29-2.47,2.96-31.52,9.59-42.12l6.68-10.6
		c0,0-3.45-6.9-13.82,0c-10.33,6.89-33.99,62.71-3.67,60.59c17.73-1.23,47.28-35.73,47.28-35.73s-10.33,36.45-2.96,35
		c7.39-1.49,18.48-26.37,58.87-47.55c0,0,8.86-2.46,8.14,0.5c-0.74,2.95-13.6,44.57,1.73,44.57c21.16,0,40.61-22.38,40.61-22.38
		s-5.64,34.72,19.25,32.26c20.13-2.03,45.79-29.07,68.46-58.15C1055.61,536.69,1054.37,532.99,1051.67,535.71z M1010.89,520.73
		c9.23-3.3,8.86,8.49,8.86,8.49c-8.5,27.93-38.06,20.18-38.06,20.18C983.55,543.83,1001.65,524.09,1010.89,520.73z"/>
	<path class="st0" d="M1061.04,499.94c-0.22-0.19-0.53-0.4-0.94-0.62c1.14-0.13,1.97-0.5,2.55-1.08c0.53-0.62,0.81-1.3,0.81-2.14
		c0-0.64-0.16-1.26-0.5-1.79c-0.33-0.54-0.77-0.91-1.33-1.15c-0.55-0.18-1.36-0.32-2.41-0.32h-5.28v11.94h1.58v-5.3h1.84
		c0.38,0,0.7,0,0.87,0.06c0.24,0.06,0.49,0.14,0.71,0.31c0.25,0.16,0.5,0.4,0.8,0.81c0.3,0.38,0.68,0.91,1.14,1.62l1.57,2.5h1.99
		l-2.06-3.27C1061.92,500.88,1061.5,500.34,1061.04,499.94z M1058.89,498.1h-3.38v-3.94h3.77c0.89,0,1.54,0.17,1.93,0.55
		c0.42,0.37,0.61,0.81,0.61,1.38c0,0.37-0.09,0.75-0.32,1.05c-0.2,0.35-0.51,0.59-0.91,0.76
		C1060.16,498.03,1059.62,498.1,1058.89,498.1z"/>
	<path class="st0" d="M1059.19,487.19c-6.41,0-11.62,5.2-11.62,11.6c0,6.41,5.21,11.63,11.62,11.63c6.39,0,11.59-5.21,11.59-11.63
		C1070.78,492.39,1065.57,487.19,1059.19,487.19z M1059.19,508.7c-5.46,0-9.91-4.45-9.91-9.91c0-5.45,4.45-9.89,9.91-9.89
		c5.45,0,9.88,4.43,9.88,9.89C1069.06,504.25,1064.64,508.7,1059.19,508.7z"/>
	<path class="st0" d="M795.63,477.73c24.41-10.9,37.94-31.06,37.94-31.06c18.97-32.02,4.55-33.37,4.55-33.37
		c-21.35-1.95-43.42,51.22-46.1,57.84c-18.43,2.98-27.16-13.18-27.16-13.18c-4.32,3.74-4.32,9.28-4.32,9.28
		c11.24,11.1,23.09,12.09,29.51,11.61h0.01l-0.07,0.33c-20.32,39.88-38.78,66.58-54.77,84.43c-0.67-0.87-1.34-1.64-2-2.53
		c0,0-39.4-61.57-80.54-23.16c0,0-1.42,1.56-3.28,4.28c-1.81,2.29-2.74,3.87-2.74,3.87l0.49-1.58
		c11.82-28.3,38.75-23.92,38.75-23.92l2.02-7.75c0,0,6.38-45.3-39.91-45.3l-62.31,3.94l-22.17,41.6c0,0,89.14-26.37,59.1,23.91
		c0,0-31.03-27.11-69.45,1.7c0,0-17.23,11.4-22.46,35.99h-21.87c0,0-8.62-0.74-4.66-14.78c3.92-14.06,13.53-43.11,13.53-43.11h12.09
		l48.76-43.09h-49.28l10.13-42.36l-58.89,26.58l-3.45,14.28l-12.05,0.5l-26.11,42.13h24.14l-17.01,63.06c0,0-11.33,46.8,21.67,47.52
		h34.72l27.04-42.17c-0.5,6.09-0.27,12.83,1.04,20.26c0,0,4.93,32.37,55.54,25.37c3.13-0.44,17.85-3.56,25.99-25.37l-5.42,22.42
		l50.23,0.23l6-23.08c13.69,5.71,37.54,3.76,68.45-27.99c0.49,0.53,0.94,1,1.43,1.58c14.61,16.68,70.42,85.71,114.02,26.84
		l-1.99-4.22c0,0-29.48,62.02-106.45-31.79c16.57-18.9,35-46.19,54.82-85.09L795.63,477.73 M835.21,418.8
		c13.13,5.15-11.98,33.24-11.98,33.24c-10.09,10.13-18.81,15.49-26.19,17.91C820.03,421.3,835.21,418.8,835.21,418.8z
		 M614.31,584.29c-6.34,7.85-16.77,9.88-23.34,4.54c-6.56-5.29-6.72-15.92-0.4-23.74c6.33-7.85,16.75-9.84,23.32-4.58
		C620.43,565.84,620.62,576.47,614.31,584.29z M672.1,597.77c0,0-4.94-0.79-10.63-3.7c-5.33-2.95-9.09-6.36-11.73-9.87
		c-3.47-4.9-5.73-11.51-5.09-20.37c2.4,20.04,21.32,29,21.32,29l16.68-58.71c2.21,0.51,4.52,1.25,6.95,2.32
		c0,0,12.12,5.74,38.35,34.83C693.3,605.93,672.1,597.77,672.1,597.77z"/>
</g>
</svg>
