<?xml version="1.0" encoding="utf-8"?>
<!-- Generator: Adobe Illustrator 25.4.1, SVG Export Plug-In . SVG Version: 6.00 Build 0)  -->
<svg version="1.1" id="Capa_1" xmlns="http://www.w3.org/2000/svg" xmlns:xlink="http://www.w3.org/1999/xlink" x="0px" y="0px"
	 viewBox="0 0 1080 1080" style="enable-background:new 0 0 1080 1080;" xml:space="preserve">
<style type="text/css">
	.st0{fill:#00416B;}
</style>
<g>
	<path class="st0" d="M90.11,453.3h35.82l2.56,184.96h-27.62l-0.66-46.3H60.17l-19.14,46.3H13.47L90.11,453.3z M99.81,562.77
		l-0.68-64.44h-0.27l-26.49,64.44H99.81z"/>
	<path class="st0" d="M186.09,558.18h1.82c9.37-23.53,26.03-61.65,43.71-61.65c8.55,0,12.57,9.46,11.33,22.25
		c-0.46,4.62-0.89,10.23-2.33,17.14l-4.73,22.25h1.78c9.41-23.79,25.91-61.65,43.73-61.65c8.73,0,14.27,10.49,12.74,25.84
		c-0.62,6.38-1.59,11.76-2.99,18.15l-21.06,97.73h-27.15l18.44-83.4c0.6-3.08,1.2-5.88,1.49-8.94c0.27-2.82-0.35-5.64-2.15-5.64
		c-5.06,0-26.12,42.97-30.43,51.68l-9.97,46.3h-27.17l18.44-83.4c0.6-3.08,1.2-5.88,1.49-8.94c0.29-2.82-0.33-5.64-2.15-5.64
		c-5.08,0-26.14,42.97-30.45,51.68l-9.99,46.3h-26.99l29.92-138.64h27.15L186.09,558.18z"/>
	<path class="st0" d="M370.19,625.97c-15.11,8.69-29.69,15.35-44.08,15.35c-16.52,0-32.81-14.08-29.59-46.31
		c3.96-40.15,30.1-98.48,67.61-98.48c10.2,0,21.1,9.46,18.96,30.95c-3.96,40.17-36.85,64.71-57.29,63.71
		c-1.32,14.83,4.69,20.97,12.64,20.97c10.94,0,28.55-11.27,39.17-20.21L370.19,625.97z M356.01,537.72
		c0.64-6.66-1.24-10.49-4.96-10.49c-9.46,0-17.88,23.03-20.56,36.33C344.11,564.06,354.19,555.89,356.01,537.72z"/>
	<path class="st0" d="M449.02,579.68h-1.78c-8.34,23.52-27.38,61.64-44.04,61.64c-11.69,0-16.81-18.17-14.99-36.59
		c4.42-44.76,36.46-107.46,64.78-107.46c6.77,0,11.19,2.34,13.28,2.34h27.13l-29.9,138.64h-28.82L449.02,579.68z M458.02,529.53
		c-2.4-2.54-5.51-4.59-8.81-4.59c-17.41,0-29.5,53.96-30.8,67.01c-0.35,3.57-0.02,7.92,2.52,7.92c7.95,0,26.04-40.42,34.05-56.27
		L458.02,529.53z"/>
	<path class="st0" d="M528.79,441.03h28.8l-42.47,197.23h-28.94L528.79,441.03z"/>
	<path class="st0" d="M622.32,536.95c-5.78-5.36-11.6-11.75-18.81-11.75c-15.59,0-27.75,38.1-29.94,60.36
		c-1.47,14.84,2.56,22.52,11.09,22.52c7.5,0,19.94-7.17,27.29-13.56l-7.35,35.03c-10.55,6.41-25.46,11.77-33.12,11.77
		c-16.48,0-32.77-14.08-29.6-46.31c3.96-40.15,30.14-98.48,67.64-98.48c1.2,0,11.62,3.83,19.72,8.18L622.32,536.95z"/>
	<path class="st0" d="M697.8,625.97c-15.11,8.69-29.71,15.35-44.12,15.35c-16.5,0-32.79-14.08-29.61-46.31
		c4-40.15,30.14-98.48,67.64-98.48c10.2,0,21.1,9.46,18.99,30.95c-3.98,40.17-36.87,64.71-57.31,63.71
		c-1.32,14.83,4.67,20.97,12.6,20.97c10.98,0,28.59-11.27,39.21-20.21L697.8,625.97z M683.57,537.72c0.66-6.66-1.2-10.49-4.93-10.49
		c-9.46,0-17.88,23.03-20.56,36.33C671.68,564.06,681.76,555.89,683.57,537.72z"/>
	<path class="st0" d="M755.81,558.18h1.8c8.34-23.53,27.38-61.65,44.02-61.65c10.2,0,14.97,12.78,13.36,28.9
		c-0.66,6.67-2.39,13.32-3.8,19.97l-20.15,92.86h-28.76l18.66-87c0.33-1.78,1.22-4.85,1.42-6.9c0.15-1.54,0.12-4.09-1.24-4.09
		c-5.24,0-27.38,44.76-31.2,54.74l-9.39,43.25h-28.96l29.94-138.64h28.62L755.81,558.18z"/>
	<path class="st0" d="M892.32,530.56c-5.49-3.57-11.37-6.4-17.49-6.4c-4.81,0-11.65,2.55-12.66,12.79
		c-1.61,16.37,22.24,28.15,19.26,58.34c-1.82,18.4-11.75,46.04-42.51,46.04c-10.16,0-19.28-3.33-28.92-7.66l6.96-32.5
		c6.69,5.38,16.91,12.53,24.71,12.53c3.9,0,9.43-4.35,10.32-13.29c1.86-18.95-20.21-30.69-17.22-60.88
		c1.63-16.36,10.86-42.98,41.73-42.98c7.52,0,15.36,2.55,22.26,4.1L892.32,530.56z"/>
	<path class="st0" d="M969.87,625.97c-15.07,8.69-29.71,15.35-44.12,15.35c-16.47,0-32.78-14.08-29.59-46.31
		c3.98-40.15,30.18-98.48,67.64-98.48c10.2,0,21.1,9.46,18.97,30.95c-3.96,40.17-36.85,64.71-57.29,63.71
		c-1.32,14.83,4.65,20.97,12.63,20.97c10.94,0,28.57-11.27,39.19-20.21L969.87,625.97z M955.69,537.72c0.66-6.66-1.24-10.49-5-10.49
		c-9.43,0-17.84,23.03-20.52,36.33C943.77,564.06,953.87,555.89,955.69,537.72z"/>
	<path class="st0" d="M1063.17,530.56c-5.51-3.57-11.36-6.4-17.49-6.4c-4.83,0-11.67,2.55-12.68,12.79
		c-1.63,16.37,22.26,28.15,19.26,58.34c-1.82,18.4-11.73,46.04-42.49,46.04c-10.18,0-19.3-3.33-28.92-7.66l6.94-32.5
		c6.69,5.38,16.93,12.53,24.73,12.53c3.88,0,9.43-4.35,10.32-13.29c1.88-18.95-20.25-30.69-17.24-60.88
		c1.61-16.36,10.86-42.98,41.75-42.98c7.51,0,15.34,2.55,22.23,4.1L1063.17,530.56z"/>
</g>
</svg>
