<?xml version="1.0" encoding="utf-8"?>
<!-- Generator: Adobe Illustrator 25.4.1, SVG Export Plug-In . SVG Version: 6.00 Build 0)  -->
<svg version="1.1" id="Capa_1" xmlns="http://www.w3.org/2000/svg" xmlns:xlink="http://www.w3.org/1999/xlink" x="0px" y="0px"
	 viewBox="0 0 1080 1080" style="enable-background:new 0 0 1080 1080;" xml:space="preserve">
<style type="text/css">
	.st0{fill-rule:evenodd;clip-rule:evenodd;fill:#003A5D;}
	.st1{fill:#003A5D;}
	.st2{fill:#7CA7AD;}
	.st3{fill-rule:evenodd;clip-rule:evenodd;fill:#007078;}
	.st4{fill:#007078;}
</style>
<g>
	<g>
		<g>
			<g>
				<path class="st0" d="M167.95,542.13c0.82-0.1,1.45-0.31,1.85-0.61c0.41-0.31,0.73-0.94,0.99-1.9l4.31-15.78
					c0.13-0.44,0.22-0.81,0.27-1.12c0.08-0.31,0.11-0.57,0.11-0.81c0-0.59-0.17-0.97-0.51-1.11c-0.33-0.16-1.02-0.28-2.07-0.37
					v-0.91h11.16v0.91c-1.24,0.12-2.05,0.32-2.47,0.58c-0.43,0.25-0.78,0.89-1.06,1.93l-4.57,16.78c-0.05,0.18-0.08,0.36-0.12,0.51
					c-0.02,0.17-0.03,0.35-0.03,0.57c0,0.39,0.18,0.67,0.51,0.85c0.35,0.16,0.83,0.24,1.45,0.24c2.41,0,4.49-0.41,6.24-1.23
					c1.77-0.83,3.32-2.37,4.65-4.61l0.84,0.15l-2.06,6.83h-19.48V542.13z"/>
				<path class="st0" d="M200.7,529.09c-0.21-0.53-0.61-0.79-1.21-0.79c-1.27,0-2.57,1.5-3.92,4.52c-1.17,2.67-1.77,4.7-1.77,6.11
					c0,0.57,0.15,1.06,0.41,1.47c0.29,0.41,0.67,0.62,1.12,0.62c1.17,0.01,2.49-1.53,3.96-4.63c1.06-2.6,1.58-4.65,1.58-6.18
					C200.88,529.74,200.83,529.37,200.7,529.09z M192.58,530.99c2.12-2.78,4.29-4.17,6.48-4.17c0.9,0,1.55,0.26,1.98,0.79
					c0.24,0.33,0.47,0.86,0.67,1.61l0.6-1.86l3.9-0.26l-2.48,8.22c-0.36,1.17-0.62,2.06-0.76,2.67c-0.3,1.18-0.46,2.02-0.46,2.52
					c0,0.21,0.05,0.35,0.13,0.43c0.09,0.08,0.2,0.13,0.31,0.13c0.21,0,0.41-0.08,0.6-0.23c0.2-0.15,0.41-0.38,0.65-0.67
					c0.11-0.12,0.31-0.36,0.59-0.7c0.27-0.35,0.5-0.65,0.68-0.89l0.73,0.53c-0.94,1.4-1.85,2.49-2.72,3.28
					c-0.86,0.8-1.73,1.19-2.62,1.19c-0.53,0-1.06-0.2-1.55-0.6c-0.51-0.41-0.77-1-0.77-1.77c0-0.3,0.15-1.03,0.46-2.18
					c0.04-0.05,0,0.03-0.13,0.23c-0.13,0.21-0.34,0.51-0.6,0.91c-0.62,0.94-1.35,1.74-2.2,2.39c-0.84,0.65-1.77,0.98-2.8,0.98
					c-0.93,0-1.79-0.35-2.59-1.04c-0.8-0.7-1.19-1.88-1.19-3.56C189.49,536.34,190.51,533.7,192.58,530.99z"/>
				<path class="st0" d="M212.6,542.13c0.84-0.1,1.45-0.31,1.86-0.61c0.39-0.31,0.73-0.94,0.99-1.9l4.31-15.78
					c0.12-0.44,0.22-0.81,0.28-1.12c0.06-0.31,0.1-0.57,0.1-0.81c0-0.59-0.17-0.97-0.5-1.11c-0.34-0.16-1.02-0.28-2.08-0.37v-0.91
					h11.15v0.91c-1.22,0.12-2.05,0.32-2.47,0.58c-0.42,0.25-0.77,0.89-1.07,1.93l-4.56,16.78c-0.05,0.18-0.08,0.36-0.12,0.51
					c-0.02,0.17-0.04,0.35-0.04,0.57c0,0.39,0.18,0.67,0.51,0.85c0.36,0.16,0.83,0.24,1.45,0.24c2.41,0,4.5-0.41,6.24-1.23
					c1.76-0.83,3.32-2.37,4.65-4.61l0.83,0.15l-2.05,6.83H212.6V542.13z"/>
				<path class="st0" d="M234.97,539.64c0.07-0.34,0.19-0.82,0.35-1.4l2.11-7.89c0.03-0.08,0.04-0.18,0.06-0.28
					c0.03-0.08,0.03-0.18,0.03-0.25c0-0.47-0.15-0.77-0.44-0.88c-0.31-0.11-0.84-0.18-1.63-0.22v-0.93
					c0.67-0.05,1.62-0.13,2.88-0.27c1.26-0.15,2.16-0.28,2.69-0.38l1.51-0.3l-2.73,10c-0.23,0.86-0.39,1.45-0.46,1.79
					c-0.2,0.85-0.31,1.4-0.31,1.65c0,0.25,0.07,0.42,0.18,0.49c0.11,0.07,0.23,0.1,0.38,0.1c0.34,0,0.8-0.3,1.31-0.91
					c0.53-0.61,1-1.24,1.4-1.91l0.76,0.5c-1.14,1.68-2.01,2.82-2.62,3.4c-1,0.96-2.06,1.44-3.19,1.44c-0.64,0-1.22-0.19-1.73-0.57
					c-0.51-0.4-0.75-1.01-0.75-1.82C234.77,540.72,234.83,540.27,234.97,539.64z M247.31,519.02c0.33,0.31,0.48,0.72,0.48,1.2
					c0,0.37-0.1,0.67-0.32,0.89c-0.22,0.23-0.56,0.48-1.03,0.74l-5.32,3.04h-1.72l4.28-4.6c0.69-0.75,1.25-1.26,1.66-1.51
					c0.25-0.14,0.51-0.22,0.77-0.22C246.6,518.57,247,518.72,247.31,519.02z"/>
				<path class="st0" d="M243.38,543.04l3.14-11.22c0.13-0.46,0.23-0.82,0.28-1.08c0.11-0.49,0.16-0.83,0.18-1.03
					c0-0.42-0.14-0.68-0.41-0.78c-0.26-0.11-0.76-0.17-1.53-0.2v-0.93c1.46-0.09,2.61-0.19,3.42-0.31c0.81-0.11,2.03-0.33,3.63-0.64
					l-2.13,6.51l0.08,0.05c-0.05,0.06,0.29-0.46,1.04-1.56c0.75-1.11,1.45-2.01,2.12-2.7c0.67-0.7,1.36-1.24,2.1-1.66
					c0.72-0.42,1.5-0.64,2.29-0.64c0.75,0,1.38,0.22,1.88,0.64c0.53,0.42,0.8,1.12,0.8,2.08c0,0.89-0.52,2.86-1.56,5.9
					c-1.02,3.02-1.56,4.65-1.56,4.86c0,0.21,0.06,0.37,0.2,0.48c0.13,0.1,0.24,0.16,0.38,0.16c0.31,0,0.76-0.39,1.37-1.17
					c0.32-0.41,0.67-0.93,1.05-1.53l0.76,0.5c-0.86,1.4-1.61,2.42-2.21,3.04c-1.04,1.06-2.17,1.59-3.35,1.59
					c-0.63,0-1.19-0.18-1.69-0.54c-0.5-0.37-0.74-0.95-0.74-1.73c0-0.5,0.12-1.24,0.36-2.21c0.24-0.96,0.53-1.95,0.88-2.96
					l1.75-5.25c0.04-0.12,0.06-0.23,0.09-0.32c0.03-0.1,0.03-0.19,0.03-0.28c0-0.26-0.09-0.44-0.28-0.54
					c-0.17-0.11-0.36-0.16-0.56-0.16c-0.73,0-1.52,0.56-2.41,1.68c-0.88,1.11-1.6,2.22-2.16,3.33c-0.6,1.2-1.11,2.42-1.52,3.65
					c-0.42,1.24-0.91,2.9-1.48,4.96H243.38z"/>
				<path class="st0" d="M272.27,528.38c-0.14-0.28-0.42-0.43-0.81-0.43c-0.83,0-1.64,0.67-2.44,1.99
					c-0.79,1.33-1.49,3.19-2.11,5.58c2.03-0.46,3.46-1.33,4.31-2.65c0.84-1.3,1.27-2.46,1.27-3.48
					C272.5,528.99,272.43,528.65,272.27,528.38z M264.98,530.5c2.1-2.47,4.41-3.7,6.93-3.7c1.09,0,1.99,0.27,2.69,0.8
					c0.72,0.54,1.09,1.3,1.09,2.29c0,1.48-0.83,2.89-2.5,4.21c-1.68,1.33-3.84,2.18-6.52,2.55c-0.06,0.35-0.11,0.68-0.14,0.99
					c-0.03,0.31-0.06,0.56-0.06,0.76c0,0.73,0.11,1.29,0.31,1.7c0.36,0.76,1.07,1.15,2.11,1.15c0.85,0,1.69-0.43,2.52-1.3
					c0.44-0.45,0.93-1.09,1.44-1.91l1.03,0.6c-0.88,1.47-1.71,2.55-2.49,3.24c-1.23,1.09-2.68,1.64-4.34,1.64
					c-1.24,0-2.4-0.45-3.5-1.34c-1.09-0.9-1.63-2.27-1.63-4.12C261.93,535.42,262.95,532.89,264.98,530.5z"/>
				<path class="st0" d="M287.11,529.09c-0.21-0.53-0.62-0.79-1.22-0.79c-1.26,0-2.57,1.5-3.91,4.52c-1.17,2.67-1.76,4.7-1.76,6.11
					c0,0.57,0.13,1.06,0.4,1.47c0.29,0.41,0.66,0.62,1.13,0.62c1.17,0.01,2.48-1.53,3.95-4.63c1.06-2.6,1.59-4.65,1.59-6.18
					C287.28,529.74,287.23,529.37,287.11,529.09z M278.97,530.99c2.13-2.78,4.29-4.17,6.49-4.17c0.89,0,1.54,0.26,1.97,0.79
					c0.25,0.33,0.47,0.86,0.67,1.61l0.6-1.86l3.91-0.26l-2.49,8.22c-0.35,1.17-0.6,2.06-0.76,2.67c-0.3,1.18-0.45,2.02-0.45,2.52
					c0,0.21,0.04,0.35,0.13,0.43c0.09,0.08,0.19,0.13,0.3,0.13c0.21,0,0.41-0.08,0.6-0.23c0.2-0.15,0.41-0.38,0.65-0.67
					c0.12-0.12,0.31-0.36,0.59-0.7c0.28-0.35,0.5-0.65,0.69-0.89l0.73,0.53c-0.95,1.4-1.86,2.49-2.72,3.28
					c-0.86,0.8-1.73,1.19-2.61,1.19c-0.54,0-1.07-0.2-1.56-0.6c-0.51-0.41-0.76-1-0.76-1.77c0-0.3,0.15-1.03,0.45-2.18
					c0.04-0.05,0,0.03-0.13,0.23c-0.15,0.21-0.34,0.51-0.61,0.91c-0.62,0.94-1.35,1.74-2.19,2.39c-0.84,0.65-1.78,0.98-2.8,0.98
					c-0.93,0-1.8-0.35-2.6-1.04c-0.8-0.7-1.2-1.88-1.2-3.56C275.89,536.34,276.92,533.7,278.97,530.99z"/>
				<path class="st0" d="M300.39,543.04l3.13-11.22c0.18-0.66,0.3-1.13,0.36-1.39c0.05-0.28,0.08-0.53,0.08-0.79
					c0-0.37-0.12-0.61-0.36-0.7c-0.23-0.1-0.75-0.16-1.55-0.21v-0.93c1.48-0.09,2.73-0.21,3.77-0.36c0.66-0.09,1.75-0.29,3.27-0.59
					l-2.1,6.51l0.11,0.08c1.54-2.32,2.69-3.87,3.47-4.66c1.27-1.28,2.61-1.93,4.02-1.93c0.65,0,1.2,0.21,1.63,0.62
					c0.44,0.4,0.65,0.96,0.65,1.67c0,0.54-0.1,1.16-0.3,1.9c-0.11,0.42-0.27,0.93-0.46,1.55c1.19-1.84,2.17-3.13,2.92-3.88
					c1.23-1.24,2.51-1.86,3.84-1.86c0.89,0,1.56,0.25,2.04,0.72c0.46,0.47,0.7,1.14,0.7,2.01c0,0.49-0.11,1.15-0.33,1.98
					c-0.02,0.11-0.14,0.52-0.36,1.23l-1.86,5.58c-0.15,0.39-0.28,0.79-0.41,1.21c-0.12,0.42-0.17,0.71-0.17,0.88
					c0,0.16,0.06,0.28,0.19,0.37c0.13,0.1,0.27,0.14,0.39,0.14c0.32,0,0.78-0.38,1.38-1.15c0.32-0.41,0.67-0.93,1.05-1.54l0.76,0.5
					c-0.86,1.4-1.61,2.42-2.21,3.04c-1.04,1.06-2.16,1.59-3.33,1.59c-0.59,0-1.14-0.16-1.66-0.51c-0.51-0.34-0.77-0.9-0.77-1.69
					c0-0.65,0.15-1.57,0.46-2.75c0.19-0.71,0.45-1.55,0.76-2.49l1.76-5.29c0.02-0.07,0.03-0.16,0.04-0.24
					c0.03-0.1,0.05-0.17,0.05-0.26c0-0.22-0.08-0.4-0.19-0.55c-0.14-0.15-0.34-0.23-0.6-0.23c-0.74,0-1.56,0.62-2.49,1.84
					c-0.92,1.22-1.69,2.49-2.31,3.79c-0.23,0.47-0.46,1.04-0.69,1.72c-0.21,0.67-0.88,2.77-2.01,6.28h-4.22l3.57-11.39
					c0.1-0.28,0.16-0.54,0.22-0.77c0.06-0.23,0.1-0.47,0.1-0.68c0-0.34-0.08-0.56-0.21-0.66c-0.15-0.09-0.29-0.13-0.46-0.13
					c-0.55,0-1.27,0.53-2.18,1.58c-0.9,1.04-1.76,2.39-2.57,4.06c-0.44,0.89-0.91,2.14-1.42,3.75c-0.33,0.96-0.75,2.38-1.27,4.23
					H300.39z"/>
				<path class="st0" d="M337.64,529.09c-0.22-0.53-0.63-0.79-1.23-0.79c-1.26,0-2.57,1.5-3.9,4.52c-1.19,2.67-1.77,4.7-1.77,6.11
					c0,0.57,0.14,1.06,0.41,1.47c0.29,0.41,0.67,0.62,1.12,0.62c1.17,0.01,2.49-1.53,3.96-4.63c1.05-2.6,1.58-4.65,1.58-6.18
					C337.81,529.74,337.74,529.37,337.64,529.09z M329.5,530.99c2.13-2.78,4.3-4.17,6.49-4.17c0.89,0,1.54,0.26,1.98,0.79
					c0.24,0.33,0.47,0.86,0.65,1.61l0.61-1.86l3.9-0.26l-2.48,8.22c-0.36,1.17-0.61,2.06-0.76,2.67c-0.31,1.18-0.46,2.02-0.46,2.52
					c0,0.21,0.04,0.35,0.14,0.43c0.09,0.08,0.19,0.13,0.31,0.13c0.2,0,0.4-0.08,0.6-0.23c0.2-0.15,0.42-0.38,0.66-0.67
					c0.11-0.12,0.31-0.36,0.58-0.7c0.29-0.35,0.51-0.65,0.69-0.89l0.73,0.53c-0.94,1.4-1.86,2.49-2.73,3.28
					c-0.86,0.8-1.72,1.19-2.6,1.19c-0.54,0-1.06-0.2-1.56-0.6c-0.51-0.41-0.75-1-0.75-1.77c0-0.3,0.14-1.03,0.45-2.18
					c0.04-0.05,0,0.03-0.14,0.23c-0.13,0.21-0.32,0.51-0.6,0.91c-0.63,0.94-1.35,1.74-2.21,2.39c-0.83,0.65-1.77,0.98-2.79,0.98
					c-0.93,0-1.79-0.35-2.59-1.04c-0.8-0.7-1.2-1.88-1.2-3.56C326.41,536.34,327.45,533.7,329.5,530.99z M343.87,519.02
					c0.32,0.31,0.49,0.72,0.49,1.2c0,0.37-0.12,0.67-0.34,0.89c-0.21,0.23-0.55,0.48-1.02,0.74l-5.32,3.04h-1.72l4.27-4.6
					c0.7-0.75,1.25-1.26,1.67-1.51c0.24-0.14,0.5-0.22,0.76-0.22C343.17,518.57,343.57,518.72,343.87,519.02z"/>
				<path class="st0" d="M343.96,537.68l0.93,0.07c0.17,1.73,0.61,2.94,1.32,3.64c0.72,0.69,1.41,1.05,2.1,1.05
					c0.6,0,1.07-0.19,1.42-0.57c0.35-0.38,0.53-0.83,0.53-1.34c0-0.47-0.16-0.98-0.48-1.54c-0.3-0.55-0.67-1.1-1.09-1.63l-1.31-1.63
					c-0.57-0.62-1.05-1.34-1.45-2.17c-0.4-0.81-0.6-1.64-0.6-2.47c0-1.17,0.44-2.17,1.32-3.02c0.88-0.85,2.07-1.27,3.58-1.27
					c0.62,0,1.27,0.13,1.96,0.39c0.69,0.27,1.13,0.39,1.35,0.39c0.28,0,0.49-0.06,0.61-0.18c0.14-0.13,0.27-0.31,0.38-0.55h1.01
					l-0.81,5.38l-0.93-0.09c-0.22-1.48-0.63-2.56-1.22-3.21c-0.59-0.66-1.2-0.98-1.85-0.98c-0.65,0-1.14,0.19-1.45,0.59
					c-0.29,0.39-0.45,0.81-0.45,1.28c0,0.41,0.11,0.81,0.33,1.22c0.23,0.38,0.66,0.99,1.3,1.8l1.72,2.2
					c0.38,0.48,0.72,1.06,1.02,1.74c0.29,0.68,0.44,1.35,0.44,2.03c0,1.41-0.51,2.56-1.53,3.43c-1.02,0.85-2.26,1.28-3.72,1.28
					c-0.62,0-1.28-0.13-1.99-0.38c-0.71-0.24-1.13-0.36-1.28-0.36c-0.29,0-0.51,0.07-0.66,0.22c-0.15,0.16-0.26,0.32-0.35,0.52
					h-0.93L343.96,537.68z"/>
				<path class="st0" d="M381.67,519.48c1.29,0.34,2.05,0.51,2.31,0.51c0.36,0,0.63-0.09,0.81-0.28c0.19-0.18,0.36-0.43,0.54-0.75
					h1.05l-1.78,8.22l-1.09-0.21c0.02-0.49,0.05-0.78,0.05-0.86c0.01-0.08,0.01-0.22,0.01-0.4c0-1.85-0.44-3.22-1.3-4.13
					c-0.86-0.9-1.97-1.35-3.31-1.35c-2.72,0-5.09,1.81-7.1,5.42c-1.81,3.23-2.71,6.52-2.71,9.87c0,2.43,0.55,4.11,1.67,5.01
					c1.11,0.89,2.33,1.34,3.65,1.34c1.71,0,3.33-0.57,4.85-1.7c0.83-0.61,1.65-1.45,2.47-2.49l1.06,0.77
					c-1.21,1.79-2.65,3.12-4.32,3.99c-1.66,0.86-3.37,1.3-5.07,1.3c-2.82,0-5.15-0.82-6.99-2.47c-1.83-1.66-2.73-3.87-2.73-6.64
					c0-4.23,1.4-7.9,4.22-11c2.8-3.11,6.15-4.67,10.02-4.67C379.16,518.96,380.4,519.13,381.67,519.48z"/>
				<path class="st0" d="M397,527.66c1.65,0.94,2.47,2.54,2.47,4.79c0,2.5-0.94,4.91-2.84,7.26c-2.08,2.55-4.45,3.82-7.11,3.82
					c-1.35,0-2.65-0.43-3.88-1.26c-1.21-0.85-1.82-2.28-1.82-4.3c0-2.49,0.95-4.93,2.83-7.27c2.08-2.57,4.46-3.85,7.16-3.85
					C394.99,526.85,396.06,527.12,397,527.66z M388.22,541.45c0.29,0.65,0.83,0.98,1.61,0.98c1.46,0,2.78-1.68,3.95-5.05
					c0.98-2.83,1.45-5.27,1.45-7.32c0-0.55-0.07-0.98-0.21-1.29c-0.25-0.57-0.75-0.86-1.47-0.86c-1.68,0-3.1,1.78-4.24,5.35
					c-0.88,2.72-1.32,4.97-1.32,6.76C388.01,540.64,388.08,541.11,388.22,541.45z M400.49,519.02c0.32,0.31,0.48,0.72,0.48,1.2
					c0,0.37-0.11,0.67-0.32,0.89c-0.22,0.23-0.56,0.48-1.02,0.74l-5.32,3.04h-1.71l4.27-4.6c0.7-0.75,1.25-1.26,1.67-1.51
					c0.24-0.14,0.5-0.22,0.77-0.22C399.79,518.57,400.19,518.72,400.49,519.02z"/>
				<path class="st0" d="M399.97,543.04l3.12-11.22c0.19-0.66,0.3-1.13,0.37-1.39c0.05-0.28,0.08-0.53,0.08-0.79
					c0-0.37-0.12-0.61-0.36-0.7c-0.23-0.1-0.75-0.16-1.54-0.21v-0.93c1.47-0.09,2.72-0.21,3.75-0.36c0.67-0.09,1.76-0.29,3.28-0.59
					l-2.11,6.51l0.12,0.08c1.54-2.32,2.69-3.87,3.46-4.66c1.27-1.28,2.6-1.93,4.02-1.93c0.65,0,1.19,0.21,1.62,0.62
					c0.44,0.4,0.66,0.96,0.66,1.67c0,0.54-0.1,1.16-0.3,1.9c-0.12,0.42-0.28,0.93-0.47,1.55c1.2-1.84,2.18-3.13,2.92-3.88
					c1.24-1.24,2.52-1.86,3.84-1.86c0.89,0,1.57,0.25,2.05,0.72c0.47,0.47,0.7,1.14,0.7,2.01c0,0.49-0.11,1.15-0.33,1.98
					c-0.02,0.11-0.14,0.52-0.36,1.23l-1.87,5.58c-0.14,0.39-0.28,0.79-0.39,1.21c-0.11,0.42-0.18,0.71-0.18,0.88
					c0,0.16,0.07,0.28,0.19,0.37c0.13,0.1,0.26,0.14,0.38,0.14c0.32,0,0.79-0.38,1.39-1.15c0.32-0.41,0.66-0.93,1.05-1.54l0.76,0.5
					c-0.87,1.4-1.61,2.42-2.21,3.04c-1.06,1.06-2.17,1.59-3.33,1.59c-0.59,0-1.16-0.16-1.67-0.51c-0.51-0.34-0.76-0.9-0.76-1.69
					c0-0.65,0.14-1.57,0.46-2.75c0.2-0.71,0.46-1.55,0.77-2.49l1.76-5.29c0.02-0.07,0.03-0.16,0.05-0.24
					c0.02-0.1,0.03-0.17,0.03-0.26c0-0.22-0.06-0.4-0.19-0.55c-0.13-0.15-0.33-0.23-0.6-0.23c-0.74,0-1.56,0.62-2.49,1.84
					c-0.92,1.22-1.68,2.49-2.29,3.79c-0.23,0.47-0.46,1.04-0.69,1.72c-0.21,0.67-0.88,2.77-2.01,6.28h-4.22l3.56-11.39
					c0.1-0.28,0.17-0.54,0.23-0.77c0.06-0.23,0.08-0.47,0.08-0.68c0-0.34-0.07-0.56-0.2-0.66c-0.13-0.09-0.3-0.13-0.46-0.13
					c-0.55,0-1.28,0.53-2.19,1.58c-0.89,1.04-1.75,2.39-2.56,4.06c-0.44,0.89-0.92,2.14-1.42,3.75c-0.33,0.96-0.76,2.38-1.27,4.23
					H399.97z"/>
				<path class="st0" d="M439.8,527.66c1.64,0.94,2.46,2.54,2.46,4.79c0,2.5-0.95,4.91-2.84,7.26c-2.08,2.55-4.45,3.82-7.11,3.82
					c-1.36,0-2.66-0.43-3.88-1.26c-1.2-0.85-1.82-2.28-1.82-4.3c0-2.49,0.94-4.93,2.83-7.27c2.08-2.57,4.47-3.85,7.16-3.85
					C437.79,526.85,438.85,527.12,439.8,527.66z M431.03,541.45c0.28,0.65,0.82,0.98,1.61,0.98c1.45,0,2.77-1.68,3.94-5.05
					c0.98-2.83,1.46-5.27,1.46-7.32c0-0.55-0.07-0.98-0.2-1.29c-0.28-0.57-0.76-0.86-1.48-0.86c-1.67,0-3.09,1.78-4.23,5.35
					c-0.89,2.72-1.34,4.97-1.34,6.76C430.79,540.64,430.88,541.11,431.03,541.45z"/>
				<path class="st0" d="M447.27,540.41c0.28,0.37,0.64,0.57,1.1,0.57c1.38,0,2.72-1.63,4.03-4.89c1.1-2.71,1.65-4.7,1.65-5.97
					c0-0.44-0.06-0.8-0.17-1.08c-0.22-0.49-0.62-0.75-1.2-0.76c-1.3,0-2.63,1.46-3.99,4.37c-1.21,2.59-1.82,4.68-1.82,6.25
					C446.87,539.52,447,540.02,447.27,540.41z M453.7,527.21c0.28,0.16,0.57,0.41,0.89,0.74l1.56-5.78
					c0.04-0.11,0.07-0.23,0.07-0.34c0.02-0.12,0.02-0.22,0.02-0.33c0-0.41-0.13-0.69-0.38-0.84c-0.25-0.15-0.6-0.22-1.07-0.22h-0.72
					v-0.95l1.5-0.13c1.19-0.1,2.1-0.21,2.73-0.31c0.64-0.11,1.68-0.29,3.12-0.57l-3.91,14.23c-0.31,1.11-0.71,2.64-1.23,4.58
					c-0.51,1.93-0.76,2.99-0.76,3.19c0,0.17,0.04,0.3,0.12,0.37c0.09,0.08,0.2,0.12,0.32,0.12c0.27,0,0.63-0.28,1.09-0.84
					c0.47-0.57,0.88-1.13,1.22-1.68l0.77,0.57c-0.93,1.37-1.68,2.34-2.26,2.93c-1.03,1.02-2.01,1.55-2.98,1.55
					c-0.5,0-0.93-0.13-1.28-0.38c-0.55-0.37-0.83-1.01-0.83-1.92c0-0.15,0.03-0.4,0.08-0.77c0.07-0.37,0.15-0.85,0.27-1.4
					c-0.84,1.37-1.58,2.35-2.2,2.94c-1.07,1.04-2.26,1.56-3.56,1.56c-1.02,0-1.92-0.39-2.66-1.19c-0.73-0.8-1.1-2-1.1-3.58
					c0-2.51,1.04-5.11,3.12-7.8c2.13-2.76,4.26-4.14,6.4-4.14C452.67,526.82,453.23,526.95,453.7,527.21z"/>
				<path class="st0" d="M470.25,529.09c-0.22-0.53-0.62-0.79-1.22-0.79c-1.27,0-2.57,1.5-3.92,4.52c-1.16,2.67-1.76,4.7-1.76,6.11
					c0,0.57,0.13,1.06,0.41,1.47c0.29,0.41,0.65,0.62,1.11,0.62c1.18,0.01,2.5-1.53,3.97-4.63c1.05-2.6,1.58-4.65,1.58-6.18
					C470.42,529.74,470.36,529.37,470.25,529.09z M462.12,530.99c2.13-2.78,4.29-4.17,6.49-4.17c0.88,0,1.55,0.26,1.97,0.79
					c0.25,0.33,0.47,0.86,0.67,1.61l0.6-1.86l3.91-0.26l-2.49,8.22c-0.36,1.17-0.61,2.06-0.76,2.67c-0.31,1.18-0.46,2.02-0.46,2.52
					c0,0.21,0.05,0.35,0.13,0.43c0.1,0.08,0.2,0.13,0.32,0.13c0.2,0,0.41-0.08,0.6-0.23c0.19-0.15,0.41-0.38,0.65-0.67
					c0.1-0.12,0.3-0.36,0.58-0.7c0.28-0.35,0.51-0.65,0.69-0.89l0.73,0.53c-0.95,1.4-1.85,2.49-2.72,3.28
					c-0.86,0.8-1.73,1.19-2.61,1.19c-0.54,0-1.06-0.2-1.56-0.6c-0.51-0.41-0.76-1-0.76-1.77c0-0.3,0.15-1.03,0.45-2.18
					c0.05-0.05,0,0.03-0.13,0.23c-0.13,0.21-0.33,0.51-0.61,0.91c-0.6,0.94-1.34,1.74-2.18,2.39c-0.84,0.65-1.77,0.98-2.8,0.98
					c-0.93,0-1.79-0.35-2.59-1.04c-0.81-0.7-1.2-1.88-1.2-3.56C459.03,536.34,460.06,533.7,462.12,530.99z"/>
			</g>
			<path class="st1" d="M241.45,437.93h77.71l-6.15,23.86h-44.97l-2.11,8.45h38.91l-4.19,16.25h-38.94l-1.8,6.76h44.96l-5.16,20.05
				h-77.69L241.45,437.93z"/>
			<path class="st1" d="M341.47,461.77l-22.4,0.01l6.14-23.85h77.7l-6.12,23.86h-22.44l-13.32,51.52h-32.89L341.47,461.77z"/>
			<path class="st1" d="M408.98,437.93h37.08l7.58,43.95h0.21l11.38-43.95h32.5l-19.45,75.37H442.4l-9.82-39.82h-0.22l-10.32,39.82
				h-32.51L408.98,437.93z"/>
			<path class="st2" d="M224.09,481.06l-1.36,5.36l-11.14,0.02c-22.49-0.21-73.13,5.3-89.54,46.36c-0.59,1.47-3.01,9.08-3.36,10.2
				l-95.93,0c0.07-0.18,3.3-9.97,3.39-10.2c3.02-8.65,18.59-52.36,89.35-51.71L224.09,481.06z"/>
			<path class="st2" d="M80.9,410.63l83.34,0c0-0.07,0.06,2.66,0.06,3.68c0.13,23.11,19.43,54.96,62.62,55.9l-1.42,5.4h-52.93
				c-75.38,0-91.56-38.88-91.67-61.26C80.9,414.31,80.84,412.88,80.9,410.63z"/>
		</g>
		<g>
			<path class="st1" d="M492.92,503.51c0.85,0,1.68,0.22,2.49,0.65c0.81,0.44,1.44,1.06,1.89,1.87c0.45,0.81,0.68,1.66,0.68,2.54
				c0,0.87-0.22,1.71-0.67,2.52s-1.07,1.43-1.87,1.88c-0.8,0.45-1.64,0.67-2.52,0.67c-0.88,0-1.72-0.22-2.52-0.67
				c-0.8-0.45-1.43-1.07-1.88-1.88c-0.45-0.81-0.67-1.64-0.67-2.52c0-0.88,0.23-1.73,0.68-2.54c0.45-0.81,1.09-1.44,1.9-1.87
				C491.24,503.73,492.07,503.51,492.92,503.51z M492.92,504.35c-0.71,0-1.4,0.18-2.08,0.55c-0.67,0.37-1.2,0.89-1.58,1.56
				c-0.38,0.68-0.57,1.38-0.57,2.12c0,0.73,0.19,1.43,0.56,2.1c0.37,0.67,0.9,1.19,1.57,1.56c0.67,0.37,1.37,0.56,2.1,0.56
				c0.73,0,1.43-0.19,2.1-0.56c0.67-0.37,1.19-0.89,1.56-1.56c0.37-0.67,0.56-1.37,0.56-2.1c0-0.73-0.19-1.44-0.57-2.12
				c-0.38-0.68-0.91-1.2-1.58-1.56C494.32,504.53,493.63,504.35,492.92,504.35z M490.7,511.38v-5.45h1.87c0.64,0,1.1,0.05,1.39,0.15
				c0.29,0.1,0.51,0.28,0.68,0.53c0.17,0.25,0.25,0.52,0.25,0.8c0,0.4-0.14,0.75-0.43,1.04c-0.28,0.3-0.66,0.46-1.13,0.5
				c0.19,0.08,0.35,0.18,0.46,0.29c0.22,0.22,0.49,0.58,0.81,1.08l0.66,1.07h-1.07l-0.48-0.86c-0.38-0.68-0.69-1.1-0.92-1.27
				c-0.16-0.13-0.4-0.19-0.7-0.19h-0.52v2.32H490.7z M491.58,508.31h1.07c0.51,0,0.86-0.08,1.04-0.23c0.19-0.15,0.28-0.35,0.28-0.6
				c0-0.16-0.04-0.31-0.13-0.43c-0.09-0.13-0.21-0.22-0.37-0.29c-0.16-0.06-0.45-0.09-0.88-0.09h-1V508.31z"/>
		</g>
	</g>
	<g>
		<g>
			<path class="st3" d="M629.08,453.99l86.53-5.95l-6.21,6.65c0,0-0.74,0.81-2.62,0.94c-1.87,0.12-83.53,5.25-83.53,5.25
				s-0.5-0.19-1.52,0.58l-56.92,56.11c0,0-3.13,4.75,1.64,4.51c4.74-0.26,32.81-17.18,54.1-40.09c0,0,2.88-3.57,5.39-4.19
				c2.51-0.63,8.14,0.08,8.14,0.08s-9.21,11.88-24.68,24.29c-15.47,12.4-11.83,14.38-11.83,14.38s4.58,3.4,22.1-11.76
				c17.54-15.15,21.42-17.89,30.01-28.06c0,0,3.2-3.75,7.33-2.86c0,0,1.62,0.43,2.67,1.12c1.09,0.69-18.46,20.35-30.6,29.25
				c-12.17,8.89,0.04,6.51,4.18,4.88c4.13-1.62,15.16-5.76,30.31-20.91c15.15-15.15,20.68-17.97,20.68-17.97s3.43-2.02,5.24-1.01
				c1.81,1.01-2.7,4.7-2.7,4.7l-13.2,12.65c0,0-1.65,1.76-0.76,2.62c0.87,0.87,2,0.52,5.01-1.93c3.01-2.43,18.78-16.3,27.05-21.98
				c0,0,0.83-1.18,3.07,0.81c2.25,2,4.74,8.02,15.22,2.63c10.46-5.37,20.72-10.64,20.72-10.64s2.15,2.19,3.69,5.45
				c0,0-25.15,12.96-40.01,33.13c0,0-0.44,1.55,1.63,0.5c2.08-1.07,29.69-15.71,39.76-22.49c0,0,0.84-0.49,1.08,0.32
				c0.23,0.82,1,5.45,0.94,5.89c0,0-41.03,22.6-61.12,31.61l-5.7,1.95c0,0-3.7,0.63-2.64-2.13c1.07-2.76,23.88-26.49,33.64-35.58
				c0,0,0.63-0.61-12.53-1.81c0,0-0.8-0.12-4.18,2.96c-3.4,3.05-41.21,37.87-41.21,37.87l-13.64,0.95c0,0,15.63-14.29,17.41-16.41
				c0,0,1.5-1.45-1.2-1.75c0,0-2.49,1.14-7.77,4.87c-5.24,3.76-21.03,14.8-30.12,14.42c0,0-2.7,0.43-3.64-0.88
				c-0.95-1.32-1.8-3.13-2.57-2.88c0,0-15.7,8.59-20.4,10.59c-4.71,1.99-10.27-0.5-14.48-3.08c0,0-23.86,14.53-31.68,14.39
				c-7.84-0.12-1.45-8.89-1.45-8.89s34.5-37.95,62.42-63.49c0,0,2.26-2.31-4.1-1.26c-6.42,1.08-35.16,9.52-48.36,14.72
				c0,0,4.69-10.77,11.46-18.78c0,0,43.4-2.82,49.23-3.33c0,0,0.42,0.39,1.56-0.94c1.11-1.3,30.26-29.19,30.26-29.19
				s4.94-3.92,11.56-5.3c0,0,5.47-1.57,6.03-0.95c0.57,0.63,0.93,1.87,0.12,2.33c-0.82,0.42-6.32,3.5-21.23,16.9
				C631.76,451.19,629.08,453.99,629.08,453.99"/>
			<path class="st3" d="M766.22,447.05c1.16,2.26-1.72,6.07-6.41,8.51c-4.69,2.4-9.46,2.56-10.63,0.3
				c-1.15-2.25,1.71-6.05,6.42-8.47C760.28,444.95,765.05,444.81,766.22,447.05"/>
			<path class="st3" d="M659.87,534.29c0,0,94.79-5.06,116.47-7.4c0,0,22.36-14.63,41.69-33.96c19.32-19.32-13.28-16.3-13.28-16.3
				s-14.12-3.2-2.37-10.07c11.78-6.9,48.25-13.62,76.32-17.15c0,0,5.04-3.71,7.72-7.23c0,0-71.59,3.34-120.47,26.54
				c0,0-9.76,9.26,14.43,11.1c0,0,8.91,0.33,8.57,5.54c-0.34,5.21-4.02,7.24-15.62,11.59c-11.6,4.37-114.28,34.8-114.28,34.8
				S656.19,533.94,659.87,534.29"/>
			<path class="st4" d="M983.78,476.24c0,0-1.63-2.95-1.96-3.52c-0.3-0.57-1.68-0.88-1.68-0.88s-22.9,16.85-26.61,18.61
				c-3.69,1.74-4.44,0.18-4.12-0.63c0.33-0.81,9.95-8.64,13.9-11.59c3.93-2.94,5.55-4.58,5.55-4.58c-1.62,0.08-9.2,0.32-9.2,0.32
				s-22.41,15.09-30.42,20.48c-8.02,5.39-20.53,12.84-22.06,13.47c-1.49,0.63-5.57,1.68-6.24,0.13c-0.69-1.56,2.43-4.27,2.43-4.27
				s37.33-27.5,37.77-27.86c0.44-0.38-0.07-0.44-0.07-0.44l-11.14,0.44c0,0-4.57,3.45-6.15,4.69c-1.55,1.26-1.92,0.31-1.92,0.31
				c-3.65-7.52-9.47-4.81-12.42-4.05c-2.95,0.75-60.66,25.65-62.16,26.15c-1.52,0.53-1.01-0.34-1.01-0.34
				c8.39-9.39,39.66-36.79,42.35-38.8c2.68-2.03,4.2-1.85,4.2-1.85s78.48-1.18,80.01-1.36c1.48-0.16,2.66-0.66,2.66-0.66
				c1.52-2.19,5.22-8.58,5.22-8.58c-6.72,0.67-85.88,5.88-85.88,5.88l23.64-22.41c-1.94-0.89-7.77-0.32-8.26-0.14
				c-0.52,0.2-1.76,1.13-1.76,1.13l-23.81,21.86l-37.88,2.75c-3,4.94-3,9.97-3,9.97c6.2-1.15,33.37-6.83,33.37-6.83
				c0.76,0.12,0.09,1.43,0.09,1.43c-2.13,3.51-16.48,15.98-23.62,22.41c-7.16,6.46-17.42,16.54-22.36,22.75
				c-4.94,6.19-5.69,7.37-5.63,8.82c0.07,1.44,4.63,0.12,4.63,0.12c14.97-4.19,34.02-16.09,38.96-18.46
				c4.95-2.39,4.69,0.61,4.69,0.61c-3.68,5.57-7.05,4.08-10.27,9.78c-3.18,5.71,1.38,6.7,7.52,6.2c6.14-0.49,18.73-5.7,20.36-6.27
				c1.62-0.57,1.49,0.16,1.49,0.16c2.84,5.03,9.2,4.18,14.54,3.5c5.36-0.66,21.39-11.17,21.39-11.17s13.36-6.85,10.19-2.01
				c-3.18,4.84-18.88,12.69-18.88,12.69h12.7c0,0,40.08-28.39,41.75-29.57c1.65-1.15,3-0.98,3-0.98s84-5.18,85.17-5.35
				c1.17-0.16,2.49-0.33,2.49-0.33c2.01-2.01,2.69-6.36,2.69-6.36L983.78,476.24z M877.24,507.34c-1.3-2.13,6.2-9.11,16.73-15.54
				c10.56-6.47,20.16-9.95,21.46-7.82c1.32,2.15-6.18,9.09-16.73,15.56C888.15,505.99,878.53,509.5,877.24,507.34"/>
		</g>
		<g>
			<path class="st4" d="M1062.39,451.15c0.85,0,1.68,0.22,2.49,0.65c0.81,0.44,1.44,1.06,1.89,1.87c0.45,0.81,0.68,1.66,0.68,2.54
				c0,0.87-0.22,1.71-0.67,2.52c-0.44,0.81-1.07,1.43-1.87,1.88c-0.8,0.45-1.64,0.67-2.52,0.67c-0.88,0-1.72-0.22-2.52-0.67
				c-0.8-0.45-1.43-1.07-1.88-1.88c-0.45-0.81-0.67-1.64-0.67-2.52c0-0.88,0.23-1.73,0.68-2.54c0.45-0.81,1.09-1.44,1.9-1.87
				C1060.71,451.37,1061.54,451.15,1062.39,451.15z M1062.39,451.99c-0.71,0-1.4,0.18-2.08,0.55c-0.67,0.37-1.2,0.89-1.58,1.56
				c-0.38,0.68-0.57,1.38-0.57,2.12c0,0.73,0.19,1.43,0.56,2.1c0.37,0.67,0.89,1.19,1.57,1.56c0.67,0.37,1.37,0.56,2.1,0.56
				c0.73,0,1.43-0.19,2.1-0.56c0.67-0.37,1.19-0.89,1.57-1.56c0.37-0.67,0.56-1.37,0.56-2.1c0-0.73-0.19-1.44-0.57-2.12
				c-0.38-0.68-0.9-1.2-1.58-1.56C1063.79,452.17,1063.09,451.99,1062.39,451.99z M1060.17,459.02v-5.45h1.87
				c0.64,0,1.1,0.05,1.39,0.15c0.29,0.1,0.51,0.28,0.68,0.53c0.17,0.25,0.25,0.52,0.25,0.8c0,0.4-0.14,0.75-0.43,1.04
				c-0.28,0.3-0.66,0.46-1.13,0.5c0.19,0.08,0.35,0.18,0.46,0.29c0.22,0.22,0.49,0.58,0.81,1.08l0.66,1.07h-1.07l-0.48-0.86
				c-0.38-0.68-0.69-1.1-0.92-1.27c-0.16-0.13-0.4-0.19-0.7-0.19h-0.52v2.32H1060.17z M1061.04,455.95h1.07
				c0.51,0,0.86-0.08,1.04-0.23c0.19-0.15,0.28-0.35,0.28-0.6c0-0.16-0.04-0.31-0.13-0.43c-0.09-0.13-0.21-0.22-0.37-0.29
				c-0.16-0.06-0.45-0.09-0.88-0.09h-1V455.95z"/>
		</g>
	</g>
</g>
</svg>
